<svg width="24" height="24" viewBox="0 0 24 24" fill="none" xmlns="http://www.w3.org/2000/svg">
<path d="M15.7949 2.9583C15.7509 3.2333 15.7289 3.50829 15.7289 3.78329C15.7289 6.25825 17.7309 8.25912 20.1949 8.25912C20.4699 8.25912 20.7339 8.22722 21.0089 8.18322V17.059C21.0089 20.789 18.8089 23 15.0689 23H6.94107C3.19999 23 1 20.789 1 17.059V8.92021C1 5.18027 3.19999 2.9583 6.94107 2.9583H15.7949ZM16.016 9.6462C15.7179 9.6132 15.422 9.7452 15.2449 9.9872L12.584 13.4301L9.53596 11.0322C9.34896 10.8892 9.12896 10.8331 8.90896 10.8562C8.69006 10.8892 8.49206 11.0091 8.35896 11.1851L5.10408 15.4211L5.03698 15.5201C4.84998 15.871 4.93798 16.322 5.26798 16.5651C5.42198 16.6641 5.58698 16.7301 5.77398 16.7301C6.02808 16.7411 6.26897 16.608 6.42297 16.4001L9.18396 12.8461L12.3189 15.2011L12.4179 15.266C12.7699 15.453 13.2099 15.3661 13.4629 15.035L16.6419 10.9332L16.5979 10.9552C16.7739 10.7132 16.8069 10.4052 16.6859 10.1302C16.566 9.8552 16.3009 9.6682 16.016 9.6462ZM20.349 1C21.812 1 23 2.18798 23 3.65096C23 5.11394 21.812 6.30192 20.349 6.30192C18.886 6.30192 17.698 5.11394 17.698 3.65096C17.698 2.18798 18.886 1 20.349 1Z" fill="#777E90"/>
</svg>
