<svg width="32" height="32" viewBox="0 0 32 32" fill="none" xmlns="http://www.w3.org/2000/svg">
<circle cx="16" cy="18.25" r="12.25" stroke="#777E90" stroke-width="3"/>
<path d="M20.5432 22.1691C20.9614 22.5298 21.0121 23.1677 20.5955 23.5303C19.9662 24.0779 19.242 24.5105 18.4559 24.8051C17.3564 25.217 16.171 25.3457 15.0087 25.1795C13.8464 25.0132 12.7446 24.5572 11.8047 23.8536C10.8649 23.1499 10.1171 22.2211 9.6302 21.1527C9.14333 20.0843 8.93303 18.9106 9.01863 17.7396C9.10424 16.5686 9.48302 15.438 10.1201 14.4517C10.7572 13.4655 11.6321 12.6554 12.6643 12.0959C13.4024 11.6958 14.204 11.4331 15.0301 11.3175C15.5771 11.241 16.0253 11.6978 16.0232 12.25L16 18.25L20.5432 22.1691Z" fill="#777E90"/>
<path d="M13.3333 1.5H18.7777" stroke="#777E90" stroke-width="3" stroke-linecap="round"/>
</svg>
