<svg width="24" height="24" viewBox="0 0 24 24" fill="none" xmlns="http://www.w3.org/2000/svg">
<mask id="mask0_1081_21880" style="mask-type:alpha" maskUnits="userSpaceOnUse" x="0" y="0" width="24" height="24">
<rect width="24" height="24" fill="white"/>
</mask>
<g mask="url(#mask0_1081_21880)">
<circle cx="14.3333" cy="13.3333" r="1.33333" fill="#3772FF"/>
<path d="M20.5556 17.0767V18.6667C20.5556 20.1394 19.3617 21.3333 17.8889 21.3333H5.4445C3.97174 21.3333 2.77783 20.1394 2.77783 18.6667V7.99999C2.77783 6.52724 3.97174 5.33333 5.4445 5.33333H17.8889C19.3617 5.33333 20.5556 6.52724 20.5556 7.99999V9.63841V9.63841" stroke="#3772FF" stroke-width="2"/>
<path d="M10.7778 13.3333C10.7778 11.3696 12.3697 9.77777 14.3334 9.77777H22.659C22.7246 9.77777 22.7778 9.83096 22.7778 9.89658V16.7701C22.7778 16.8357 22.7246 16.8889 22.659 16.8889H14.3334C12.3697 16.8889 10.7778 15.297 10.7778 13.3333V13.3333Z" stroke="#3772FF" stroke-width="2"/>
<path d="M4.00732 5.74817L10.0714 2.12789C10.5458 1.84468 11.16 1.99984 11.443 2.47438L12.9516 5.00462" stroke="#3772FF" stroke-width="2" stroke-linecap="round"/>
</g>
</svg>
