<svg width="25" height="24" viewBox="0 0 25 24" fill="none" xmlns="http://www.w3.org/2000/svg">
<path fill-rule="evenodd" clip-rule="evenodd" d="M4.25 5C3.42157 5 2.75 5.67157 2.75 6.5V9.5C2.75 10.3284 3.42157 11 4.25 11H7.25C8.07843 11 8.75 10.3284 8.75 9.5V6.5C8.75 5.67157 8.07843 5 7.25 5H4.25ZM12.25 5C11.4216 5 10.75 5.67157 10.75 6.5V9.5C10.75 10.3284 11.4216 11 12.25 11H21.25C22.0784 11 22.75 10.3284 22.75 9.5V6.5C22.75 5.67157 22.0784 5 21.25 5H12.25Z" fill="#777E90"/>
<path fill-rule="evenodd" clip-rule="evenodd" d="M4.25 13C3.42157 13 2.75 13.6716 2.75 14.5V17.5C2.75 18.3284 3.42157 19 4.25 19H7.25C8.07843 19 8.75 18.3284 8.75 17.5V14.5C8.75 13.6716 8.07843 13 7.25 13H4.25ZM12.25 13C11.4216 13 10.75 13.6716 10.75 14.5V17.5C10.75 18.3284 11.4216 19 12.25 19H21.25C22.0784 19 22.75 18.3284 22.75 17.5V14.5C22.75 13.6716 22.0784 13 21.25 13H12.25Z" fill="#777E90"/>
</svg>
