<svg width="24" height="24" viewBox="0 0 24 24" fill="none" xmlns="http://www.w3.org/2000/svg">
<path d="M15.4248 1.46002L21.8765 1.46002C22.5046 1.46002 23.0138 1.96922 23.0138 2.59736L23.0138 9.16493C23.0138 10.0062 21.9994 10.4305 21.4005 9.83966L19.4946 7.95954L16.5709 10.9294C16.1278 11.3795 15.4028 11.3824 14.9562 10.9357L13.5357 9.51522C13.0915 9.07106 13.0915 8.35094 13.5357 7.90678L16.4887 4.9537L14.729 3.05141C14.1676 2.44454 14.598 1.46002 15.4248 1.46002Z" fill="white"/>
<path d="M23.3709 20.8953V16.2005C23.3709 14.3527 22.6272 13.609 20.7795 13.609H16.0846C14.2369 13.609 13.4932 14.3527 13.4932 16.2005V20.8953C13.4932 22.743 14.2369 23.4868 16.0846 23.4868H20.7795C22.6272 23.4868 23.3709 22.743 23.3709 20.8953Z" fill="white"/>
<path d="M10.8778 8.69267V3.41678C10.8778 1.77824 10.134 1.11584 8.28631 1.11584H3.59146C1.74374 1.11584 1 1.77824 1 3.41678V8.68105C1 10.3312 1.74374 10.982 3.59146 10.982H8.28631C10.134 10.9936 10.8778 10.3312 10.8778 8.69267Z" fill="white"/>
<path d="M10.8778 20.8953V16.2005C10.8778 14.3527 10.134 13.609 8.28631 13.609H3.59146C1.74374 13.609 1 14.3527 1 16.2005V20.8953C1 22.743 1.74374 23.4868 3.59146 23.4868H8.28631C10.134 23.4868 10.8778 22.743 10.8778 20.8953Z" fill="white"/>
</svg>
