<svg width="56" height="56" viewBox="0 0 56 56" fill="none" xmlns="http://www.w3.org/2000/svg">
<mask id="mask0_8927_159188" style="mask-type:luminance" maskUnits="userSpaceOnUse" x="9" y="6" width="39" height="44">
<path fill-rule="evenodd" clip-rule="evenodd" d="M9.78741 6.71997H47.4516V49.2798H9.78741V6.71997Z" fill="white"/>
</mask>
<g mask="url(#mask0_8927_159188)">
<path fill-rule="evenodd" clip-rule="evenodd" d="M47.4516 18.6721V20.8038C47.4516 21.23 47.2311 21.6124 46.8636 21.818L39.9689 25.8022L46.1285 29.3452C46.9519 29.8156 47.4516 30.6977 47.4516 31.6385V37.3426C47.4516 38.2833 46.9519 39.1654 46.1285 39.636L29.9426 48.9271C29.1194 49.3975 28.1196 49.3975 27.2963 48.9271L21.9894 45.8693C21.5924 45.6487 21.5924 45.0754 21.9894 44.8549L39.4837 34.7846C39.6749 34.667 39.6749 34.3875 39.4837 34.27L32.9858 30.5212C32.6183 30.3153 32.1773 30.3153 31.8097 30.5212L14.0359 40.768C13.7713 40.9295 13.4333 40.9295 13.1538 40.768L11.1398 39.6211C10.3165 39.1508 9.80197 38.2688 9.80197 37.3277V34.9903C9.80197 34.6815 9.96368 34.3875 10.243 34.2259L35.7201 19.5834C35.9114 19.4658 35.9114 19.1867 35.7201 19.0689L29.2075 15.3056C28.84 15.0996 28.3989 15.0996 28.0314 15.3056L10.6695 25.2876C10.2726 25.5082 9.78741 25.2288 9.78741 24.7731V18.6573C9.78741 17.7165 10.2871 16.8345 11.1105 16.364L27.2963 7.07291C28.1196 6.60232 29.1194 6.60232 29.9426 7.07291L46.0993 16.3934C46.9519 16.8492 47.4516 17.7312 47.4516 18.6721Z" fill="#7524F9"/>
</g>
</svg>
