<svg width="39" height="44" viewBox="0 0 39 44" fill="none" xmlns="http://www.w3.org/2000/svg">
<mask id="mask0_37_1121" style="mask-type:alpha" maskUnits="userSpaceOnUse" x="0" y="0" width="39" height="44">
<path fill-rule="evenodd" clip-rule="evenodd" d="M0.142822 0.571289H38.0701V43.4284H0.142822V0.571289Z" fill="white"/>
</mask>
<g mask="url(#mask0_37_1121)">
<path fill-rule="evenodd" clip-rule="evenodd" d="M38.0701 12.6069V14.7535C38.0701 15.1827 37.8481 15.5677 37.478 15.7748L30.5351 19.7868L36.7378 23.3545C37.567 23.8282 38.0701 24.7165 38.0701 25.6639V31.4078C38.0701 32.3551 37.567 33.2433 36.7378 33.7172L20.4388 43.0732C19.6099 43.547 18.6031 43.547 17.7741 43.0732L12.43 39.994C12.0303 39.772 12.0303 39.1946 12.43 38.9726L30.0466 28.8319C30.239 28.7135 30.239 28.4321 30.0466 28.3138L23.5033 24.5388C23.1332 24.3314 22.6891 24.3314 22.319 24.5388L4.42099 34.8571C4.15452 35.0198 3.81418 35.0198 3.53276 34.8571L1.50463 33.7023C0.675613 33.2287 0.157478 32.3405 0.157478 31.3929V29.0391C0.157478 28.7282 0.32032 28.4321 0.601594 28.2694L26.2567 13.5246C26.4493 13.4062 26.4493 13.1251 26.2567 13.0065L19.6986 9.21685C19.3285 9.00945 18.8843 9.00945 18.5143 9.21685L1.03105 19.2687C0.631349 19.4907 0.142822 19.2094 0.142822 18.7505V12.592C0.142822 11.6447 0.646005 10.7564 1.47517 10.2827L17.7741 0.926692C18.6031 0.452821 19.6099 0.452821 20.4388 0.926692L36.7083 10.3123C37.567 10.7713 38.0701 11.6595 38.0701 12.6069Z" fill="#7524F9"/>
</g>
</svg>
