<?xml version="1.0" encoding="UTF-8"?>
<svg width="190px" height="60px" viewBox="0 0 190 60" version="1.1" xmlns="http://www.w3.org/2000/svg" xmlns:xlink="http://www.w3.org/1999/xlink">
    <title>bitkeep</title>
    <defs>
        <rect id="path-1" x="0" y="0" width="190" height="60"></rect>
    </defs>
    <g id="NFT交易市场" stroke="none" stroke-width="1" fill="none" fill-rule="evenodd">
        <g id="Home首页" transform="translate(-1380.000000, -3342.000000)">
            <g id="编组-33" transform="translate(0.000000, 3191.000000)">
                <g id="编组-32" transform="translate(432.000000, 70.000000)">
                    <g id="编组-29" transform="translate(0.000000, 81.000000)">
                        <g id="bitkeep" transform="translate(948.000000, 0.000000)">
                            <mask id="mask-2" fill="white">
                                <use xlink:href="#path-1"></use>
                            </mask>
                            <g id="蒙版"></g>
                            <g mask="url(#mask-2)" fill="#4C63DB">
                                <g transform="translate(0.000000, 12.000000)">
                                    <path d="M45.6629213,21.6404494 L42.6067416,21.6404494 L42.6067416,17.4157303 L45.5730337,17.4157303 C47.1011236,17.4157303 48.0898876,18.2247191 48.0898876,19.5730337 C48.0898876,20.8314607 47.1910112,21.6404494 45.6629213,21.6404494 Z M42.6067416,11.6629213 L45.3932584,11.6629213 C46.8314607,11.6629213 47.7303371,12.3820225 47.7303371,13.6404494 C47.7303371,14.8988764 46.8314607,15.6179775 45.3932584,15.6179775 L42.6067416,15.6179775 L42.6067416,11.6629213 Z M47.7303371,16.4269663 C49.0786517,15.9775281 50.0674157,14.988764 50.0674157,13.2808989 C50.0674157,11.3932584 48.5393258,9.7752809 45.6629213,9.7752809 L40.4494382,9.7752809 C40.3595506,9.7752809 40.3595506,9.7752809 40.3595506,9.86516854 L40.3595506,23.3483146 C40.3595506,23.4382022 40.3595506,23.4382022 40.4494382,23.4382022 L45.8426966,23.4382022 C48.6292135,23.4382022 50.3370787,21.8202247 50.3370787,19.752809 C50.3370787,18.1348315 49.1685393,16.6966292 47.7303371,16.4269663 Z" id="Fill-1"></path>
                                    <polygon id="Fill-3" points="52.7640449 23.4382022 55.011236 23.4382022 55.011236 12.6516854 52.7640449 12.6516854"></polygon>
                                    <path d="M53.9325843,8.33707865 C53.1235955,8.33707865 52.494382,8.96629213 52.494382,9.7752809 C52.494382,10.5842697 53.1235955,11.2134831 53.9325843,11.2134831 C54.741573,11.2134831 55.3707865,10.5842697 55.3707865,9.7752809 C55.3707865,8.96629213 54.741573,8.33707865 53.9325843,8.33707865" id="Fill-5"></path>
                                    <path d="M60.494382,9.95505618 L58.4269663,9.95505618 C58.3370787,9.95505618 58.3370787,9.95505618 58.3370787,10.0449438 L58.3370787,12.5617978 C58.3370787,12.6516854 58.3370787,12.6516854 58.247191,12.6516854 L57.1685393,12.6516854 C57.0786517,12.6516854 57.0786517,12.6516854 57.0786517,12.741573 L57.0786517,14.3595506 C57.0786517,14.4494382 57.0786517,14.4494382 57.1685393,14.4494382 L58.247191,14.4494382 C58.3370787,14.4494382 58.3370787,14.4494382 58.3370787,14.5393258 L58.3370787,20.4719101 C58.3370787,22.7191011 59.505618,23.4382022 61.4831461,23.4382022 L63.1910112,23.4382022 C63.2808989,23.4382022 63.2808989,23.4382022 63.2808989,23.3483146 L63.2808989,21.6404494 C63.2808989,21.5505618 63.2808989,21.5505618 63.1910112,21.5505618 L61.9325843,21.5505618 C61.0337079,21.5505618 60.6741573,21.1910112 60.6741573,20.3820225 L60.6741573,14.4494382 C60.6741573,14.3595506 60.6741573,14.3595506 60.7640449,14.3595506 L63.1910112,14.3595506 C63.2808989,14.3595506 63.2808989,14.3595506 63.2808989,14.2696629 L63.2808989,12.6516854 C63.2808989,12.5617978 63.2808989,12.5617978 63.1910112,12.5617978 L60.7640449,12.5617978 C60.6741573,12.5617978 60.6741573,12.5617978 60.6741573,12.4719101 L60.6741573,9.95505618 C60.5842697,9.95505618 60.5842697,9.95505618 60.494382,9.95505618" id="Fill-6"></path>
                                    <path d="M75.4157303,9.7752809 L72.8089888,9.7752809 C72.8089888,9.7752809 72.7191011,9.7752809 72.7191011,9.7752809 L67.4157303,15.9775281 L67.4157303,9.86516854 C67.4157303,9.7752809 67.4157303,9.7752809 67.3258427,9.7752809 L65.258427,9.7752809 C65.1685393,9.7752809 65.1685393,9.7752809 65.1685393,9.86516854 L65.1685393,23.3483146 C65.1685393,23.4382022 65.1685393,23.4382022 65.258427,23.4382022 L67.4157303,23.4382022 C67.505618,23.4382022 67.505618,23.4382022 67.505618,23.3483146 L67.505618,17.3258427 L72.8089888,23.4382022 C72.8089888,23.4382022 72.8089888,23.4382022 72.8988764,23.4382022 L75.5955056,23.4382022 C75.6853933,23.4382022 75.6853933,23.3483146 75.6853933,23.258427 L69.752809,16.6067416 L75.5955056,9.95505618 C75.5955056,9.86516854 75.505618,9.7752809 75.4157303,9.7752809" id="Fill-7"></path>
                                    <path d="M77.6629213,17.0561798 C77.9325843,15.3483146 79.1011236,14.3595506 80.6292135,14.3595506 C82.3370787,14.3595506 83.5955056,15.4382022 83.6853933,17.0561798 L77.6629213,17.0561798 Z M80.7191011,12.4719101 C77.4831461,12.4719101 75.3258427,14.6292135 75.3258427,18.0449438 C75.3258427,21.4606742 77.6629213,23.6179775 80.7191011,23.6179775 C83.3258427,23.6179775 85.0337079,22.1797753 85.6629213,20.3820225 C85.6629213,20.2921348 85.6629213,20.2921348 85.5730337,20.2921348 L83.3258427,20.2921348 C83.3258427,20.2921348 83.2359551,20.2921348 83.2359551,20.3820225 C82.7865169,21.1910112 82.0674157,21.8202247 80.7191011,21.8202247 C79.1011236,21.8202247 77.752809,20.741573 77.6629213,18.9438202 L85.8426966,18.9438202 C85.9325843,18.9438202 85.9325843,18.9438202 85.9325843,18.8539326 C86.0224719,18.494382 86.0224719,18.1348315 86.0224719,17.8651685 C86.0224719,14.6292135 83.8651685,12.4719101 80.7191011,12.4719101 Z" id="Fill-8"></path>
                                    <path d="M89.7977528,17.0561798 C90.0674157,15.3483146 91.2359551,14.3595506 92.7640449,14.3595506 C94.4719101,14.3595506 95.7303371,15.4382022 95.8202247,17.0561798 L89.7977528,17.0561798 Z M92.8539326,12.4719101 C89.6179775,12.4719101 87.4606742,14.6292135 87.4606742,18.0449438 C87.4606742,21.4606742 89.7977528,23.6179775 92.8539326,23.6179775 C95.4606742,23.6179775 97.1685393,22.1797753 97.7977528,20.3820225 C97.7977528,20.2921348 97.7977528,20.2921348 97.7078652,20.2921348 L95.4606742,20.2921348 C95.4606742,20.2921348 95.3707865,20.2921348 95.3707865,20.3820225 C94.9213483,21.1910112 94.2022472,21.8202247 92.8539326,21.8202247 C91.2359551,21.8202247 89.8876404,20.741573 89.7977528,18.9438202 L97.9775281,18.9438202 C98.0674157,18.9438202 98.0674157,18.9438202 98.0674157,18.8539326 C98.1573034,18.494382 98.1573034,18.1348315 98.1573034,17.8651685 C98.1573034,14.6292135 96,12.4719101 92.8539326,12.4719101 Z" id="Fill-9"></path>
                                    <path d="M105.88764,21.7303371 C104.179775,21.7303371 102.561798,20.3820225 102.561798,18.0449438 C102.561798,15.7078652 104.179775,14.4494382 105.88764,14.4494382 C107.595506,14.4494382 109.213483,15.7078652 109.213483,18.0449438 C109.213483,20.3820225 107.595506,21.7303371 105.88764,21.7303371 M106.337079,12.4719101 C104.539326,12.4719101 103.280899,13.3707865 102.561798,14.2696629 L102.561798,12.741573 C102.561798,12.6516854 102.561798,12.6516854 102.47191,12.6516854 L100.404494,12.6516854 C100.314607,12.6516854 100.314607,12.6516854 100.314607,12.741573 L100.314607,28.5617978 C100.314607,28.6516854 100.314607,28.6516854 100.404494,28.6516854 L102.47191,28.6516854 C102.561798,28.6516854 102.561798,28.6516854 102.561798,28.5617978 L102.561798,21.9101124 C103.280899,22.7191011 104.539326,23.6179775 106.337079,23.6179775 C109.213483,23.6179775 111.460674,21.2808989 111.460674,17.9550562 C111.460674,14.6292135 109.213483,12.4719101 106.337079,12.4719101" id="Fill-10"></path>
                                    <path d="M15.7303371,22.1797753 C15.9101124,22.2696629 16,22.2696629 16.1797753,22.1797753 L19.4157303,20.2921348 C19.5955056,20.2022472 19.5955056,20.0224719 19.5955056,19.9325843 L19.5955056,16.1573034 C19.5955056,15.9775281 19.505618,15.8876404 19.4157303,15.7977528 L16.1797753,13.9101124 C16,13.8202247 15.9101124,13.8202247 15.7303371,13.9101124 L12.494382,15.7977528 C12.3146067,15.8876404 12.3146067,16.0674157 12.3146067,16.1573034 L12.3146067,19.9325843 C12.3146067,20.1123596 12.4044944,20.2022472 12.494382,20.2921348 L15.7303371,22.1797753 Z" id="Fill-11"></path>
                                    <path d="M28.8539326,24.9662921 C28.8539326,25.3258427 28.6741573,25.5955056 28.4044944,25.7752809 L22.4719101,29.1910112 C22.2921348,29.2808989 22.0224719,29.2808989 21.8426966,29.1910112 L19.1460674,27.5730337 L25.258427,24.0674157 C25.7078652,23.7977528 25.8876404,23.3483146 25.8876404,22.8988764 L25.8876404,13.1011236 C25.8876404,12.6516854 25.6179775,12.2022472 25.258427,11.9325843 L16.7191011,6.98876404 C16.3595506,6.80898876 15.9101124,6.80898876 15.4606742,6.98876404 L15.4606742,3.48314607 L15.6404494,3.39325843 C15.9101124,3.21348315 16.2696629,3.21348315 16.5393258,3.39325843 L28.5842697,10.3146067 C28.8539326,10.494382 29.0337079,10.7640449 29.0337079,11.1235955 L29.0337079,24.9662921 L28.8539326,24.9662921 Z M16.4494382,32.6966292 C16.1797753,32.8764045 15.8202247,32.8764045 15.5505618,32.6966292 L3.50561798,25.6853933 C3.23595506,25.505618 3.05617978,25.2359551 3.05617978,24.8764045 L3.05617978,11.0337079 C3.05617978,10.6741573 3.23595506,10.4044944 3.50561798,10.2247191 L6.11235955,8.69662921 L6.11235955,22.8089888 C6.11235955,23.258427 6.38202247,23.7078652 6.74157303,23.9775281 L18.9662921,31.0786517 L16.4494382,32.6966292 Z M30.6516854,7.97752809 L17.3483146,0.337078652 C16.5393258,-0.112359551 15.5505618,-0.112359551 14.6516854,0.337078652 L12.3146067,1.68539326 L12.3146067,1.7752809 L12.3146067,5.19101124 L12.3146067,8.69662921 L12.3146067,8.69662921 L12.3146067,12.2022472 L15.8202247,10.2247191 C16,10.1348315 16.0898876,10.1348315 16.2696629,10.2247191 L22.5617978,13.9101124 C22.741573,14 22.741573,14.1797753 22.741573,14.2696629 L22.741573,21.5505618 C22.741573,21.7303371 22.6516854,21.8202247 22.5617978,21.9101124 L16.2696629,25.5955056 C16.0898876,25.6853933 16,25.6853933 15.8202247,25.5955056 L9.52808989,21.9101124 C9.34831461,21.8202247 9.34831461,21.6404494 9.34831461,21.5505618 L9.34831461,3.48314607 L1.34831461,7.97752809 C0.539325843,8.51685393 0,9.41573034 0,10.3146067 L0,25.6853933 C0,26.6741573 0.539325843,27.4831461 1.34831461,28.0224719 L14.6516854,35.6629213 C15.4606742,36.1123596 16.4494382,36.1123596 17.3483146,35.6629213 L30.6516854,28.0224719 C31.4606742,27.5730337 32,26.6741573 32,25.6853933 L32,10.3146067 C31.9101124,9.41573034 31.4606742,8.51685393 30.6516854,7.97752809 Z" id="Fill-12"></path>
                                    <polygon id="Fill-13" points="40.4494382 25.8651685 40.8988764 25.8651685 41.5280899 28.2022472 42.247191 25.8651685 42.6966292 25.8651685 43.4157303 28.2022472 44.0449438 25.8651685 44.494382 25.8651685 43.5955056 28.6516854 43.1460674 28.6516854 42.4269663 26.4044944 41.7977528 28.6516854 41.258427 28.6516854"></polygon>
                                    <path d="M48.6292135,26.1348315 C48.0898876,26.1348315 47.6404494,26.494382 47.6404494,27.1235955 C47.6404494,27.752809 48.0898876,28.2022472 48.6292135,28.2022472 C49.1685393,28.2022472 49.6179775,27.8426966 49.6179775,27.1235955 C49.5280899,26.5842697 49.0786517,26.1348315 48.6292135,26.1348315 M48.5393258,25.7752809 C49.0786517,25.7752809 49.4382022,26.0449438 49.6179775,26.3146067 L49.6179775,25.7752809 L50.0674157,25.7752809 L50.0674157,28.5617978 L49.6179775,28.5617978 L49.6179775,28.0224719 C49.4382022,28.2921348 49.0786517,28.5617978 48.5393258,28.5617978 C47.8202247,28.5617978 47.1910112,27.9325843 47.1910112,27.1235955 C47.1910112,26.3146067 47.7303371,25.7752809 48.5393258,25.7752809" id="Fill-14"></path>
                                    <polygon id="Fill-15" points="53.2134831 28.6516854 53.752809 28.6516854 53.752809 24.8764045 53.2134831 24.8764045"></polygon>
                                    <polygon id="Fill-16" points="56.988764 28.6516854 57.4382022 28.6516854 57.4382022 24.8764045 56.988764 24.8764045"></polygon>
                                    <path d="M60.9438202,27.0337079 L62.741573,27.0337079 C62.741573,26.494382 62.3820225,26.2247191 61.8426966,26.2247191 C61.3932584,26.1348315 61.0337079,26.494382 60.9438202,27.0337079 M61.8426966,28.6516854 C61.0337079,28.6516854 60.494382,28.1123596 60.494382,27.2134831 C60.494382,26.3146067 61.0337079,25.7752809 61.8426966,25.7752809 C62.6516854,25.7752809 63.1910112,26.3146067 63.1910112,27.1235955 C63.1910112,27.2134831 63.1910112,27.3033708 63.1910112,27.3932584 L60.9438202,27.3932584 C60.9438202,27.9325843 61.3932584,28.2921348 61.8426966,28.2921348 C62.2921348,28.2921348 62.5617978,28.1123596 62.6516854,27.752809 L63.1910112,27.752809 C63.011236,28.2921348 62.5617978,28.6516854 61.8426966,28.6516854" id="Fill-17"></path>
                                    <path d="M66.3370787,26.2247191 L65.9775281,26.2247191 L65.9775281,25.8651685 L66.3370787,25.8651685 L66.3370787,25.1460674 L66.7865169,25.1460674 L66.7865169,25.8651685 L67.505618,25.8651685 L67.505618,26.2247191 L66.7865169,26.2247191 L66.7865169,27.8426966 C66.7865169,28.1123596 66.8764045,28.2022472 67.1460674,28.2022472 L67.505618,28.2022472 L67.505618,28.5617978 L67.0561798,28.5617978 C66.5168539,28.5617978 66.247191,28.3820225 66.247191,27.752809 L66.247191,26.2247191 L66.3370787,26.2247191 Z" id="Fill-18"></path>
                                </g>
                            </g>
                        </g>
                    </g>
                </g>
            </g>
        </g>
    </g>
</svg>