<svg width="24" height="24" viewBox="0 0 24 24" fill="none" xmlns="http://www.w3.org/2000/svg">
<path fill-rule="evenodd" clip-rule="evenodd" d="M12 6.52079L8.11585 10.4046L5.85657 8.1442L12 2L18.1459 8.14671L15.8858 10.4071L12 6.52079ZM6.51939 11.9996L4.26011 9.74002L2 11.9996L4.26011 14.2591L6.51939 11.9996ZM8.11585 13.5962L12 17.48L15.8858 13.5937L18.1468 15.8525L12 22L5.85323 15.8525L8.11585 13.5962ZM19.7407 14.2617L22 12.0013L19.7407 9.74169L17.4806 12.0021L19.7407 14.2617Z" fill="#F0B90B"/>
<path d="M14.2919 11.9996H14.2927L11.9992 9.70575L9.70478 12.0004L9.70812 12.0038L11.9992 14.2951L14.2935 12.0004L14.2919 11.9996Z" fill="#F0B90B"/>
</svg>
