<svg width="205" height="204" viewBox="0 0 205 204" fill="none" xmlns="http://www.w3.org/2000/svg">
<g opacity="0.7">
<path opacity="0.4" d="M202.217 102C202.217 108.378 192.651 113.733 191.463 119.765C190.275 125.797 196.998 134.581 194.622 140.297C192.245 146.013 181.327 147.397 177.868 152.557C174.408 157.716 177.401 168.321 172.889 172.698C168.378 177.075 157.925 174.202 152.721 177.647C147.518 181.091 146.269 191.997 140.464 194.404C134.659 196.81 126.147 190.011 119.935 191.245C113.724 192.478 108.55 202 102.173 202C95.7967 202 90.4426 192.433 84.4118 191.245C78.3809 190.057 69.5979 196.78 63.8828 194.404C58.1678 192.027 56.7841 181.106 51.6256 177.647C46.467 174.187 35.8942 177.211 31.5177 172.698C27.1412 168.185 30.0138 157.731 26.5697 152.527C23.1257 147.322 12.222 146.073 9.81566 140.267C7.40933 134.461 14.2072 125.947 12.9739 119.735C11.7407 113.522 2.2207 108.348 2.2207 101.97C2.2207 95.592 11.7858 90.2371 12.9739 84.2052C14.162 78.1733 7.43941 69.3887 9.81566 63.6727C12.1919 57.9567 23.1106 56.5728 26.5697 51.4134C30.0288 46.2539 27.0058 35.6793 31.5177 31.3021C36.0296 26.9248 46.482 29.7978 51.6857 26.3532C56.8894 22.9085 58.1377 12.003 63.943 9.5963C69.7482 7.18956 78.2607 13.9886 84.472 12.7552C90.6833 11.5217 95.8569 2 102.234 2C108.61 2 113.965 11.5668 119.995 12.7552C126.026 13.9435 134.809 7.21964 140.524 9.5963C146.239 11.973 147.623 22.8935 152.782 26.3532C157.94 29.8129 168.513 26.7894 172.889 31.3021C177.266 35.8147 174.393 46.269 177.837 51.4736C181.281 56.6781 192.185 57.9266 194.592 63.7329C196.998 69.5391 190.2 78.053 191.433 84.2654C192.666 90.4778 202.217 95.6222 202.217 102Z" fill="#FF7A45" stroke="#FF7A45" stroke-width="4" stroke-miterlimit="10"/>
<path d="M202.217 102C202.217 108.378 192.651 113.733 191.463 119.765C190.275 125.797 196.998 134.581 194.622 140.297C192.245 146.013 181.327 147.397 177.868 152.557C174.408 157.716 177.401 168.321 172.889 172.698C168.378 177.075 157.925 174.202 152.721 177.647C147.518 181.091 146.269 191.997 140.464 194.404C134.659 196.81 126.147 190.011 119.935 191.245C113.724 192.478 108.55 202 102.173 202C95.7967 202 90.4426 192.433 84.4118 191.245C78.3809 190.057 69.5979 196.78 63.8828 194.404C58.1678 192.027 56.7841 181.106 51.6256 177.647C46.467 174.187 35.8942 177.211 31.5177 172.698C27.1412 168.185 30.0138 157.731 26.5697 152.527C23.1257 147.322 12.222 146.073 9.81566 140.267C7.40933 134.461 14.2072 125.947 12.9739 119.735C11.7407 113.522 2.2207 108.348 2.2207 101.97C2.2207 95.5921 11.7858 90.2371 12.9739 84.2052C14.162 78.1733 7.43941 69.3887 9.81566 63.6727C12.1919 57.9567 23.1106 56.5728 26.5697 51.4134C30.0288 46.2539 27.0058 35.6793 31.5177 31.3021C36.0296 26.9248 46.482 29.7978 51.6857 26.3532C56.8894 22.9085 58.1377 12.003 63.943 9.5963C69.7482 7.18956 78.2607 13.9886 84.472 12.7552C90.6833 11.5217 95.8569 2 102.234 2C108.61 2 113.965 11.5668 119.995 12.7552C126.026 13.9435 134.809 7.21964 140.524 9.5963C146.239 11.973 147.623 22.8935 152.782 26.3532C157.94 29.8129 168.513 26.7894 172.889 31.3021C177.266 35.8147 174.393 46.269 177.837 51.4736C181.281 56.6781 192.185 57.9266 194.592 63.7329C196.998 69.5391 190.2 78.053 191.433 84.2654C192.666 90.4778 202.217 95.6222 202.217 102Z" stroke="#FF7A45" stroke-width="4" stroke-miterlimit="10"/>
<circle cx="102.218" cy="102" r="81.4782" stroke="#FF7A45" stroke-width="4"/>
<path fill-rule="evenodd" clip-rule="evenodd" d="M166.738 96.3835C162 97.4736 158.439 101.485 157.935 106.339C162.673 105.249 166.235 101.238 166.738 96.3835Z" fill="#FF7A45"/>
<path fill-rule="evenodd" clip-rule="evenodd" d="M165.361 84.4392C161.427 85.3441 158.47 88.6743 158.052 92.7046C161.986 91.7997 164.943 88.4695 165.361 84.4392Z" fill="#FF7A45"/>
<path fill-rule="evenodd" clip-rule="evenodd" d="M160.841 71.2042C157.411 73.3329 155.69 77.441 156.599 81.3902C160.029 79.2614 161.749 75.1533 160.841 71.2042Z" fill="#FF7A45"/>
<path fill-rule="evenodd" clip-rule="evenodd" d="M153.847 59.4374C151.153 62.4464 150.658 66.8753 152.643 70.4101C155.338 67.4012 155.833 62.9723 153.847 59.4374Z" fill="#FF7A45"/>
<path fill-rule="evenodd" clip-rule="evenodd" d="M145.787 59.9077C147.912 56.476 147.627 52.032 145.057 48.8992C142.932 52.3309 143.218 56.775 145.787 59.9077Z" fill="#FF7A45"/>
<path fill-rule="evenodd" clip-rule="evenodd" d="M153.05 82.02C149.408 82.62 145.751 80.8279 144 77.5629C147.642 76.963 151.299 78.755 153.05 82.02Z" fill="#FF7A45"/>
<path fill-rule="evenodd" clip-rule="evenodd" d="M139.452 69.306C142.813 67.7857 146.806 68.5692 149.342 71.2671C145.981 72.7874 141.988 72.004 139.452 69.306Z" fill="#FF7A45"/>
<path fill-rule="evenodd" clip-rule="evenodd" d="M132.684 61.6581C135.666 59.7665 139.592 60.0014 142.409 62.2596C139.426 64.1512 135.5 63.9164 132.684 61.6581Z" fill="#FF7A45"/>
<path fill-rule="evenodd" clip-rule="evenodd" d="M155.771 104.487C151.694 103.968 148.362 100.893 147.532 96.8515C151.609 97.3703 154.941 100.446 155.771 104.487Z" fill="#FF7A45"/>
<path fill-rule="evenodd" clip-rule="evenodd" d="M147.573 86.832C151.368 87.3158 154.469 90.1786 155.243 93.9403C151.448 93.4564 148.346 90.5937 147.573 86.832Z" fill="#FF7A45"/>
<path fill-rule="evenodd" clip-rule="evenodd" d="M38.707 97.3432C43.4428 98.4345 47.0021 102.444 47.506 107.297C42.7703 106.205 39.211 102.196 38.707 97.3432Z" fill="#FF7A45"/>
<path fill-rule="evenodd" clip-rule="evenodd" d="M40.104 85.3981C44.0378 86.303 46.9945 89.6332 47.4124 93.6635C43.4786 92.7586 40.5219 89.4284 40.104 85.3981Z" fill="#FF7A45"/>
<path fill-rule="evenodd" clip-rule="evenodd" d="M44.6235 72.1631C48.0536 74.2919 49.7743 78.4 48.8657 82.3491C45.4356 80.2204 43.7149 76.1123 44.6235 72.1631Z" fill="#FF7A45"/>
<path fill-rule="evenodd" clip-rule="evenodd" d="M51.6177 60.3959C54.3121 63.4049 54.807 67.8338 52.8215 71.3686C50.1271 68.3597 49.6321 63.9308 51.6177 60.3959Z" fill="#FF7A45"/>
<path fill-rule="evenodd" clip-rule="evenodd" d="M59.6691 60.8662C57.5442 57.4344 57.8299 52.9904 60.3994 49.8576C62.5243 53.2894 62.2386 57.7334 59.6691 60.8662Z" fill="#FF7A45"/>
<path fill-rule="evenodd" clip-rule="evenodd" d="M52.4669 82.9874C56.0322 83.5491 59.6016 81.8233 61.373 78.6722C57.8078 78.1104 54.2383 79.8363 52.4669 82.9874Z" fill="#FF7A45"/>
<path fill-rule="evenodd" clip-rule="evenodd" d="M65.9971 70.2648C62.6364 68.7445 58.6431 69.5279 56.1074 72.2259C59.468 73.7462 63.4613 72.9627 65.9971 70.2648Z" fill="#FF7A45"/>
<path fill-rule="evenodd" clip-rule="evenodd" d="M72.7983 62.6151C69.8152 60.7248 65.8896 60.9605 63.0736 63.2193C66.0568 65.1097 69.9823 64.8739 72.7983 62.6151Z" fill="#FF7A45"/>
<path fill-rule="evenodd" clip-rule="evenodd" d="M49.6929 105.445C53.77 104.926 57.1022 101.85 57.9321 97.8092C53.8551 98.328 50.5229 101.403 49.6929 105.445Z" fill="#FF7A45"/>
<path fill-rule="evenodd" clip-rule="evenodd" d="M57.8921 87.7912C54.0971 88.2751 50.9955 91.1378 50.2223 94.8995C54.0173 94.4156 57.1188 91.5529 57.8921 87.7912Z" fill="#FF7A45"/>
<path d="M79.756 39.5864L90.6597 47.6777L87.6517 37.2854L91.1108 36.2627L95.8633 52.4302L92.5396 53.4078L81.6659 45.3466L84.6739 55.7088L81.1848 56.7315L76.4473 40.6242L79.756 39.5864Z" fill="#FF7A45"/>
<path d="M110.932 36.111L110.797 39.2694L102.525 38.9987L102.39 43.1345L109.91 43.3751L109.805 46.5636L102.21 46.3079L102.014 52.6546L98.209 52.5192L98.7655 35.6899L110.932 36.111Z" fill="#FF7A45"/>
<path d="M128.391 40.9998L127.413 44.0077L122.51 42.5038L118.375 55.4829L114.765 54.3399L118.886 41.3607L113.998 39.8568L114.976 36.8489L128.391 40.9998Z" fill="#FF7A45"/>
<path d="M55.7704 134.306C54.1175 135.027 52.2865 135.237 50.5136 134.907C48.7406 134.578 47.1071 133.724 45.8236 132.458C44.5402 131.191 43.6657 129.569 43.313 127.8C42.9602 126.032 43.1455 124.198 43.8448 122.536C44.5441 120.874 45.7254 119.459 47.2362 118.475C48.7471 117.49 50.5183 116.981 52.3214 117.013C54.1244 117.045 55.8766 117.616 57.3519 118.653C58.8271 119.69 59.9578 121.145 60.5982 122.831C61.052 123.9 61.2869 125.048 61.2889 126.209C61.2909 127.37 61.06 128.519 60.6098 129.589C60.1597 130.659 59.4994 131.628 58.6682 132.438C57.8369 133.248 56.8516 133.884 55.7704 134.306ZM50.7923 121.011C49.4922 121.496 48.4358 122.473 47.8528 123.732C47.2698 124.991 47.2074 126.429 47.6791 127.734C47.9264 128.369 48.297 128.949 48.7696 129.44C49.2421 129.93 49.8073 130.323 50.4323 130.594C51.0574 130.865 51.73 131.01 52.4113 131.02C53.0926 131.03 53.7692 130.905 54.4019 130.652C55.0435 130.428 55.634 130.079 56.1387 129.624C56.6434 129.169 57.0521 128.618 57.3408 128.003C57.6294 127.388 57.7921 126.721 57.8195 126.042C57.8468 125.363 57.7382 124.686 57.5 124.049C57.2628 123.407 56.9002 122.818 56.4335 122.316C55.9667 121.815 55.4051 121.411 54.7811 121.129C54.1571 120.846 53.4832 120.69 52.7985 120.67C52.1138 120.65 51.4318 120.766 50.7923 121.011Z" fill="#FF7A45"/>
<path d="M69.1037 145.812C66.0957 148.398 62.8472 148.052 60.0799 144.834L57.8692 142.322L54.2596 145.496L51.748 142.638L64.4113 131.524L69.1187 136.893C71.9311 140.112 71.9311 143.36 69.1037 145.812ZM66.6371 143.18C68.0509 141.946 67.9606 140.427 66.562 138.833L64.4865 136.457L60.2003 140.232L62.2757 142.593C63.6744 144.187 65.1933 144.398 66.6371 143.18Z" fill="#FF7A45"/>
<path d="M85.2122 148.579L83.633 151.316L75.8275 146.804L73.9926 149.978L81.0011 154.038L79.4972 156.76L72.4887 152.7L70.6238 155.933L78.6549 160.581L77.1509 163.303L65.8262 156.746L74.2633 142.172L85.2122 148.579Z" fill="#FF7A45"/>
<path d="M89.7545 149.781L95.9959 161.813L97.8157 151.15L101.38 151.751L98.5376 168.295L95.1236 167.708L88.8973 155.677L87.0775 166.309L83.498 165.708L86.3405 149.164L89.7545 149.781Z" fill="#FF7A45"/>
<path d="M106.98 150.999L114.214 159.827L116.5 148.668L120.606 147.66L124.576 163.948L121.267 164.76L118.56 153.736L116.515 164.174L114.109 164.76L107.461 156.459L110.168 167.498L106.829 168.31L102.799 151.962L106.98 150.999Z" fill="#FF7A45"/>
<path d="M132.17 138.938L134.02 141.479L126.711 146.788L128.861 149.796L135.434 145.029L137.284 147.57L130.711 152.338L132.907 155.346L140.427 149.887L142.277 152.443L131.749 160.129L121.838 146.503L132.17 138.938Z" fill="#FF7A45"/>
<path d="M140.488 127.749L143.075 129.674L140.067 133.81L151.031 141.917L148.76 144.924L137.751 136.878L134.743 140.999L132.096 139.074L140.488 127.749Z" fill="#FF7A45"/>
<path d="M156.398 123.056L153.781 130.411L156.413 132.757L155.104 136.442L141.674 123.899L142.997 120.199L161.285 119.071L159.917 122.906L156.398 123.056ZM153.104 123.192L146.035 123.492L151.314 128.2L153.104 123.192Z" fill="#FF7A45"/>
</g>
<path d="M80.4204 90.472C73.6684 90.472 68.4844 95.336 68.4844 101.8C68.4844 108.232 73.6684 113.192 80.4204 113.192C87.1724 113.192 92.3564 108.232 92.3564 101.8C92.3564 95.368 87.1724 90.472 80.4204 90.472ZM80.4844 94.312C84.5804 94.312 87.9724 97.576 87.9724 101.8C87.9724 106.024 84.5804 109.352 80.4844 109.352C76.3564 109.352 72.8684 106.024 72.8684 101.8C72.8684 97.576 76.3244 94.312 80.4844 94.312Z" fill="#FF7A45"/>
<path d="M93.1791 95.912L99.7711 113H104.059L110.587 95.88H106.395L102.011 108.904L97.5311 95.88L93.1791 95.912Z" fill="#FF7A45"/>
<path d="M119.533 95.752C114.413 95.752 110.829 99.272 110.829 104.488C110.829 109.64 114.317 113.16 119.629 113.16C122.637 113.16 125.133 112.072 126.829 110.216L124.589 107.88C123.373 109.128 121.741 109.8 119.981 109.8C117.485 109.8 115.629 108.328 115.085 105.896H127.725C128.141 99.688 125.549 95.752 119.533 95.752ZM114.989 103.112C115.373 100.584 117.101 98.984 119.565 98.984C122.157 98.984 123.853 100.584 123.949 103.112H114.989Z" fill="#FF7A45"/>
<path d="M135.494 99.176V95.88H131.334V113H135.494V104.744C135.494 101.64 137.702 99.528 141.318 99.752V95.72C138.662 95.752 136.646 96.936 135.494 99.176Z" fill="#FF7A45"/>
</svg>
