<svg width="204" height="204" viewBox="0 0 204 204" fill="none" xmlns="http://www.w3.org/2000/svg">
<g opacity="0.7">
<path opacity="0.4" d="M201.996 102C201.996 108.378 192.431 113.733 191.243 119.765C190.054 125.797 196.777 134.581 194.401 140.297C192.025 146.013 181.106 147.397 177.647 152.557C174.188 157.716 177.181 168.321 172.669 172.698C168.157 177.075 157.704 174.202 152.501 177.647C147.297 181.091 146.049 191.997 140.243 194.404C134.438 196.81 125.926 190.011 119.714 191.245C113.503 192.478 108.33 202 101.953 202C95.576 202 90.2219 192.433 84.1911 191.245C78.1602 190.057 69.3772 196.78 63.6621 194.404C57.9471 192.027 56.5634 181.106 51.4049 177.647C46.2463 174.187 35.6735 177.211 31.297 172.698C26.9205 168.185 29.7931 157.731 26.349 152.527C22.905 147.322 12.0013 146.073 9.59495 140.267C7.18863 134.461 13.9865 125.947 12.7532 119.735C11.52 113.522 2 108.348 2 101.97C2 95.592 11.5651 90.2371 12.7532 84.2052C13.9413 78.1733 7.2187 69.3887 9.59495 63.6727C11.9712 57.9567 22.8899 56.5728 26.349 51.4134C29.8081 46.2539 26.7851 35.6793 31.297 31.3021C35.8089 26.9248 46.2613 29.7978 51.465 26.3532C56.6687 22.9085 57.917 12.003 63.7223 9.5963C69.5275 7.18956 78.04 13.9886 84.2513 12.7552C90.4626 11.5217 95.6362 2 102.013 2C108.39 2 113.744 11.5668 119.775 12.7552C125.806 13.9435 134.589 7.21964 140.304 9.5963C146.019 11.973 147.402 22.8935 152.561 26.3532C157.719 29.8129 168.292 26.7894 172.669 31.3021C177.045 35.8147 174.173 46.269 177.617 51.4736C181.061 56.6781 191.964 57.9266 194.371 63.7329C196.777 69.5391 189.979 78.053 191.213 84.2654C192.446 90.4778 201.996 95.6222 201.996 102Z" fill="#FFA940" stroke="#FFA940" stroke-width="4" stroke-miterlimit="10"/>
<path d="M201.996 102C201.996 108.378 192.431 113.733 191.243 119.765C190.054 125.797 196.777 134.581 194.401 140.297C192.025 146.013 181.106 147.397 177.647 152.557C174.188 157.716 177.181 168.321 172.669 172.698C168.157 177.075 157.704 174.202 152.501 177.647C147.297 181.091 146.049 191.997 140.243 194.404C134.438 196.81 125.926 190.011 119.714 191.245C113.503 192.478 108.33 202 101.953 202C95.576 202 90.2219 192.433 84.1911 191.245C78.1602 190.057 69.3772 196.78 63.6621 194.404C57.9471 192.027 56.5634 181.106 51.4049 177.647C46.2463 174.187 35.6735 177.211 31.297 172.698C26.9205 168.185 29.7931 157.731 26.349 152.527C22.905 147.322 12.0013 146.073 9.59495 140.267C7.18863 134.461 13.9865 125.947 12.7532 119.735C11.52 113.522 2 108.348 2 101.97C2 95.5921 11.5651 90.2371 12.7532 84.2052C13.9413 78.1733 7.2187 69.3887 9.59495 63.6727C11.9712 57.9567 22.8899 56.5728 26.349 51.4134C29.8081 46.2539 26.7851 35.6793 31.297 31.3021C35.8089 26.9248 46.2613 29.7978 51.465 26.3532C56.6687 22.9085 57.917 12.003 63.7223 9.5963C69.5275 7.18956 78.04 13.9886 84.2513 12.7552C90.4626 11.5217 95.6362 2 102.013 2C108.39 2 113.744 11.5668 119.775 12.7552C125.806 13.9435 134.589 7.21964 140.304 9.5963C146.019 11.973 147.402 22.8935 152.561 26.3532C157.719 29.8129 168.292 26.7894 172.669 31.3021C177.045 35.8147 174.173 46.269 177.617 51.4736C181.061 56.6781 191.964 57.9266 194.371 63.7329C196.777 69.5391 189.979 78.053 191.213 84.2654C192.446 90.4778 201.996 95.6222 201.996 102Z" stroke="#FFA940" stroke-width="4" stroke-miterlimit="10"/>
<circle cx="101.998" cy="102" r="81.4782" stroke="#FFA940" stroke-width="4"/>
<path fill-rule="evenodd" clip-rule="evenodd" d="M166.518 96.3835C161.78 97.4736 158.218 101.485 157.714 106.339C162.453 105.249 166.014 101.238 166.518 96.3835Z" fill="#FFA940"/>
<path fill-rule="evenodd" clip-rule="evenodd" d="M165.14 84.4391C161.206 85.344 158.25 88.6743 157.832 92.7045C161.766 91.7997 164.722 88.4694 165.14 84.4391Z" fill="#FFA940"/>
<path fill-rule="evenodd" clip-rule="evenodd" d="M160.62 71.2042C157.19 73.3329 155.469 77.441 156.378 81.3902C159.808 79.2614 161.529 75.1533 160.62 71.2042Z" fill="#FFA940"/>
<path fill-rule="evenodd" clip-rule="evenodd" d="M153.626 59.4374C150.932 62.4464 150.437 66.8753 152.423 70.4101C155.117 67.4012 155.612 62.9723 153.626 59.4374Z" fill="#FFA940"/>
<path fill-rule="evenodd" clip-rule="evenodd" d="M145.567 59.9077C147.692 56.4759 147.406 52.0319 144.836 48.8991C142.712 52.3309 142.997 56.7749 145.567 59.9077Z" fill="#FFA940"/>
<path fill-rule="evenodd" clip-rule="evenodd" d="M152.829 82.02C149.187 82.62 145.53 80.8279 143.78 77.5629C147.422 76.963 151.078 78.755 152.829 82.02Z" fill="#FFA940"/>
<path fill-rule="evenodd" clip-rule="evenodd" d="M139.231 69.306C142.592 67.7857 146.585 68.5691 149.121 71.2671C145.76 72.7874 141.767 72.004 139.231 69.306Z" fill="#FFA940"/>
<path fill-rule="evenodd" clip-rule="evenodd" d="M132.463 61.6581C135.446 59.7665 139.372 60.0014 142.188 62.2596C139.206 64.1512 135.28 63.9163 132.463 61.6581Z" fill="#FFA940"/>
<path fill-rule="evenodd" clip-rule="evenodd" d="M155.551 104.487C151.474 103.968 148.141 100.893 147.312 96.8514C151.389 97.3702 154.721 100.446 155.551 104.487Z" fill="#FFA940"/>
<path fill-rule="evenodd" clip-rule="evenodd" d="M147.352 86.832C151.147 87.3158 154.249 90.1786 155.022 93.9403C151.227 93.4564 148.125 90.5937 147.352 86.832Z" fill="#FFA940"/>
<path fill-rule="evenodd" clip-rule="evenodd" d="M38.4863 97.3432C43.2221 98.4345 46.7814 102.444 47.2853 107.297C42.5496 106.205 38.9903 102.196 38.4863 97.3432Z" fill="#FFA940"/>
<path fill-rule="evenodd" clip-rule="evenodd" d="M39.8833 85.3982C43.8171 86.303 46.7738 89.6333 47.1917 93.6636C43.2579 92.7587 40.3012 89.4285 39.8833 85.3982Z" fill="#FFA940"/>
<path fill-rule="evenodd" clip-rule="evenodd" d="M44.4028 72.1631C47.8329 74.2919 49.5536 78.4 48.645 82.3491C45.2149 80.2204 43.4942 76.1123 44.4028 72.1631Z" fill="#FFA940"/>
<path fill-rule="evenodd" clip-rule="evenodd" d="M51.397 60.396C54.0914 63.4049 54.5863 67.8338 52.6008 71.3686C49.9064 68.3597 49.4114 63.9308 51.397 60.396Z" fill="#FFA940"/>
<path fill-rule="evenodd" clip-rule="evenodd" d="M59.4484 60.8662C57.3235 57.4344 57.6092 52.9904 60.1787 49.8576C62.3036 53.2894 62.0179 57.7334 59.4484 60.8662Z" fill="#FFA940"/>
<path fill-rule="evenodd" clip-rule="evenodd" d="M52.2462 82.9874C55.8115 83.5492 59.3809 81.8233 61.1523 78.6722C57.5871 78.1105 54.0176 79.8363 52.2462 82.9874Z" fill="#FFA940"/>
<path fill-rule="evenodd" clip-rule="evenodd" d="M65.7764 70.2648C62.4157 68.7445 58.4224 69.5279 55.8867 72.2259C59.2473 73.7462 63.2406 72.9627 65.7764 70.2648Z" fill="#FFA940"/>
<path fill-rule="evenodd" clip-rule="evenodd" d="M72.5776 62.6151C69.5945 60.7248 65.6689 60.9606 62.8529 63.2194C65.8361 65.1097 69.7616 64.8739 72.5776 62.6151Z" fill="#FFA940"/>
<path fill-rule="evenodd" clip-rule="evenodd" d="M49.4722 105.445C53.5493 104.926 56.8815 101.851 57.7114 97.8092C53.6344 98.328 50.3022 101.403 49.4722 105.445Z" fill="#FFA940"/>
<path fill-rule="evenodd" clip-rule="evenodd" d="M57.6714 87.7912C53.8764 88.2751 50.7748 91.1378 50.0016 94.8995C53.7966 94.4157 56.8981 91.5529 57.6714 87.7912Z" fill="#FFA940"/>
<path d="M79.5353 39.5865L90.439 47.6777L87.431 37.2854L90.8901 36.2627L95.6426 52.4302L92.3189 53.4078L81.4452 45.3466L84.4532 55.7089L80.9641 56.7315L76.2266 40.6242L79.5353 39.5865Z" fill="#FFA940"/>
<path d="M110.712 36.111L110.576 39.2694L102.305 38.9987L102.169 43.1345L109.689 43.3751L109.584 46.5636L101.989 46.3079L101.793 52.6546L97.9883 52.5192L98.5448 35.6899L110.712 36.111Z" fill="#FFA940"/>
<path d="M128.17 40.9998L127.193 44.0077L122.29 42.5038L118.154 55.4829L114.544 54.3399L118.665 41.3607L113.777 39.8568L114.755 36.8489L128.17 40.9998Z" fill="#FFA940"/>
<path d="M55.5497 134.306C53.8968 135.027 52.0658 135.237 50.2929 134.907C48.5199 134.578 46.8864 133.724 45.6029 132.458C44.3195 131.191 43.445 129.569 43.0923 127.8C42.7395 126.032 42.9248 124.198 43.6241 122.536C44.3234 120.874 45.5047 119.459 47.0155 118.475C48.5264 117.49 50.2976 116.981 52.1007 117.013C53.9037 117.045 55.6559 117.616 57.1312 118.653C58.6064 119.69 59.7371 121.145 60.3775 122.831C60.8313 123.9 61.0662 125.048 61.0682 126.209C61.0702 127.37 60.8393 128.519 60.3891 129.589C59.939 130.659 59.2787 131.628 58.4475 132.438C57.6162 133.248 56.6309 133.884 55.5497 134.306ZM50.5716 121.011C49.2715 121.496 48.2151 122.473 47.6321 123.732C47.0491 124.991 46.9867 126.429 47.4584 127.734C47.7057 128.369 48.0763 128.949 48.5489 129.44C49.0214 129.93 49.5866 130.323 50.2116 130.594C50.8367 130.865 51.5093 131.01 52.1906 131.02C52.8719 131.03 53.5485 130.905 54.1812 130.652C54.8228 130.428 55.4133 130.079 55.918 129.624C56.4227 129.169 56.8314 128.618 57.12 128.003C57.4087 127.388 57.5714 126.721 57.5988 126.042C57.6261 125.363 57.5175 124.686 57.2793 124.049C57.0421 123.407 56.6795 122.818 56.2128 122.316C55.746 121.815 55.1844 121.411 54.5604 121.129C53.9364 120.846 53.2625 120.69 52.5778 120.67C51.8931 120.65 51.2111 120.766 50.5716 121.011Z" fill="#FFA940"/>
<path d="M68.8829 145.812C65.875 148.398 62.6265 148.052 59.8592 144.834L57.6485 142.322L54.0389 145.496L51.5273 142.638L64.1906 131.524L68.898 136.893C71.7104 140.112 71.7104 143.36 68.8829 145.812ZM66.4164 143.18C67.8302 141.946 67.7399 140.427 66.3413 138.833L64.2658 136.457L59.9796 140.232L62.055 142.593C63.4537 144.187 64.9726 144.398 66.4164 143.18Z" fill="#FFA940"/>
<path d="M84.9915 148.579L83.4123 151.316L75.6068 146.804L73.7719 149.978L80.7804 154.038L79.2765 156.76L72.268 152.7L70.4031 155.933L78.4342 160.581L76.9302 163.303L65.6055 156.746L74.0426 142.172L84.9915 148.579Z" fill="#FFA940"/>
<path d="M89.5338 149.781L95.7752 161.813L97.595 151.15L101.159 151.751L98.3169 168.295L94.9029 167.708L88.6766 155.677L86.8568 166.309L83.2773 165.708L86.1198 149.164L89.5338 149.781Z" fill="#FFA940"/>
<path d="M106.759 150.999L113.993 159.827L116.279 148.668L120.385 147.66L124.355 163.948L121.047 164.76L118.34 153.736L116.294 164.174L113.888 164.76L107.24 156.459L109.947 167.498L106.609 168.31L102.578 151.962L106.759 150.999Z" fill="#FFA940"/>
<path d="M131.949 138.938L133.799 141.479L126.49 146.788L128.641 149.796L135.213 145.029L137.063 147.57L130.491 152.338L132.686 155.346L140.206 149.887L142.056 152.443L131.528 160.129L121.617 146.503L131.949 138.938Z" fill="#FFA940"/>
<path d="M140.267 127.749L142.854 129.674L139.846 133.81L150.81 141.917L148.539 144.924L137.53 136.878L134.522 140.999L131.875 139.074L140.267 127.749Z" fill="#FFA940"/>
<path d="M156.177 123.056L153.56 130.411L156.192 132.757L154.883 136.442L141.453 123.899L142.777 120.199L161.065 119.071L159.696 122.906L156.177 123.056ZM152.883 123.192L145.815 123.492L151.094 128.2L152.883 123.192Z" fill="#FFA940"/>
</g>
<path d="M90.1762 103.088V101.808H97.9522V99.1839H90.1762V97.9359H97.9522V95.2479H90.1762V93.9039H99.0402V90.9919H90.0802L89.6962 88.4319L85.6322 88.5919L86.1122 90.9919H81.0242C81.3762 90.4159 81.6962 89.8399 81.9842 89.2639L78.5282 88.0799C76.7682 91.4079 74.2722 94.3519 71.2002 97.4559L74.0162 100.176C74.5602 99.6319 75.0402 99.0879 75.5202 98.5759V106.064H99.4242V103.088H90.1762ZM86.2722 95.2479H79.2962V93.8719H86.2722V95.2479ZM86.2722 99.1839H79.2962V97.9359H86.2722V99.1839ZM79.2962 101.808H86.2722V103.088H79.2962V101.808ZM75.5202 116.528H97.7602V107.632H75.5202V116.528ZM79.6162 110.832H93.7282V113.264H79.6162V110.832Z" fill="#FFA940"/>
<path d="M109.708 93.3279H105.196V95.5999H117.612V93.3279H113.292V92.3679H118.412V89.7439H113.292V88.2719L109.708 88.1119V89.7439H104.044V92.3679H109.708V93.3279ZM116.716 102.16L117.58 104.336C119.948 103.76 121.996 103.12 123.692 102.384C125.356 103.12 127.436 103.696 130.476 104.496L131.532 101.712C129.612 101.36 128.14 101.136 126.892 100.784C128.268 99.9199 129.388 99.0559 130.316 98.0639V95.4719H119.98C121.676 94.3199 122.508 93.1359 122.508 91.9519V91.6959H125.484V92.6559C125.484 94.0959 126.028 94.7999 127.788 94.7999H130.54L131.116 92.0479H129.228C128.588 92.0479 128.492 91.8879 128.492 91.1519V88.8159H119.468V90.4479C119.468 91.9519 118.924 92.4959 117.804 93.2319L119.724 95.4719H118.444V97.9999H119.98L118.892 98.8319C119.532 99.5679 120.14 100.144 120.748 100.656C119.82 100.912 118.86 101.168 117.74 101.392V96.4639H105.068V99.0879C105.068 101.52 104.94 102.8 102.988 105.104L105.676 106.768C107.212 104.88 107.788 103.696 108.012 102.16H116.716ZM126.604 97.9999C125.932 98.5759 125.068 99.0879 123.948 99.5359C123.276 99.1199 122.668 98.6399 122.06 97.9999H126.604ZM109.964 98.5759V99.7919H108.108V98.5759H109.964ZM114.668 99.7919H112.876V98.5759H114.668V99.7919ZM119.372 107.344H127.788V104.464H112.812L113.196 103.664L110.124 102.544C109.388 104.176 108.396 105.744 106.956 107.312L108.78 108.72H103.788V111.728H115.692V113.776H110.38V112.4L106.668 112.24V116.88H128.364V112.4L124.748 112.24V113.776H119.372V111.728H131.276V108.72H119.372V107.344ZM109.9 108.72C110.284 108.304 110.636 107.824 111.02 107.344H115.692V108.72H109.9Z" fill="#FFA940"/>
</svg>
