<svg width="24" height="24" viewBox="0 0 24 24" fill="none" xmlns="http://www.w3.org/2000/svg">
<path d="M11.9817 2.70476L8.11719 5.02857L5.82782 3.67619L11.9633 0L18.0989 3.67619L15.8461 5.02857L11.9817 2.70476Z" fill="#F0B90B"/>
<path d="M15.8644 6.97144L18.1172 8.32382V11.0286L14.2527 13.3524V18L12 19.3524L9.74721 18V13.3524L5.88278 11.0286V8.32382L8.13553 6.97144L12 9.29525L15.8644 6.97144Z" fill="#F0B90B"/>
<path d="M18.1172 12.9714V15.6762L15.8644 17.0286V14.3238L18.1172 12.9714Z" fill="#F0B90B"/>
<path d="M15.8644 18.9715L19.7289 16.6476H19.7472V12L22 10.6476V18L15.8644 21.6762V18.9715Z" fill="#F0B90B"/>
<path d="M19.7289 7.35241L17.4762 6.00003L19.7289 4.64764L21.9817 6.00003V8.70479L19.7289 10.0572V7.35241Z" fill="#F0B90B"/>
<path d="M9.72893 22.6476V19.9429L11.9817 21.2953L14.2344 19.9429V22.6476L11.9817 24L9.72893 22.6476Z" fill="#F0B90B"/>
<path d="M8.11718 17.0286L5.86444 15.6762V12.9714L8.11718 14.3238V17.0286Z" fill="#F0B90B"/>
<path d="M11.9817 7.35241L9.72893 6.00003L11.9817 4.64764L14.2344 6.00003L11.9817 7.35241Z" fill="#F0B90B"/>
<path d="M6.50547 6.00003L4.25271 7.35241V10.0572L2 8.70479V6.00003L4.25271 4.64764L6.50547 6.00003Z" fill="#F0B90B"/>
<path d="M2 10.6476L4.25271 12H4.27104V16.6476L8.13552 18.9715V21.6762L2 18V10.6476Z" fill="#F0B90B"/>
</svg>
