<svg width="57" height="56" viewBox="0 0 57 56" fill="none" xmlns="http://www.w3.org/2000/svg">
<path d="M9.72161 25.8946C9.72161 24.2946 7.99282 24.2517 7.99282 24.2517H4.49622L2.74011 30.8859H6.90794C8.23868 30.8859 9.16356 30.1776 9.16356 29.0068C9.16356 27.8361 8.25038 27.6976 8.25038 27.6976C8.67489 27.6316 9.05999 27.411 9.3316 27.0781C9.6032 26.7453 9.74212 26.3237 9.72161 25.8946ZM6.52355 29.4205H4.96256L5.27671 28.1971H6.31867C6.31867 28.1971 7.14404 28.0566 7.16745 28.7239C7.17164 28.8121 7.15823 28.9002 7.12801 28.9832C7.09779 29.0661 7.05136 29.1423 6.99143 29.2071C6.9315 29.2719 6.85927 29.3242 6.77894 29.3608C6.69861 29.3975 6.61179 29.4177 6.52355 29.4205ZM7.14404 27.0068H5.58305L5.8972 25.7776H6.93916C6.93916 25.7776 7.76648 25.6371 7.78794 26.3024C7.79348 26.3913 7.78106 26.4804 7.75143 26.5644C7.72179 26.6484 7.67556 26.7255 7.61547 26.7913C7.55538 26.857 7.48267 26.91 7.40168 26.947C7.32068 26.984 7.23306 27.0044 7.14404 27.0068Z" fill="#EFB90C"/>
<path d="M13.5987 27.5649L14.4689 26.4546C14.4689 26.4546 13.8621 25.6273 12.4065 25.6273C10.9508 25.6273 9.97913 26.4761 9.97913 27.4302C9.97913 28.3844 11.0855 28.9463 11.5148 29.1181C11.944 29.2898 12.0845 29.3132 12.1001 29.5356C12.1157 29.7581 11.6865 29.7385 11.5577 29.7385C11.0149 29.6706 10.4998 29.4598 10.065 29.1278C9.53816 29.6312 9.10889 30.1268 9.10889 30.1268C9.10889 30.1268 9.61426 31.1044 11.7411 31.1044C13.8679 31.1044 14.0396 29.4927 14.0396 29.2254C14.0396 28.9581 14.0494 28.2927 12.8572 27.8829C12.5743 27.7854 12.1957 27.6624 12.0065 27.4107C11.7918 27.1278 12.0787 26.9268 12.3538 26.9698C12.6437 27.0144 12.9224 27.1137 13.1752 27.2624C13.3225 27.3543 13.464 27.4554 13.5987 27.5649Z" fill="#F1BA0B"/>
<path d="M18.4963 27.8283C18.4963 27.8283 18.3499 27.1629 17.509 27.1727C16.668 27.1824 16.3987 27.881 16.3987 28.359C16.3987 28.8371 16.506 29.4927 17.1519 29.5298C17.343 29.5362 17.5329 29.4978 17.7064 29.4175C17.88 29.3371 18.0322 29.2172 18.1509 29.0673L19.1304 30.0839C19.1304 30.0839 18.4651 31.1044 16.9177 31.1044C15.3704 31.1044 14.4904 30.0039 14.4689 28.8039C14.4475 27.6039 15.228 25.6273 17.6475 25.6273C18.6368 25.6273 19.5987 26.3883 19.8934 26.9932C19.4309 27.2702 18.4963 27.8283 18.4963 27.8283Z" fill="#F1BA0B"/>
<path d="M48.5276 27.8283C48.5276 27.8283 48.3871 27.1629 47.5402 27.1727C46.6934 27.1824 46.4222 27.881 46.4222 28.359C46.4222 28.8371 46.5295 29.4927 47.1734 29.5298C47.3645 29.5366 47.5546 29.4982 47.7282 29.4179C47.9017 29.3376 48.0539 29.2174 48.1724 29.0673L49.1617 30.0878C49.1617 30.0878 48.4944 31.1044 46.949 31.1044C45.4036 31.1044 44.5217 30.0039 44.4963 28.8039C44.471 27.6039 45.2592 25.6273 47.6749 25.6273C48.6641 25.6273 49.6261 26.3883 49.9207 26.9932C49.4622 27.2702 48.5276 27.8283 48.5276 27.8283Z" fill="#F1BA0B"/>
<path d="M23.1363 24.2635C21.7236 24.2635 21.3645 24.2635 21.2884 24.2635L19.5206 30.8898H21.4426L21.8621 29.1181C23.0563 29.1181 24.3343 29.1805 25.3138 28.3747C25.5841 28.1439 25.7993 27.8555 25.9434 27.5307C26.0876 27.2059 26.1572 26.8529 26.147 26.4976C26.1431 24.9074 25.3275 24.2518 23.1363 24.2635ZM23.3314 27.5805H22.1275L22.6738 25.8244H23.0836C23.0836 25.8244 24.3987 25.723 24.3987 26.6166C24.3987 27.5103 23.3294 27.5766 23.3294 27.5766L23.3314 27.5805Z" fill="#F1BA0B"/>
<path d="M30.4475 25.6136C29.7067 25.7215 29.0261 26.0828 28.5217 26.6361V26.4215L28.8612 25.8361H26.9783L25.5812 30.9093H27.5207L28.3012 28.5463C28.4721 28.2399 28.7262 27.988 29.0342 27.8198C29.3422 27.6517 29.6915 27.5741 30.0417 27.5961L30.4475 25.6136Z" fill="#F1BA0B"/>
<path d="M33.3626 25.6136C30.4182 25.6136 30.2797 28.1834 30.2797 28.1834C30.0963 29.5688 30.7402 31.0927 32.6524 31.0927C34.5646 31.0927 35.7041 29.879 35.7041 28.0644C35.7041 26.2497 34.3714 25.6136 33.3626 25.6136ZM33.948 28.2517C33.948 28.2517 33.9597 29.5258 32.7499 29.5434C31.5402 29.561 31.9441 28.1776 31.9441 28.1776C31.9441 28.1776 32.1275 27.1902 33.0933 27.1902C34.0592 27.1902 33.9597 28.2517 33.9597 28.2517H33.948Z" fill="#F1BA0B"/>
<path d="M37.068 25.8361L35.8973 30.519C35.8973 30.519 35.8427 31.1044 34.7266 31.12V32.4858H35.7997C35.7997 32.4858 37.2827 32.3356 37.6358 30.8956C37.989 29.4556 38.9568 25.8361 38.9568 25.8361H37.068Z" fill="#F1BA0B"/>
<path d="M37.5617 24.08L37.1968 25.4341H39.0641L39.4192 24.08H37.5617Z" fill="#F1BA0B"/>
<path d="M44.0594 28.7511C44.2373 28.4113 44.3209 28.0299 44.3014 27.6468C44.2908 27.3695 44.2255 27.0971 44.1092 26.8453C43.9928 26.5934 43.8278 26.3671 43.6235 26.1793C43.4193 25.9916 43.1799 25.8461 42.9191 25.7514C42.6584 25.6566 42.3814 25.6144 42.1043 25.6272C41.6955 25.6232 41.2901 25.7015 40.9123 25.8576C40.5345 26.0137 40.1921 26.2443 39.9054 26.5358C39.6187 26.8272 39.3937 27.1733 39.2439 27.5537C39.094 27.934 39.0223 28.3406 39.033 28.7492C39.0545 30.6302 40.3755 31.0907 41.5033 31.0907C42.6311 31.0907 43.6087 30.2224 43.6087 30.2224L42.555 29.2116C42.4361 29.3232 42.2962 29.4099 42.1435 29.4669C41.9907 29.5238 41.8281 29.5498 41.6652 29.5433C40.9882 29.5316 40.7091 29.1375 40.8048 28.7629L44.0594 28.7511ZM41.9872 26.9794C42.9862 26.9794 42.7287 27.9551 42.7287 27.9551H40.7891C40.7891 27.9551 40.9843 26.9794 41.9872 26.9794Z" fill="#F1BA0B"/>
<path d="M50.5298 25.8361L50.1395 27.3834H50.6547C50.6547 27.3834 50.1395 29.1707 50.1395 29.8887C50.1395 30.6068 50.7425 31.0985 51.6283 31.0985H52.5161L53.1464 29.3424H52.1708C52.1708 29.3424 52.0342 29.358 52.0108 29.2975C51.9581 29.1687 52.04 28.9619 52.1551 28.5541C52.4069 27.6487 52.4693 27.3697 52.4693 27.3697H53.7903L54.2156 25.8361L52.9903 25.8204L53.3454 24.4546H51.5893L51.16 25.8322L50.5298 25.8361Z" fill="#F1BA0B"/>
</svg>
