<svg width="92" height="16" viewBox="0 0 92 16" fill="none" xmlns="http://www.w3.org/2000/svg">
<path d="M12.4675 3.24044C12.4675 0.383296 9.38033 0.306641 9.38033 0.306641H3.13639L0.000488281 12.1533H7.44303C9.81935 12.1533 11.4709 10.8885 11.4709 8.79793C11.4709 6.70734 9.84026 6.45995 9.84026 6.45995C10.5983 6.34214 11.286 5.94815 11.771 5.35379C12.256 4.75943 12.5041 4.0067 12.4675 3.24044ZM6.75662 9.53661H3.96915L4.53013 7.35194H6.39076C6.39076 7.35194 7.86464 7.10107 7.90645 8.2927C7.91393 8.45018 7.88998 8.60758 7.83602 8.75571C7.78205 8.90385 7.69915 9.03976 7.59213 9.15554C7.48511 9.27131 7.35612 9.36463 7.21268 9.43005C7.06923 9.49548 6.9142 9.5317 6.75662 9.53661ZM7.86464 5.2265H5.07717L5.63815 3.03138H7.49878C7.49878 3.03138 8.97614 2.78051 9.01447 3.96866C9.02435 4.12739 9.00218 4.28648 8.94926 4.43645C8.89635 4.58642 8.81378 4.7242 8.70648 4.84158C8.59918 4.95896 8.46934 5.05354 8.32471 5.11967C8.18008 5.1858 8.02361 5.22213 7.86464 5.2265Z" fill="#EFB90C"/>
<path d="M19.391 6.22311L20.945 4.24054C20.945 4.24054 19.8614 2.76318 17.2621 2.76318C14.6628 2.76318 12.9275 4.27886 12.9275 5.9827C12.9275 7.68653 14.9032 8.69001 15.6697 8.99663C16.4363 9.30325 16.6872 9.34506 16.715 9.74228C16.7429 10.1395 15.9763 10.1046 15.7464 10.1046C14.7771 9.98326 13.8573 9.60694 13.0809 9.01405C12.1401 9.91301 11.3735 10.798 11.3735 10.798C11.3735 10.798 12.276 12.5437 16.0739 12.5437C19.8718 12.5437 20.1785 9.66562 20.1785 9.18827C20.1785 8.71092 20.1959 7.52276 18.0669 6.79106C17.5617 6.61684 16.8858 6.39733 16.5478 5.94785C16.1645 5.44263 16.6767 5.08374 17.168 5.1604C17.6857 5.24008 18.1835 5.41744 18.6349 5.68304C18.8979 5.84717 19.1504 6.02754 19.391 6.22311Z" fill="#F1BA0B"/>
<path d="M28.1368 6.6935C28.1368 6.6935 27.8755 5.50534 26.3737 5.52277C24.872 5.54019 24.3911 6.78757 24.3911 7.64123C24.3911 8.49489 24.5828 9.66562 25.7361 9.73182C26.0773 9.74341 26.4165 9.67473 26.7264 9.5313C27.0362 9.38788 27.3081 9.17371 27.52 8.90604L29.2692 10.7214C29.2692 10.7214 28.081 12.5437 25.3179 12.5437C22.5549 12.5437 20.9834 10.5785 20.9451 8.43566C20.9068 6.2928 22.3005 2.76318 26.6211 2.76318C28.3876 2.76318 30.1054 4.12207 30.6316 5.20221C29.8058 5.69698 28.1368 6.6935 28.1368 6.6935Z" fill="#F1BA0B"/>
<path d="M81.7642 6.6935C81.7642 6.6935 81.5133 5.50534 80.0011 5.52277C78.4889 5.54019 78.0045 6.78757 78.0045 7.64123C78.0045 8.49489 78.1962 9.66562 79.346 9.73182C79.6873 9.74397 80.0267 9.67554 80.3367 9.53207C80.6466 9.3886 80.9184 9.17413 81.13 8.90604L82.8966 10.7283C82.8966 10.7283 81.7049 12.5437 78.9453 12.5437C76.1857 12.5437 74.6108 10.5785 74.5655 8.43566C74.5202 6.2928 75.9279 2.76318 80.2415 2.76318C82.0081 2.76318 83.7258 4.12207 84.252 5.20221C83.4331 5.69698 81.7642 6.6935 81.7642 6.6935Z" fill="#F1BA0B"/>
<path d="M36.4223 0.327423C33.8996 0.327423 33.2585 0.327423 33.1226 0.327423L29.9658 12.1602H33.3979L34.147 8.99641C36.2794 8.99641 38.5617 9.10791 40.3108 7.66889C40.7935 7.25682 41.1777 6.74183 41.4351 6.16178C41.6926 5.58172 41.8168 4.95134 41.7986 4.31697C41.7917 1.47725 40.3352 0.306517 36.4223 0.327423ZM36.7707 6.25077H34.6209L35.5965 3.11488H36.3282C36.3282 3.11488 38.6767 2.93369 38.6767 4.52951C38.6767 6.12533 36.7672 6.2438 36.7672 6.2438L36.7707 6.25077Z" fill="#F1BA0B"/>
<path d="M49.478 2.73877C48.155 2.93136 46.9397 3.57658 46.039 4.56455V4.18128L46.6453 3.13598H43.2829L40.7881 12.1952H44.2515L45.6453 7.9757C45.9504 7.42843 46.4042 6.97867 46.9542 6.67841C47.5042 6.37814 48.1279 6.23961 48.7533 6.27884L49.478 2.73877Z" fill="#F1BA0B"/>
<path d="M54.6837 2.73877C49.4258 2.73877 49.1784 7.32762 49.1784 7.32762C48.8509 9.80149 50.0007 12.5227 53.4154 12.5227C56.83 12.5227 58.8649 10.3555 58.8649 7.11508C58.8649 3.87466 56.4851 2.73877 54.6837 2.73877ZM55.729 7.44957C55.729 7.44957 55.7499 9.72483 53.5896 9.75619C51.4293 9.78755 52.1506 7.31717 52.1506 7.31717C52.1506 7.31717 52.4781 5.5541 54.2028 5.5541C55.9276 5.5541 55.7499 7.44957 55.7499 7.44957H55.729Z" fill="#F1BA0B"/>
<path d="M61.3003 3.13574L59.2097 11.4981C59.2097 11.4981 59.1122 12.5434 57.1191 12.5713V15.0103H59.0355C59.0355 15.0103 61.6836 14.742 62.3143 12.1706C62.945 9.59916 64.6732 3.13574 64.6732 3.13574H61.3003Z" fill="#F1BA0B"/>
<path d="M62.1823 0L61.5308 2.41812H64.8653L65.4994 0H62.1823Z" fill="#F1BA0B"/>
<path d="M73.7852 8.3412C74.1028 7.73425 74.252 7.05325 74.2172 6.36907C74.1984 5.87401 74.0818 5.38757 73.874 4.93781C73.6663 4.48805 73.3716 4.08388 73.0068 3.74861C72.6421 3.41335 72.2145 3.15362 71.7489 2.98443C71.2833 2.81523 70.7887 2.7399 70.2939 2.7628C69.5639 2.75552 68.84 2.89543 68.1654 3.17417C67.4908 3.45292 66.8792 3.86477 66.3673 4.38513C65.8554 4.9055 65.4536 5.5237 65.186 6.20281C64.9183 6.88192 64.7903 7.60801 64.8095 8.33771C64.8478 11.6966 67.2067 12.5189 69.2207 12.5189C71.2346 12.5189 72.9803 10.9684 72.9803 10.9684L71.0987 9.1635C70.8864 9.36265 70.6366 9.51758 70.3638 9.61927C70.091 9.72097 69.8008 9.76739 69.5099 9.75583C68.3008 9.73492 67.8026 9.03109 67.9733 8.3621L73.7852 8.3412ZM70.0848 5.17743C71.8688 5.17743 71.4088 6.91959 71.4088 6.91959H67.9454C67.9454 6.91959 68.2938 5.17743 70.0848 5.17743Z" fill="#F1BA0B"/>
<path d="M85.3394 3.13584L84.6426 5.89891H85.5624C85.5624 5.89891 84.6426 9.09055 84.6426 10.3728C84.6426 11.655 85.7192 12.5331 87.3011 12.5331H88.8865L90.0119 9.39717H88.2698C88.2698 9.39717 88.0259 9.42504 87.9841 9.31703C87.89 9.08706 88.0363 8.71773 88.2419 7.9895C88.6914 6.37278 88.8029 5.87452 88.8029 5.87452H91.1618L91.9214 3.13584L89.7332 3.10797L90.3673 0.668945H87.2314L86.4649 3.12888L85.3394 3.13584Z" fill="#F1BA0B"/>
</svg>
