<svg width="20" height="20" viewBox="0 0 20 20" fill="none" xmlns="http://www.w3.org/2000/svg">
<mask id="mask0_274_20086" style="mask-type:alpha" maskUnits="userSpaceOnUse" x="1" y="1" width="18" height="18">
<rect x="1" y="1" width="18" height="18" fill="white"/>
</mask>
<g mask="url(#mask0_274_20086)">
<path fill-rule="evenodd" clip-rule="evenodd" d="M15.9232 1.68576C16.3183 2.07166 16.3258 2.70478 15.9399 3.09988L14.9344 4.12934H15.6405C17.7241 4.12934 19.1732 6.20114 18.4585 8.15833L17.5682 10.5967C17.136 11.7803 16.0102 12.5677 14.7502 12.5677H6.69267L4.12215 15.1995C3.73626 15.5946 3.10314 15.602 2.70804 15.2162C2.31294 14.8303 2.30548 14.1971 2.69137 13.802L14.5091 1.70243C14.895 1.30733 15.5281 1.29987 15.9232 1.68576ZM8.64608 10.5677H14.7502C15.1702 10.5677 15.5455 10.3052 15.6895 9.91066L16.5799 7.47234C16.8181 6.81994 16.3351 6.12934 15.6405 6.12934H12.981L8.64608 10.5677ZM1.04618 2.29744C1.2121 1.77067 1.77363 1.47813 2.3004 1.64404L3.33028 1.96841C4.34335 2.28749 5.10269 3.11412 5.3462 4.12934H8.60652C9.1588 4.12934 9.60652 4.57705 9.60652 5.12934C9.60652 5.68162 9.1588 6.12934 8.60652 6.12934H5.59075L5.86785 8.63905C5.92845 9.188 5.53258 9.68214 4.98363 9.74275C4.43468 9.80336 3.94053 9.40748 3.87993 8.85853L3.42301 4.7201C3.37952 4.32617 3.10748 3.99509 2.72946 3.87603L1.69958 3.55166C1.17281 3.38575 0.880271 2.82421 1.04618 2.29744Z" fill="white"/>
<circle cx="6.36422" cy="16.0715" r="1.54696" fill="white"/>
<circle cx="14.3347" cy="16.0715" r="1.54696" fill="white"/>
</g>
</svg>
