<svg width="20" height="20" viewBox="0 0 20 20" fill="none" xmlns="http://www.w3.org/2000/svg">
<mask id="mask0_27_1652" style="mask-type:alpha" maskUnits="userSpaceOnUse" x="1" y="1" width="18" height="18">
<rect x="1" y="1" width="18" height="18" fill="white"/>
</mask>
<g mask="url(#mask0_27_1652)">
<path fill-rule="evenodd" clip-rule="evenodd" d="M1.04618 2.29745C1.2121 1.77068 1.77363 1.47814 2.3004 1.64405L3.32503 1.96677C4.33891 2.2861 5.09833 3.11365 5.34135 4.12935H15.6405C17.7241 4.12935 19.1732 6.20115 18.4585 8.15834L17.5682 10.5967C17.136 11.7803 16.0102 12.5677 14.7502 12.5677H6.95121C5.41734 12.5677 4.13052 11.4106 3.96808 9.8854L3.41818 4.72229C3.37605 4.3268 3.10357 3.99387 2.72421 3.87439L1.69958 3.55167C1.17281 3.38576 0.880271 2.82423 1.04618 2.29745ZM5.57935 6.12935L5.95683 9.67358C6.01098 10.182 6.43992 10.5677 6.95121 10.5677H14.7502C15.1702 10.5677 15.5455 10.3052 15.6895 9.91067L16.5799 7.47235C16.8181 6.81995 16.3351 6.12935 15.6405 6.12935H5.57935Z" fill="white"/>
<circle cx="6.36422" cy="16.0715" r="1.54696" fill="white"/>
<circle cx="14.3347" cy="16.0716" r="1.54696" fill="white"/>
</g>
</svg>
