<svg width="57" height="56" viewBox="0 0 57 56" fill="none" xmlns="http://www.w3.org/2000/svg">
<rect x="10.0206" y="9.52002" width="36.9599" height="36.9599" rx="4.16" fill="url(#paint0_linear_8927_159170)"/>
<path fill-rule="evenodd" clip-rule="evenodd" d="M22.4851 18.76C19.3108 18.7629 16.7393 21.3472 16.7403 24.5335C16.7413 27.7197 19.3143 30.3024 22.4886 30.3034C25.6629 30.3044 28.2374 27.7232 28.2403 24.537C28.2386 21.3472 25.6629 18.7618 22.4851 18.76ZM28.7601 31.463C28.763 28.2754 31.3398 25.6937 34.5154 25.6966C37.6894 25.7035 40.259 28.2876 40.2602 31.4735C40.2573 34.6612 37.6806 37.2429 34.5049 37.24C31.3293 37.2371 28.7572 34.6506 28.7601 31.463ZM31.3846 32.7642C31.908 34.0367 33.1437 34.8672 34.5151 34.8682C36.3854 34.8703 37.9036 33.351 37.9074 31.4737C37.9106 30.0971 37.087 28.8542 35.821 28.3249C34.5549 27.7957 33.0959 28.0843 32.1246 29.0562C31.1534 30.0281 30.8613 31.4918 31.3846 32.7642ZM35.7028 31.4947C35.7064 32.0023 35.3876 32.4559 34.9099 32.6227V33.4871H34.1222V32.6227C33.6419 32.4595 33.3215 32.0037 33.3293 31.4947C33.3293 30.8368 33.8606 30.3035 34.5161 30.3035C35.1715 30.3035 35.7028 30.8368 35.7028 31.4947ZM22.4853 37.24C25.2027 37.24 27.4056 35.0288 27.4056 32.3011H25.0479C25.0479 33.7202 23.9017 34.8707 22.4879 34.8707C21.0741 34.8707 19.928 33.7202 19.928 32.3011H17.5649C17.5649 35.0288 19.7679 37.24 22.4853 37.24ZM19.3475 25.8394C19.8736 27.113 21.1125 27.9429 22.4861 27.9418C24.3568 27.9352 25.8717 26.4146 25.8783 24.5368C25.8794 23.158 25.0526 21.9145 23.7838 21.3864C22.515 20.8583 21.0542 21.1496 20.0829 22.1246C19.1116 23.0995 18.8213 24.5658 19.3475 25.8394ZM23.6776 24.6739C23.6818 25.282 23.2298 25.7961 22.6281 25.8676C22.0264 25.9391 21.4673 25.5452 21.3299 24.9529C21.1924 24.3605 21.5206 23.7592 22.0918 23.5564V22.6973H22.8847V23.5564C23.3598 23.7205 23.6785 24.1696 23.6776 24.6739ZM38.8322 26.0603C39.2301 25.3374 39.4379 24.5247 39.4361 23.6989C39.4361 20.9712 37.2332 18.76 34.5158 18.76C31.7983 18.76 29.5954 20.9712 29.5954 23.6989C29.5936 24.5247 29.8014 25.3374 30.1993 26.0603C30.8139 25.5588 31.5128 25.1715 32.263 24.9165C32.0588 24.5437 31.9539 24.1243 31.9584 23.6989C31.957 22.6275 32.6182 21.6677 33.6174 21.2909C34.6166 20.914 35.7439 21.1994 36.4456 22.0068C37.1473 22.8141 37.276 23.9739 36.7685 24.9165C37.5187 25.1715 38.2176 25.5588 38.8322 26.0603Z" fill="#252525"/>
<defs>
<linearGradient id="paint0_linear_8927_159170" x1="28.7562" y1="-4.93559" x2="-3.92409" y2="27.7441" gradientUnits="userSpaceOnUse">
<stop stop-color="#F1D961"/>
<stop offset="1" stop-color="#CDA146"/>
</linearGradient>
</defs>
</svg>
