<svg width="48" height="48" viewBox="0 0 48 48" fill="none" xmlns="http://www.w3.org/2000/svg">
<rect x="0.19043" y="0.19043" width="47.619" height="47.619" rx="13" fill="url(#paint0_linear_36_861)"/>
<path fill-rule="evenodd" clip-rule="evenodd" d="M16.2499 12.0952C12.1602 12.099 8.84714 15.4286 8.84839 19.5337C8.84964 23.6389 12.1647 26.9664 16.2544 26.9677C20.3442 26.9689 23.6613 23.6434 23.665 19.5382C23.6628 15.4285 20.3442 12.0975 16.2499 12.0952ZM24.3348 28.4617C24.3385 24.3548 27.6584 21.0285 31.7499 21.0323C35.8392 21.0413 39.1499 24.3705 39.1514 28.4753C39.1477 32.5822 35.8278 35.9085 31.7363 35.9047C27.6449 35.901 24.3311 32.5686 24.3348 28.4617ZM27.7166 30.1381C28.3909 31.7776 29.9829 32.8476 31.7499 32.849C34.1595 32.8516 36.1156 30.8942 36.1205 28.4755C36.1246 26.7019 35.0635 25.1005 33.4324 24.4186C31.8012 23.7367 29.9214 24.1086 28.67 25.3608C27.4186 26.613 27.0423 28.4987 27.7166 30.1381ZM33.2789 28.5025C33.2835 29.1565 32.8727 29.7409 32.2573 29.9558V31.0695H31.2425V29.9558C30.6236 29.7455 30.2108 29.1582 30.2209 28.5025C30.2209 27.6548 30.9054 26.9677 31.7499 26.9677C32.5943 26.9677 33.2789 27.6548 33.2789 28.5025ZM16.2499 35.9047C19.7511 35.9047 22.5893 33.0558 22.5893 29.5415H19.5515C19.5515 31.3699 18.0749 32.8521 16.2533 32.8521C14.4318 32.8521 12.9551 31.3699 12.9551 29.5415H9.91058C9.91058 33.0558 12.7488 35.9047 16.2499 35.9047ZM12.2063 21.2163C12.8842 22.8572 14.4803 23.9264 16.25 23.925C18.6603 23.9165 20.612 21.9573 20.6206 19.538C20.6219 17.7616 19.5568 16.1594 17.922 15.479C16.2873 14.7986 14.4052 15.174 13.1538 16.4301C11.9024 17.6862 11.5284 19.5754 12.2063 21.2163ZM17.7857 19.7146C17.791 20.4982 17.2087 21.1605 16.4335 21.2526C15.6583 21.3447 14.938 20.8372 14.7609 20.0741C14.5838 19.3109 15.0065 18.5361 15.7425 18.2749V17.168H16.7641V18.2749C17.3762 18.4863 17.7868 19.0649 17.7857 19.7146ZM37.3111 21.5009C37.8237 20.5695 38.0915 19.5225 38.0891 18.4585C38.0891 14.9441 35.2509 12.0952 31.7498 12.0952C28.2486 12.0952 25.4104 14.9441 25.4104 18.4585C25.408 19.5225 25.6758 20.5695 26.1885 21.5009C26.9803 20.8548 27.8808 20.3557 28.8473 20.0272C28.5842 19.5469 28.4491 19.0066 28.4549 18.4585C28.453 17.078 29.3049 15.8414 30.5923 15.3559C31.8797 14.8704 33.3321 15.2381 34.2361 16.2783C35.1402 17.3185 35.306 18.8128 34.6522 20.0272C35.6188 20.3557 36.5192 20.8548 37.3111 21.5009Z" fill="#252525"/>
<defs>
<linearGradient id="paint0_linear_36_861" x1="24.3293" y1="-18.4341" x2="-17.7758" y2="23.6703" gradientUnits="userSpaceOnUse">
<stop stop-color="#F1D961"/>
<stop offset="1" stop-color="#CDA146"/>
</linearGradient>
</defs>
</svg>
