<svg width="37" height="36" viewBox="0 0 37 36" fill="none" xmlns="http://www.w3.org/2000/svg">
<path d="M22.9108 15.5657C22.9108 15.5657 24.7751 21.5463 32.0581 22.3758C33.2604 22.5109 34.6249 22.6622 36.019 22.2488C36.0793 22.2515 36.1382 22.2673 36.1918 22.2949C36.2454 22.3225 36.2924 22.3614 36.3296 22.4088C36.3668 22.4563 36.3934 22.5112 36.4074 22.5699C36.4214 22.6285 36.4226 22.6895 36.4108 22.7487C36.202 24.1453 35.7338 25.4906 35.0302 26.715C33.2631 29.856 29.3805 34.0101 20.6156 35.4773C20.1522 35.4678 19.2335 35.072 18.8066 35.1422C18.8066 35.1422 8.23685 25.8693 22.9108 15.5657Z" fill="#CFBFA3"/>
<path d="M20.6156 35.4786C20.6156 35.4786 12.9598 24.536 24.9819 18.9241L23.4823 16.9761C23.4823 16.9761 7.91806 24.9291 20.6156 35.4786Z" fill="#B9A798"/>
<path d="M36.4014 22.7661C36.162 24.2286 35.6584 25.6354 34.9154 26.9176L32.6931 22.4446C33.7237 22.5823 34.7708 22.5301 35.7827 22.2906C36.265 22.1785 36.4744 22.3379 36.4014 22.7661Z" fill="#222222"/>
<path d="M23.6241 25.822C24.4807 25.822 25.175 25.1276 25.175 24.2711C25.175 23.4146 24.4807 22.7202 23.6241 22.7202C22.7676 22.7202 22.0732 23.4146 22.0732 24.2711C22.0732 25.1276 22.7676 25.822 23.6241 25.822Z" fill="#222222"/>
<path d="M23.92 2.60597L25.2074 0.489042C25.2074 0.489042 21.9895 0.969979 18.8918 2.28715C18.3567 2.33694 17.8246 2.4145 17.2977 2.51951L19.8766 0C19.8766 0 16.3493 0.629541 13.2408 3.91774C12.9706 4.05284 12.7193 4.18793 12.464 4.33789L14.4904 0.613329C14.4904 0.613329 10.3687 2.54653 8.38817 7.34644L9.6378 3.00315C9.6378 3.00315 6.48604 5.40378 5.92945 11.2939C5.8565 11.4398 5.7849 11.5844 5.716 11.7316L5.37151 6.44806C5.37151 6.44806 2.30351 11.3479 4.27454 16.8733V16.8868L2.12924 11.5492C2.12924 11.5492 0.797208 15.7534 4.01246 21.172L0.5 17.1057C0.5 17.1057 0.840438 24.1225 4.8541 27.9132C4.8541 27.9132 6.29961 27.485 7.18583 28.5063C10.0228 32.5591 14.5863 35.261 19.778 35.4583C19.9874 35.4664 20.4075 35.4704 20.4075 35.4704C20.4075 35.4704 12.9557 29.0453 20.1373 19.8589C27.3203 11.4047 36.6027 17.2826 36.4986 16.5221C35.557 9.62414 30.4815 4.08661 23.92 2.60597Z" fill="#22A079"/>
<path d="M17.2693 30.0464C17.2693 30.0464 9.04336 32.9131 1.40106 21.8057C1.40106 21.8057 2.30214 25.7774 5.69572 29.679C8.48812 32.8888 14.0338 35.6785 20.6156 35.4759C20.6156 35.4759 19.6172 34.8004 18.6634 33.2157C17.8475 31.8567 17.2693 30.0464 17.2693 30.0464Z" fill="#1B8061"/>
</svg>
