<svg width="56" height="56" viewBox="0 0 56 56" fill="none" xmlns="http://www.w3.org/2000/svg">
<path d="M33.2517 25.2804C33.2517 25.2804 35.6044 32.7493 44.7955 33.7852C46.3128 33.9539 48.0347 34.1429 49.7942 33.6266C49.948 33.6335 50.0912 33.7065 50.1862 33.8265C50.2812 33.9464 50.3186 34.1014 50.2886 34.2509C50.0251 35.9951 49.4342 37.6751 48.5462 39.2043C46.3162 43.1268 41.4164 48.3148 30.3551 50.147C29.7703 50.1352 28.611 49.6408 28.0722 49.7286C28.0722 49.7286 14.7332 38.1481 33.2517 25.2804Z" fill="#CFBFA3"/>
<path d="M30.3544 50.1488C30.3544 50.1488 20.6928 36.483 35.8646 29.4747L33.9722 27.0419C33.9722 27.0419 14.3302 36.974 30.3544 50.1488Z" fill="#B9A798"/>
<path d="M50.2762 34.273C49.9741 36.0994 49.3386 37.8562 48.4009 39.4576L45.5963 33.8715C46.897 34.0434 48.2185 33.9782 49.4954 33.6791C50.104 33.5391 50.3683 33.7382 50.2762 34.273Z" fill="#222222"/>
<ellipse cx="34.1517" cy="36.1525" rx="1.95721" ry="1.93682" fill="#222222"/>
<path d="M34.5248 9.09602L36.1496 6.45229C36.1496 6.45229 32.0885 7.05291 28.1792 8.69786C27.504 8.76004 26.8325 8.8569 26.1674 8.98805L29.4221 5.84155C29.4221 5.84155 24.9706 6.62775 21.0477 10.7342C20.7067 10.9029 20.3896 11.0717 20.0674 11.2589L22.6247 6.60751C22.6247 6.60751 17.4231 9.02179 14.9237 15.0162L16.5007 9.59204C16.5007 9.59204 12.5232 12.5901 11.8208 19.9459C11.7288 20.1282 11.6384 20.3087 11.5514 20.4926L11.1167 13.8942C11.1167 13.8942 7.2449 20.0134 9.73233 26.9138V26.9307L7.02497 20.2648C7.02497 20.2648 5.34395 25.5152 9.40158 32.2822L4.96887 27.204C4.96887 27.204 5.3985 35.9669 10.4637 40.701C10.4637 40.701 12.288 40.1662 13.4064 41.4417C16.9866 46.503 22.7457 49.8773 29.2976 50.1236C29.5619 50.1337 30.0921 50.1388 30.0921 50.1388C30.0921 50.1388 20.6879 42.1148 29.7511 30.6423C38.816 20.0843 50.5303 27.425 50.399 26.4751C49.2107 17.8607 42.8054 10.9451 34.5248 9.09602Z" fill="#22A079"/>
<path d="M26.1317 43.365C26.1317 43.365 15.7506 46.9451 6.10608 33.0735C6.10608 33.0735 7.24324 38.0336 11.5259 42.9061C15.0499 46.9147 22.0485 50.3986 30.3547 50.1455C30.3547 50.1455 29.0948 49.302 27.8911 47.323C26.8614 45.6257 26.1317 43.365 26.1317 43.365Z" fill="#1B8061"/>
</svg>
