<svg width="53" height="50" viewBox="0 0 53 50" fill="none" xmlns="http://www.w3.org/2000/svg">
<path d="M32.7187 21.9316C32.7187 21.9316 35.3731 30.3583 45.7428 31.5271C47.4547 31.7174 49.3975 31.9306 51.3826 31.3482C51.5561 31.356 51.7176 31.4383 51.8248 31.5736C51.932 31.7089 51.9742 31.8838 51.9404 32.0524C51.6431 34.0203 50.9764 35.9158 49.9745 37.6411C47.4586 42.0666 41.9304 47.9198 29.4506 49.987C28.7909 49.9737 27.4829 49.416 26.875 49.515C26.875 49.515 11.8255 36.4495 32.7187 21.9316Z" fill="#CFBFA3"/>
<path d="M29.4507 49.989C29.4507 49.989 18.5501 34.5708 35.6675 26.6638L33.5324 23.9189C33.5324 23.9189 11.3716 35.1247 29.4507 49.989Z" fill="#B9A798"/>
<path d="M51.9269 32.0774C51.586 34.138 50.869 36.1201 49.811 37.9268L46.6469 31.6244C48.1143 31.8183 49.6052 31.7448 51.0459 31.4074C51.7326 31.2494 52.0308 31.474 51.9269 32.0774Z" fill="#222222"/>
<ellipse cx="33.7343" cy="34.1979" rx="2.2082" ry="2.18519" fill="#222222"/>
<path d="M34.1556 3.67181L35.9887 0.689059C35.9887 0.689059 31.4069 1.3667 26.9962 3.22259C26.2344 3.29274 25.4768 3.40202 24.7265 3.54999L28.3985 0C28.3985 0 23.3762 0.887021 18.9502 5.52009C18.5655 5.71044 18.2077 5.90078 17.8442 6.11207L20.7294 0.864179C20.7294 0.864179 14.8608 3.58806 12.0409 10.3511L13.8202 4.23143C13.8202 4.23143 9.33261 7.61392 8.54012 15.9131C8.43625 16.1187 8.3343 16.3223 8.2362 16.5298L7.74571 9.0853C7.74571 9.0853 3.3774 15.9892 6.18381 23.7745V23.7935L3.12927 16.2728C3.12927 16.2728 1.23268 22.1965 5.81065 29.8313L0.809509 24.1018C0.809509 24.1018 1.29424 33.9885 7.009 39.3297C7.009 39.3297 9.06716 38.7263 10.329 40.1653C14.3684 45.8757 20.866 49.6827 28.2581 49.9606C28.5562 49.972 29.1544 49.9777 29.1544 49.9777C29.1544 49.9777 18.5443 40.9248 28.7697 27.9811C38.9971 16.0692 52.2135 24.3512 52.0654 23.2795C50.7247 13.5604 43.4981 5.75802 34.1556 3.67181Z" fill="#22A079"/>
<path d="M24.6861 42.3353C24.6861 42.3353 12.9738 46.3745 2.09247 30.7241C2.09247 30.7241 3.37545 36.3203 8.20732 41.8176C12.1832 46.3403 20.0793 50.2709 29.4506 49.9854C29.4506 49.9854 28.0292 49.0337 26.6711 46.8009C25.5093 44.886 24.6861 42.3353 24.6861 42.3353Z" fill="#1B8061"/>
</svg>
