<svg width="30" height="30" viewBox="0 0 30 30" fill="none" xmlns="http://www.w3.org/2000/svg">
<g clip-path="url(#clip0_7115_143505)">
<path fill-rule="evenodd" clip-rule="evenodd" d="M2.43392 9.34528C2.11142 9.42684 1.80854 9.57225 1.54321 9.77289C1.27788 9.97353 1.05547 10.2253 0.889142 10.5134C0.722814 10.8015 0.615942 11.12 0.574846 11.4501C0.533751 11.7803 0.559266 12.1153 0.649882 12.4353L2.32962 18.2147C2.64947 19.3262 3.38691 20.2709 4.38753 20.8509L18.0794 28.7559C18.6509 29.0859 19.3301 29.1753 19.9675 29.0045C20.6049 28.8337 21.1484 28.4167 21.4783 27.8452L26.2059 19.6568C26.5359 19.0853 26.6253 18.4061 26.4545 17.7687C26.3655 17.4368 26.2098 17.1303 26.0003 16.8662C24.6938 17.4842 23.2332 17.8299 21.692 17.8299C16.3293 17.8299 11.9439 13.6457 11.6224 8.36387L11.6033 8.35283C10.6007 7.77629 9.41384 7.60998 8.29134 7.88872C7.69323 8.03727 7.09494 8.1852 6.49665 8.33313L6.49652 8.33317C5.14169 8.66816 3.78682 9.00317 2.43392 9.34528ZM7.24619 12.262C8.03162 12.7154 8.30073 13.7197 7.84726 14.5052C7.39379 15.2906 6.38946 15.5597 5.60403 15.1063C4.8186 14.6528 4.5495 13.6485 5.00296 12.863C5.45643 12.0776 6.46076 11.8085 7.24619 12.262Z" fill="white"/>
<path fill-rule="evenodd" clip-rule="evenodd" d="M21.6917 15.3927C25.9173 15.3927 29.3428 11.9671 29.3428 7.74153C29.3428 3.51592 25.9173 0.0903931 21.6917 0.0903931C17.4661 0.0903931 14.0405 3.51592 14.0405 7.74153C14.0405 11.9671 17.4661 15.3927 21.6917 15.3927ZM20.6667 7.08223C20.6879 7.12105 20.7198 7.15293 20.7586 7.17417L22.6578 8.12413C22.9395 8.26505 22.9397 8.66702 22.6581 8.80817L20.8505 9.71422C20.8117 9.73545 20.7798 9.76733 20.7586 9.80615L19.8142 11.6526C19.6693 11.9359 19.2619 11.9287 19.1271 11.6404L18.2698 9.80615C18.2486 9.76733 18.2167 9.73545 18.1779 9.71422L16.3087 8.81761C16.0168 8.6776 16.02 8.2609 16.314 8.12537L18.1779 7.2661C18.2167 7.24487 18.2486 7.21299 18.2698 7.17417L19.1197 5.32117C19.2545 5.02711 19.6709 5.02287 19.8117 5.31412L20.6667 7.08223ZM25.0821 10.3643C25.0678 10.3565 25.056 10.3447 25.0482 10.3304L24.7468 9.70707C24.6895 9.58861 24.5202 9.59033 24.4653 9.70994L24.1652 10.3643C24.1574 10.3786 24.1456 10.3903 24.1313 10.3982L23.473 10.7017C23.3534 10.7568 23.3521 10.9263 23.4708 10.9832L24.1313 11.3001C24.1456 11.3079 24.1574 11.3196 24.1652 11.3339L24.4684 11.9825C24.5232 12.0998 24.6889 12.1027 24.7478 11.9875L25.0821 11.3339C25.0899 11.3196 25.1017 11.3079 25.116 11.3001L25.7557 10.9794C25.8702 10.922 25.8702 10.7585 25.7556 10.7012L25.0821 10.3643ZM24.9235 3.8941C24.9352 3.91555 24.9529 3.93317 24.9743 3.9449L25.9845 4.45021C26.1564 4.53618 26.1565 4.78143 25.9847 4.86755L25.0251 5.34855C25.0037 5.36029 24.986 5.3779 24.9743 5.39935L24.4729 6.3797C24.3845 6.55257 24.1359 6.54815 24.0537 6.37225L23.599 5.39935C23.5872 5.3779 23.5696 5.36029 23.5482 5.34855L22.5574 4.8733C22.3793 4.78788 22.3813 4.53365 22.5606 4.45096L23.5482 3.99571C23.5696 3.98397 23.5872 3.96635 23.599 3.9449L24.0491 2.96336C24.1314 2.78395 24.3854 2.78136 24.4714 2.95906L24.9235 3.8941Z" fill="#6196FF"/>
</g>
<defs>
<clipPath id="clip0_7115_143505">
<rect width="30" height="30" fill="white"/>
</clipPath>
</defs>
</svg>
