<svg width="80" height="80" viewBox="0 0 80 80" fill="none" xmlns="http://www.w3.org/2000/svg">
<g clip-path="url(#clip0_1147_24977)">
<path d="M3 33C3 29.6863 5.68629 27 9 27H15V62C15 65.3137 12.3137 68 9 68C5.68629 68 3 65.3137 3 62V33Z" fill="#CED4E0"/>
<path fill-rule="evenodd" clip-rule="evenodd" d="M15 62C15 65.3137 12.3137 68 9 68H15V62Z" fill="#E2E7F0"/>
<path d="M15 10C15 6.68629 17.6863 4 21 4H57C60.3137 4 63 6.68629 63 10V62C63 65.3137 60.3137 68 57 68H15V10Z" fill="#E2E7F0"/>
<path d="M55.8698 44C57.7943 40.6667 62.6056 40.6667 64.5301 44L76.6544 65C78.5789 68.3333 76.1733 72.5 72.3243 72.5H48.0756C44.2266 72.5 41.821 68.3333 43.7455 65L55.8698 44Z" fill="#3772FF"/>
<path fill-rule="evenodd" clip-rule="evenodd" d="M58.1725 53.0838C58.0837 51.9052 59.0161 50.9 60.198 50.9C61.38 50.9 62.3123 51.9052 62.2236 53.0838L61.7338 59.5888C61.6733 60.3922 61.0038 61.0133 60.198 61.0133C59.3923 61.0133 58.7227 60.3922 58.6622 59.5888L58.1725 53.0838Z" fill="white"/>
<circle cx="60.1511" cy="65.0427" r="1.85712" fill="white"/>
<path fill-rule="evenodd" clip-rule="evenodd" d="M22.8 39.7C22.8 38.8163 23.5164 38.1 24.4 38.1H50C50.8837 38.1 51.6 38.8163 51.6 39.7C51.6 40.5837 50.8837 41.3 50 41.3H24.4C23.5164 41.3 22.8 40.5837 22.8 39.7Z" fill="#CED4E0"/>
<path fill-rule="evenodd" clip-rule="evenodd" d="M22.8 49.3C22.8 48.4163 23.5164 47.7 24.4 47.7H42C42.8837 47.7 43.6 48.4163 43.6 49.3C43.6 50.1837 42.8837 50.9 42 50.9H24.4C23.5164 50.9 22.8 50.1837 22.8 49.3Z" fill="#CED4E0"/>
<path fill-rule="evenodd" clip-rule="evenodd" d="M22.8 58.9C22.8 58.0163 23.5164 57.3 24.4 57.3H35.6C36.4837 57.3 37.2 58.0163 37.2 58.9C37.2 59.7837 36.4837 60.5 35.6 60.5H24.4C23.5164 60.5 22.8 59.7837 22.8 58.9Z" fill="#CED4E0"/>
<path fill-rule="evenodd" clip-rule="evenodd" d="M30.8232 20.3582C30.7847 20.3898 30.7477 20.4232 30.7122 20.4581C30.6736 20.4897 30.6367 20.5231 30.6011 20.558C30.5626 20.5895 30.5257 20.623 30.4901 20.6578C30.4515 20.6894 30.4146 20.7228 30.3789 20.7577C30.3405 20.7893 30.3035 20.8227 30.2679 20.8575C30.2294 20.8891 30.1924 20.9225 30.1569 20.9574C30.1183 20.989 30.0814 21.0224 30.0458 21.0572C30.0073 21.0888 29.9703 21.1223 29.9347 21.1571C29.8962 21.1887 29.8593 21.2221 29.8238 21.2569C29.7851 21.2885 29.7482 21.322 29.7126 21.3568C29.6741 21.3884 29.6371 21.4218 29.6015 21.4566C29.5631 21.4882 29.5261 21.5217 29.4905 21.5565C29.4519 21.5881 29.415 21.6215 29.3795 21.6564C29.3409 21.6879 29.304 21.7214 29.2684 21.7562C29.2298 21.7878 29.1929 21.8213 29.1573 21.8561C29.1188 21.8877 29.0819 21.9211 29.0463 21.9559C29.0077 21.9875 28.9708 22.021 28.9352 22.0558C28.8966 22.0874 28.8597 22.1208 28.8241 22.1556C28.7856 22.1873 28.7486 22.2207 28.713 22.2555C28.6745 22.2871 28.6376 22.3206 28.602 22.3553C28.5634 22.3869 28.5265 22.4204 28.4909 22.4551C28.4524 22.4868 28.4155 22.5203 28.3799 22.555C28.3413 22.5866 28.3045 22.6202 28.2688 22.6549C28.2303 22.6865 28.1933 22.72 28.1578 22.7548C28.1192 22.7863 28.0823 22.8198 28.0467 22.8546C28.0082 22.8862 27.9713 22.9197 27.9356 22.9545C27.8971 22.9861 27.8602 23.0195 27.8245 23.0543C27.786 23.0859 27.7492 23.1194 27.7134 23.1541C27.675 23.1858 27.6381 23.2193 27.6024 23.254C27.564 23.2857 27.5271 23.3191 27.4914 23.3538C27.4528 23.3855 27.4159 23.419 27.3803 23.4537C27.3417 23.4854 27.3048 23.5188 27.2692 23.5536C27.2307 23.5852 27.1938 23.6187 27.1581 23.6534C27.1196 23.6851 27.0827 23.7186 27.0471 23.7533C27.0348 23.7634 27.023 23.774 27.0111 23.7843C27.0111 23.7824 27.011 23.7804 27.0109 23.7784C27.0133 23.7394 27.0148 23.7002 27.0148 23.6606C27.0148 23.6501 27.0143 23.6398 27.0141 23.6293C27.0164 23.5903 27.0179 23.5511 27.0179 23.5115C27.0179 23.501 27.0173 23.4907 27.0171 23.4803C27.0195 23.4413 27.021 23.4019 27.021 23.3623C27.021 23.3519 27.0203 23.3416 27.0202 23.3312C27.0225 23.2921 27.0241 23.2528 27.0241 23.2132C27.0241 23.2028 27.0234 23.1925 27.0233 23.1822C27.0256 23.143 27.0272 23.1038 27.0272 23.064C27.0272 23.0537 27.0266 23.0435 27.0264 23.0331C27.0287 22.994 27.0302 22.9547 27.0302 22.9149C27.0302 22.9046 27.0296 22.8943 27.0295 22.884C27.0318 22.8449 27.0333 22.8055 27.0333 22.7658C27.0333 22.7554 27.0327 22.7453 27.0326 22.735C27.0349 22.6958 27.0364 22.6564 27.0364 22.6166C27.0364 22.6063 27.0358 22.5962 27.0356 22.5859C27.038 22.5467 27.0395 22.5072 27.0395 22.4675C27.0395 22.4572 27.0389 22.447 27.0387 22.4368C27.041 22.3976 27.0426 22.3581 27.0426 22.3184C27.0426 22.3081 27.042 22.298 27.0418 22.2878C27.0441 22.2485 27.0456 22.209 27.0456 22.1692C27.0456 22.159 27.045 22.1489 27.0449 22.1387C27.0472 22.0994 27.0487 22.0599 27.0487 22.02C27.0487 22.0099 27.0482 21.9998 27.048 21.9897C27.0503 21.9503 27.0518 21.9108 27.0518 21.8709C27.0518 21.8607 27.0512 21.8507 27.051 21.8405C27.0534 21.8012 27.0549 21.7617 27.0549 21.7218C27.0549 21.7116 27.0543 21.7017 27.0542 21.6915C27.0565 21.6522 27.058 21.6125 27.058 21.5726C27.058 21.5625 27.0573 21.5525 27.0572 21.5424C27.0595 21.5031 27.0611 21.4634 27.0611 21.4235C27.0611 21.4134 27.0605 21.4034 27.0603 21.3934C27.0626 21.3539 27.0642 21.3143 27.0642 21.2744C27.0642 21.2643 27.0636 21.2544 27.0634 21.2443C27.0657 21.2049 27.0672 21.1653 27.0672 21.1252C27.0672 21.1152 27.0666 21.1052 27.0665 21.0952C27.0689 21.0558 27.0703 21.0161 27.0703 20.9761C27.0703 20.966 27.0697 20.9562 27.0695 20.9462C27.0719 20.9067 27.0734 20.867 27.0734 20.8269C27.0734 20.8169 27.0728 20.8071 27.0726 20.7971C27.0749 20.7576 27.0765 20.7178 27.0765 20.6778C27.0765 20.6678 27.0759 20.658 27.0757 20.6481C27.078 20.6085 27.0796 20.5687 27.0796 20.5286C27.0796 20.5187 27.079 20.5089 27.0789 20.499C27.0812 20.4594 27.0826 20.4196 27.0826 20.3795C27.0826 20.3696 27.0821 20.3598 27.0819 20.3499C27.0842 20.3103 27.0857 20.2705 27.0857 20.2304C27.0857 20.2205 27.0851 20.2107 27.0849 20.2009C27.0873 20.1613 27.0888 20.1214 27.0888 20.0812C27.0888 20.0713 27.0882 20.0617 27.0881 20.0518C27.0904 20.0122 27.0919 19.9723 27.0919 19.9321C27.0919 19.9222 27.0913 19.9126 27.0912 19.9027C27.0935 19.8631 27.095 19.8232 27.095 19.783C27.095 19.7752 27.0945 19.7677 27.0944 19.76C27.0958 19.7369 27.0968 19.7137 27.0975 19.6904C27.0998 19.6689 27.1012 19.6472 27.1029 19.6256C27.1064 19.6018 27.1093 19.5778 27.112 19.5537C27.1165 19.5304 27.121 19.507 27.1246 19.4834C27.1293 19.4632 27.1342 19.443 27.1383 19.4225C27.1436 19.4034 27.149 19.3842 27.1537 19.3648C27.16 19.346 27.1658 19.3271 27.1714 19.3081C27.1784 19.2898 27.1849 19.2712 27.1914 19.2527C27.1992 19.2344 27.2064 19.2158 27.2137 19.1973C27.2237 19.1767 27.2328 19.1558 27.242 19.1349C27.2527 19.1148 27.2632 19.0947 27.2732 19.0743C27.2836 19.0564 27.294 19.0387 27.3038 19.0206C27.3142 19.0045 27.3244 18.9884 27.3342 18.972C27.3451 18.9564 27.3558 18.9407 27.3663 18.9249C27.3778 18.9099 27.3889 18.8946 27.4 18.8792C27.4123 18.8646 27.424 18.8495 27.4359 18.8344C27.4509 18.818 27.4653 18.8009 27.4798 18.7839C27.4954 18.7681 27.5109 18.7521 27.5259 18.7357C27.5409 18.7216 27.556 18.7077 27.5705 18.6932C27.5846 18.6809 27.5986 18.6686 27.6124 18.656C27.6269 18.6444 27.6414 18.6326 27.6557 18.6206C27.6707 18.6096 27.6855 18.5983 27.7002 18.5868C27.7161 18.5762 27.7318 18.565 27.7474 18.5539C27.7664 18.5424 27.7849 18.5302 27.8035 18.5181C27.8228 18.5073 27.8422 18.4964 27.8612 18.4851C27.8792 18.4759 27.8974 18.4669 27.9151 18.4572C27.932 18.4495 27.9489 18.4418 27.9656 18.4336C27.9828 18.4266 28 18.4194 28.017 18.412C28.0345 18.4058 28.0517 18.3992 28.0691 18.3925C28.0883 18.3866 28.1072 18.3799 28.1262 18.3735C28.148 18.3679 28.1693 18.3616 28.1907 18.3553C28.2126 18.3505 28.2345 18.3457 28.2561 18.3403C28.2758 18.3367 28.2957 18.3334 28.3152 18.3294C28.3338 18.3269 28.3525 18.3243 28.371 18.3213C28.3899 18.3197 28.4086 18.3177 28.4273 18.3156C28.4463 18.3148 28.4651 18.3134 28.4839 18.312C28.4852 18.312 28.4864 18.3122 28.4877 18.3122C28.5081 18.3122 28.5284 18.3112 28.5487 18.3106C28.5715 18.3116 28.5943 18.312 28.6173 18.3123C28.6398 18.3142 28.6622 18.3162 28.6849 18.3175C28.7044 18.3199 28.7239 18.3226 28.7436 18.3245C28.7618 18.3276 28.78 18.3307 28.7985 18.3333C28.8164 18.3372 28.8343 18.3408 28.8524 18.3443C28.87 18.3489 28.8877 18.353 28.9054 18.3573C28.9243 18.3631 28.9435 18.3683 28.9627 18.3737C28.9827 18.3809 29.0029 18.3876 29.0234 18.3942C29.0375 18.3999 29.0517 18.4055 29.066 18.4109C29.1255 18.4375 29.1865 18.4615 29.2487 18.4828C29.2729 18.4928 29.2974 18.5024 29.322 18.5116C29.3342 18.5169 29.3466 18.522 29.3589 18.5272C29.3729 18.5338 29.387 18.5399 29.4011 18.5462C29.415 18.5533 29.4288 18.5607 29.4429 18.5675C29.4544 18.5738 29.4662 18.5799 29.4779 18.5861C29.4914 18.5941 29.5051 18.6018 29.5189 18.6095C29.5319 18.6178 29.5448 18.6264 29.558 18.6344C29.569 18.642 29.5805 18.6491 29.5918 18.6564C29.6046 18.6658 29.6177 18.675 29.6308 18.6841C29.6422 18.6929 29.6535 18.702 29.6651 18.7107C29.6764 18.7199 29.688 18.7287 29.6995 18.7378C29.7216 18.7573 29.7441 18.7765 29.767 18.7951C29.8032 18.8276 29.8407 18.8585 29.879 18.8884C29.9074 18.9132 29.9366 18.9373 29.9663 18.9605C29.9948 18.9853 30.0239 19.0094 30.0536 19.0326C30.0821 19.0575 30.1112 19.0815 30.141 19.1048C30.1695 19.1296 30.1985 19.1537 30.2283 19.1769C30.2567 19.2018 30.2859 19.2257 30.3156 19.2491C30.344 19.2739 30.3732 19.2979 30.4029 19.3212C30.4313 19.346 30.4604 19.37 30.4903 19.3932C30.5186 19.4181 30.5478 19.4421 30.5776 19.4653C30.6059 19.4902 30.6351 19.5143 30.6648 19.5375C30.6933 19.5624 30.7225 19.5864 30.7522 19.6097C30.7806 19.6345 30.8097 19.6585 30.8395 19.6818C30.868 19.7066 30.897 19.7306 30.9268 19.7539C30.9552 19.7787 30.9844 19.8027 31.0141 19.826C31.0425 19.8508 31.0717 19.8749 31.1014 19.8981C31.1298 19.923 31.159 19.947 31.1889 19.9703C31.1996 19.9797 31.2104 19.9892 31.2215 19.9984C31.1993 20.018 31.1775 20.038 31.1565 20.0587C31.1179 20.0903 31.0809 20.1237 31.0454 20.1585C31.0069 20.1901 30.9699 20.2235 30.9343 20.2583C30.8958 20.2899 30.8588 20.3234 30.8232 20.3582ZM40.0771 22.6999C40.0196 22.6421 39.958 22.5884 39.8927 22.5392C39.8352 22.4813 39.7736 22.4276 39.7084 22.3784C39.6509 22.3205 39.5893 22.2668 39.524 22.2176C39.4666 22.1597 39.405 22.106 39.3397 22.0568C39.2823 21.9989 39.2207 21.9452 39.1553 21.896C39.0979 21.8381 39.0364 21.7844 38.971 21.7352C38.9136 21.6773 38.852 21.6236 38.7867 21.5744C38.7293 21.5165 38.6677 21.4627 38.6023 21.4136C38.5807 21.3918 38.5586 21.3704 38.5358 21.3497C38.503 21.3118 38.4686 21.2753 38.4325 21.2405C38.4075 21.2129 38.3815 21.1863 38.3548 21.1605C38.3298 21.1328 38.3038 21.1062 38.2772 21.0804C38.2521 21.0528 38.2261 21.0262 38.1994 21.0004C38.1744 20.9728 38.1484 20.9462 38.1217 20.9204C38.0967 20.8928 38.0707 20.8662 38.044 20.8404C38.019 20.8128 37.993 20.7862 37.9662 20.7603C37.9413 20.7327 37.9153 20.7062 37.8886 20.6803C37.8636 20.6527 37.8376 20.6262 37.811 20.6003C37.786 20.5727 37.76 20.5462 37.7333 20.5203C37.7083 20.4927 37.6823 20.4661 37.6555 20.4403C37.6306 20.4127 37.6046 20.3861 37.5778 20.3602C37.5529 20.3327 37.5269 20.3061 37.5002 20.2802C37.4752 20.2527 37.4491 20.2261 37.4225 20.2002C37.3975 20.1727 37.3715 20.1461 37.3448 20.1202C37.3198 20.0926 37.2938 20.066 37.2671 20.0402C37.2421 20.0126 37.2161 19.9861 37.1894 19.9601C37.1656 19.934 37.1409 19.9086 37.1156 19.8839C37.1234 19.8777 37.1314 19.8715 37.1391 19.8652C37.1763 19.8387 37.2129 19.8112 37.2482 19.7821C37.2855 19.7555 37.322 19.7281 37.3573 19.699C37.3946 19.6724 37.4311 19.6449 37.4664 19.6159C37.5038 19.5893 37.5403 19.5618 37.5755 19.5328C37.6128 19.5062 37.6494 19.4787 37.6847 19.4496C37.722 19.4231 37.7585 19.3956 37.7937 19.3665C37.8311 19.3399 37.8677 19.3124 37.9029 19.2834C37.9402 19.2568 37.9767 19.2293 38.0121 19.2003C38.0493 19.1737 38.0859 19.1462 38.1211 19.1172C38.1585 19.0906 38.195 19.0631 38.2303 19.034C38.2675 19.0074 38.3041 18.98 38.3394 18.951C38.3778 18.9235 38.4153 18.8951 38.4516 18.8652C38.5006 18.83 38.5478 18.7927 38.5933 18.7535C38.61 18.7409 38.6265 18.728 38.6427 18.715C38.6588 18.7037 38.6751 18.6926 38.6909 18.6809C38.7044 18.6721 38.7178 18.6633 38.7311 18.6543C38.7448 18.6462 38.7583 18.6378 38.7717 18.6294C38.789 18.6202 38.8057 18.6103 38.8227 18.6006C38.8409 18.5916 38.8591 18.5824 38.8771 18.5729C38.8941 18.5653 38.9111 18.5579 38.9278 18.5499C38.9421 18.5441 38.9563 18.5383 38.9704 18.5323C38.9962 18.5231 39.0216 18.5131 39.047 18.503C39.1336 18.4756 39.2179 18.4427 39.2995 18.4051C39.3247 18.3965 39.3497 18.3874 39.3745 18.3778C39.4083 18.3691 39.4419 18.3596 39.475 18.3493C39.5051 18.3437 39.5349 18.3374 39.5645 18.3305C39.5983 18.3268 39.632 18.3223 39.6654 18.317C39.6992 18.3157 39.7327 18.3134 39.766 18.3105C39.7893 18.3113 39.8124 18.3123 39.8358 18.3123C39.8455 18.3123 39.8549 18.3117 39.8646 18.3116C39.8999 18.3153 39.9355 18.3181 39.9713 18.3201C40.0015 18.3254 40.0319 18.33 40.0624 18.334C40.0968 18.3427 40.1314 18.3504 40.1664 18.3574C40.1964 18.3671 40.2268 18.3761 40.2574 18.3846C40.288 18.3969 40.3187 18.4086 40.3499 18.4196C40.3802 18.4343 40.411 18.4484 40.4421 18.4618C40.4687 18.477 40.4955 18.4917 40.5228 18.5058C40.5522 18.5256 40.5822 18.5448 40.6127 18.5631C40.6367 18.5816 40.6611 18.5995 40.6861 18.617C40.7115 18.6397 40.7375 18.6617 40.7641 18.6831C40.7869 18.7064 40.8104 18.729 40.8343 18.7511C40.8553 18.7756 40.8768 18.7996 40.8989 18.823C40.9197 18.851 40.9411 18.8785 40.9633 18.9054C40.9798 18.9311 40.9969 18.9563 41.0146 18.9811C41.0318 19.0127 41.0501 19.0438 41.069 19.0743C41.0824 19.1032 41.0963 19.1317 41.111 19.1598C41.1234 19.1926 41.1367 19.225 41.1507 19.2569C41.1606 19.2899 41.1712 19.3226 41.1827 19.3549C41.1901 19.3881 41.1984 19.4209 41.2073 19.4534C41.2128 19.4905 41.219 19.5273 41.2264 19.5637C41.2289 19.5968 41.2321 19.6297 41.2363 19.6623C41.2363 19.6637 41.2362 19.6651 41.2362 19.6665C41.2362 19.7218 41.2391 19.7763 41.2435 19.8303C41.2424 19.8572 41.2415 19.8841 41.2415 19.9113C41.2415 19.9661 41.2443 20.0202 41.2486 20.0739C41.2475 20.1007 41.2466 20.1276 41.2466 20.1548C41.2466 20.2095 41.2494 20.2636 41.2538 20.3172C41.2527 20.3441 41.2517 20.3711 41.2517 20.3983C41.2517 20.453 41.2546 20.507 41.259 20.5606C41.2578 20.5875 41.2569 20.6145 41.2569 20.6417C41.2569 20.6964 41.2598 20.7504 41.2641 20.8039C41.263 20.8309 41.2621 20.858 41.2621 20.8852C41.2621 20.9399 41.2649 20.9938 41.2693 21.0473C41.2682 21.0743 41.2673 21.1015 41.2673 21.1287C41.2673 21.1833 41.2701 21.2373 41.2745 21.2907C41.2733 21.3178 41.2724 21.3449 41.2724 21.3723C41.2724 21.4268 41.2753 21.4807 41.2796 21.5341C41.2785 21.5612 41.2775 21.5883 41.2775 21.6157C41.2775 21.6702 41.2804 21.724 41.2848 21.7774C41.2837 21.8045 41.2827 21.8318 41.2827 21.8593C41.2827 21.9137 41.2856 21.9675 41.29 22.0208C41.2888 22.048 41.2879 22.0753 41.2879 22.1027C41.2879 22.1571 41.2908 22.2109 41.2951 22.2641C41.294 22.2914 41.2931 22.3187 41.2931 22.3462C41.2931 22.4006 41.2959 22.4543 41.3003 22.5075C41.2991 22.5348 41.2982 22.5621 41.2982 22.5897C41.2982 22.6441 41.3011 22.6977 41.3055 22.7509C41.3043 22.7782 41.3034 22.8056 41.3034 22.8332C41.3034 22.8875 41.3063 22.9411 41.3106 22.9942C41.3095 23.0216 41.3085 23.0491 41.3085 23.0767C41.3085 23.1309 41.3114 23.1845 41.3158 23.2376C41.3147 23.265 41.3137 23.2925 41.3137 23.3202C41.3137 23.3744 41.3166 23.4279 41.321 23.481C41.3198 23.5084 41.3189 23.5359 41.3189 23.5637C41.3189 23.6179 41.3217 23.6713 41.3262 23.7243C41.3253 23.7442 41.3249 23.7642 41.3246 23.7842C41.2796 23.7421 41.2325 23.7021 41.1831 23.6647C41.1257 23.6069 41.064 23.5532 40.9987 23.5039C40.9412 23.4461 40.8797 23.3924 40.8144 23.3431C40.7569 23.2853 40.6953 23.2316 40.6301 23.1823C40.5726 23.1245 40.511 23.0708 40.4458 23.0215C40.3882 22.9637 40.3266 22.91 40.2614 22.8607C40.2039 22.8029 40.1424 22.7492 40.0771 22.6999ZM45.5294 19.9945C45.5339 19.9395 45.5369 19.884 45.5369 19.8278C45.5369 19.7685 45.5337 19.7098 45.5286 19.6517C45.5297 19.6235 45.5308 19.5952 45.5308 19.5667C45.5308 19.4558 45.5214 19.3471 45.504 19.2409C45.4994 19.1067 45.4815 18.9757 45.4516 18.8491C45.4372 18.7113 45.4087 18.5774 45.3677 18.449C45.3437 18.3196 45.3075 18.1945 45.2601 18.0747C45.2266 17.9452 45.1806 17.8207 45.1234 17.7021C45.0811 17.577 45.027 17.4571 44.9622 17.3437C44.9118 17.2238 44.8501 17.1096 44.7787 17.0021C44.7186 16.8828 44.6472 16.7698 44.5658 16.6647C44.4998 16.5547 44.4238 16.4511 44.3389 16.3551C44.263 16.2455 44.1768 16.1436 44.0816 16.05C44 15.9487 43.9093 15.8547 43.8103 15.7695C43.7211 15.6728 43.6228 15.5842 43.5169 15.5048C43.4204 15.4134 43.3152 15.3304 43.2025 15.2576C43.1018 15.1746 42.9933 15.1006 42.8782 15.0362C42.7677 14.9567 42.6494 14.8869 42.5243 14.8284C42.4127 14.7597 42.2944 14.7005 42.1703 14.6519C42.0496 14.5878 41.922 14.5347 41.789 14.4932C41.6655 14.4385 41.5361 14.3944 41.4015 14.3622C41.273 14.3154 41.1387 14.2801 40.9999 14.257C40.8656 14.2183 40.7262 14.1913 40.5827 14.1778C40.4478 14.1492 40.3083 14.1325 40.1655 14.1287C40.0579 14.1133 39.9478 14.105 39.8357 14.105C39.7986 14.105 39.7617 14.106 39.725 14.1077C39.672 14.1042 39.6187 14.1016 39.5647 14.1016C39.476 14.1016 39.3887 14.1072 39.3026 14.1169C39.3011 14.1169 39.2995 14.1168 39.298 14.1168C39.1523 14.1168 39.0101 14.1307 38.8722 14.1564C38.7299 14.1664 38.5912 14.1889 38.4575 14.2233C38.3181 14.2428 38.1829 14.2749 38.053 14.3179C37.9239 14.3451 37.7991 14.3828 37.6794 14.4303C37.5107 14.4783 37.3501 14.5447 37.2003 14.6273C37.1167 14.6656 37.0361 14.709 36.9586 14.7565C36.8901 14.7929 36.8239 14.8329 36.7598 14.8758C36.6923 14.9152 36.6269 14.958 36.5643 15.0039C36.4995 15.0454 36.4369 15.0897 36.3771 15.1373C36.3174 15.179 36.2599 15.2234 36.2048 15.2705C36.147 15.3139 36.0915 15.3602 36.0384 15.4089C35.9799 15.4561 35.9243 15.5063 35.8713 15.5591C35.8139 15.6092 35.7593 15.6623 35.7077 15.718C35.6527 15.77 35.6005 15.8246 35.5515 15.8821C35.5363 15.8978 35.5213 15.9136 35.5066 15.9296C35.4734 15.9614 35.4414 15.9943 35.4104 16.0281C35.3761 16.0608 35.3429 16.0948 35.3109 16.1297C35.2764 16.1624 35.2433 16.1964 35.2112 16.2313C35.1768 16.2641 35.1437 16.298 35.1116 16.3329C35.0772 16.3657 35.0441 16.3996 35.0121 16.4345C34.9776 16.4673 34.9445 16.5012 34.9125 16.5362C34.8781 16.5689 34.8449 16.6028 34.8128 16.6378C34.7784 16.6705 34.7453 16.7044 34.7132 16.7394C34.6788 16.7721 34.6456 16.8061 34.6137 16.841C34.5792 16.8737 34.546 16.9076 34.514 16.9427C34.4796 16.9754 34.4464 17.0093 34.4145 17.0443C34.3801 17.077 34.3469 17.1109 34.3149 17.1459C34.2804 17.1786 34.2473 17.2125 34.2153 17.2475C34.2108 17.2517 34.2061 17.2558 34.2016 17.2601C34.1985 17.2571 34.1952 17.2542 34.192 17.2512C34.1657 17.223 34.1383 17.1957 34.1103 17.169C34.0839 17.1407 34.0565 17.1135 34.0285 17.0867C34.0022 17.0585 33.9748 17.0312 33.9469 17.0044C33.9204 16.9762 33.8931 16.949 33.8652 16.9222C33.8388 16.894 33.8114 16.8667 33.7834 16.8399C33.7571 16.8118 33.7296 16.7845 33.7017 16.7578C33.6753 16.7295 33.6479 16.7023 33.62 16.6755C33.5936 16.6473 33.5662 16.62 33.5383 16.5933C33.5119 16.5651 33.4845 16.5378 33.4565 16.511C33.4301 16.4828 33.4028 16.4555 33.3748 16.4287C33.3484 16.4006 33.3211 16.3733 33.2932 16.3466C33.2667 16.3183 33.2394 16.291 33.2114 16.2643C33.185 16.2361 33.1577 16.2088 33.1297 16.1821C33.1033 16.1539 33.0759 16.1266 33.048 16.0999C33.0215 16.0717 32.9942 16.0443 32.9662 16.0176C32.9398 15.9894 32.9125 15.9621 32.8845 15.9354C32.8641 15.9135 32.8428 15.8922 32.8214 15.8712C32.792 15.8391 32.7619 15.8076 32.7306 15.7773C32.6897 15.7334 32.6467 15.6915 32.6023 15.6511C32.5606 15.6089 32.5172 15.5684 32.472 15.5298C32.4268 15.4866 32.3799 15.4452 32.3309 15.406C32.2863 15.3663 32.2398 15.3287 32.192 15.2927C32.1461 15.2542 32.0986 15.2175 32.0495 15.1827C32.0001 15.1438 31.949 15.1067 31.8962 15.072C31.8476 15.0362 31.7973 15.0026 31.7456 14.9708C31.6957 14.9364 31.6445 14.9037 31.5916 14.8732C31.5383 14.8388 31.4836 14.8065 31.4273 14.7765C31.3749 14.745 31.321 14.7159 31.2658 14.6886C31.1994 14.6515 31.1308 14.6174 31.0603 14.5868C30.948 14.5295 30.8299 14.481 30.7073 14.4424C30.6426 14.4179 30.5766 14.3963 30.5091 14.3777C30.4308 14.3502 30.3502 14.3272 30.2682 14.3081C30.1872 14.2834 30.104 14.2632 30.0194 14.2474C29.9369 14.2261 29.8527 14.2092 29.7668 14.197C29.6829 14.1792 29.5976 14.1655 29.5107 14.1571C29.4285 14.1433 29.3449 14.1337 29.26 14.1288C29.1779 14.1185 29.0943 14.1123 29.0096 14.1108C28.9426 14.105 28.8749 14.1015 28.8064 14.1015C28.7896 14.1015 28.7731 14.1024 28.7563 14.1028C28.719 14.1009 28.6814 14.1 28.6436 14.1C28.5923 14.1 28.5416 14.1023 28.491 14.1055C28.4874 14.1055 28.4839 14.1053 28.4802 14.1053C28.3942 14.1053 28.3094 14.1105 28.2259 14.1197C28.1373 14.1232 28.0499 14.1316 27.9642 14.1448C27.8767 14.1522 27.7905 14.164 27.7061 14.1809C27.6224 14.1916 27.54 14.2066 27.4593 14.2261C27.3778 14.24 27.2979 14.2581 27.2197 14.2803C27.1395 14.2972 27.0611 14.3184 26.9843 14.3435C26.9026 14.3641 26.8228 14.3895 26.7449 14.4186C26.6639 14.4427 26.5851 14.4714 26.5084 14.504C26.429 14.5314 26.3517 14.563 26.2768 14.5987C26.1992 14.6293 26.1237 14.6637 26.0508 14.7023C25.9764 14.7355 25.9041 14.7721 25.8344 14.8127C25.7636 14.8477 25.695 14.8863 25.6288 14.9283C25.5596 14.9658 25.4929 15.007 25.4287 15.0514C25.359 15.0926 25.2923 15.1378 25.2282 15.1862C25.1597 15.2307 25.0942 15.279 25.0315 15.3305C24.9653 15.3777 24.9018 15.4284 24.8416 15.4824C24.7776 15.5322 24.7164 15.5852 24.6586 15.6416C24.5979 15.6931 24.5399 15.7476 24.4854 15.8052C24.4289 15.8575 24.375 15.9126 24.3245 15.9704C24.2699 16.0247 24.2184 16.0818 24.1702 16.1414C24.116 16.1996 24.0655 16.2608 24.0182 16.3245C23.966 16.3854 23.9175 16.4493 23.8725 16.5157C23.823 16.5788 23.7771 16.6445 23.7351 16.7129C23.6884 16.7778 23.6451 16.8454 23.6062 16.9155C23.5631 16.9812 23.5233 17.0493 23.488 17.1198C23.4489 17.1853 23.4133 17.253 23.3816 17.3229C23.345 17.39 23.3123 17.4593 23.2832 17.5305C23.2478 17.6019 23.217 17.6759 23.19 17.7516C23.1575 17.825 23.1296 17.9007 23.1059 17.9781C23.0767 18.053 23.0518 18.1299 23.0316 18.2086C23.0057 18.285 22.984 18.3631 22.9672 18.4431C22.9454 18.5189 22.9275 18.5963 22.9144 18.6752C22.8961 18.7505 22.882 18.8273 22.8725 18.9055C22.8571 18.9824 22.8463 19.0609 22.8398 19.1407C22.827 19.2216 22.8196 19.3042 22.8168 19.3881C22.8086 19.4615 22.804 19.5361 22.804 19.6118C22.804 19.6206 22.8047 19.6294 22.8048 19.6383C22.8019 19.6815 22.8 19.7251 22.8 19.769C22.8 19.8069 22.8012 19.8444 22.8034 19.8818C22.803 19.8959 22.8023 19.9097 22.8023 19.9239C22.8023 19.9646 22.8038 20.0049 22.8062 20.0449C22.806 20.0549 22.8054 20.0646 22.8054 20.0746C22.8054 20.1153 22.807 20.1556 22.8094 20.1956C22.8093 20.2056 22.8087 20.2154 22.8087 20.2253C22.8087 20.266 22.8102 20.3062 22.8127 20.3463C22.8125 20.3562 22.8119 20.3661 22.8119 20.3761C22.8119 20.4166 22.8134 20.4569 22.8158 20.4969C22.8157 20.5069 22.8151 20.5168 22.8151 20.5268C22.8151 20.5674 22.8166 20.6076 22.819 20.6476C22.8189 20.6576 22.8182 20.6675 22.8182 20.6775C22.8182 20.7181 22.8198 20.7583 22.8223 20.7982C22.8221 20.8083 22.8215 20.8182 22.8215 20.8283C22.8215 20.8688 22.823 20.909 22.8254 20.9489C22.8253 20.959 22.8247 20.9689 22.8247 20.979C22.8247 21.0195 22.8262 21.0597 22.8286 21.0996C22.8285 21.1097 22.8279 21.1196 22.8279 21.1298C22.8279 21.1702 22.8294 21.2103 22.8318 21.2502C22.8317 21.2603 22.831 21.2703 22.831 21.2805C22.831 21.321 22.8327 21.361 22.8351 21.4009C22.8349 21.411 22.8343 21.421 22.8343 21.4312C22.8343 21.4716 22.8358 21.5117 22.8383 21.5515C22.8381 21.5617 22.8375 21.5718 22.8375 21.582C22.8375 21.6223 22.839 21.6624 22.8414 21.7022C22.8413 21.7124 22.8407 21.7225 22.8407 21.7327C22.8407 21.773 22.8422 21.8131 22.8447 21.8528C22.8445 21.8631 22.8439 21.8732 22.8439 21.8834C22.8439 21.9238 22.8455 21.9637 22.8479 22.0035C22.8477 22.0137 22.847 22.0239 22.847 22.0342C22.847 22.0745 22.8487 22.1145 22.8511 22.1542C22.8509 22.1645 22.8503 22.1746 22.8503 22.1849C22.8503 22.2252 22.8519 22.2651 22.8543 22.3048C22.8542 22.3151 22.8535 22.3253 22.8535 22.3356C22.8535 22.3759 22.855 22.4158 22.8575 22.4555C22.8573 22.4658 22.8567 22.476 22.8567 22.4864C22.8567 22.5266 22.8583 22.5665 22.8607 22.6061C22.8605 22.6165 22.8599 22.6267 22.8599 22.6371C22.8599 22.6773 22.8615 22.7172 22.8639 22.7568C22.8637 22.7672 22.8631 22.7774 22.8631 22.7878C22.8631 22.828 22.8647 22.8679 22.8671 22.9075C22.867 22.9179 22.8663 22.9282 22.8663 22.9386C22.8663 22.9787 22.8679 23.0185 22.8703 23.0581C22.8701 23.0685 22.8695 23.0789 22.8695 23.0893C22.8695 23.1295 22.8711 23.1692 22.8736 23.2088C22.8733 23.2192 22.8727 23.2296 22.8727 23.24C22.8727 23.2802 22.8743 23.3199 22.8767 23.3594C22.8765 23.3699 22.8759 23.3803 22.8759 23.3908C22.8759 23.4309 22.8775 23.4706 22.8799 23.51C22.8798 23.5205 22.8791 23.531 22.8791 23.5415C22.8791 23.5816 22.8807 23.6213 22.8831 23.6607C22.8829 23.6713 22.8823 23.6817 22.8823 23.6923C22.8823 23.7323 22.8839 23.772 22.8864 23.8114C22.8861 23.822 22.8855 23.8324 22.8855 23.843C22.8855 23.883 22.8872 23.9227 22.8896 23.9621C22.8894 23.9727 22.8887 23.9831 22.8887 23.9938C22.8887 24.0337 22.8903 24.0733 22.8927 24.1127C22.8926 24.1233 22.892 24.1338 22.892 24.1445C22.892 24.1844 22.8935 24.224 22.8959 24.2633C22.8957 24.274 22.8952 24.2845 22.8952 24.2952C22.8952 24.3352 22.8967 24.3747 22.8992 24.414C22.8989 24.4247 22.8983 24.4353 22.8983 24.446C22.8983 24.4858 22.9 24.5254 22.9024 24.5647C22.9022 24.5754 22.9015 24.5859 22.9015 24.5967C22.9015 24.6365 22.9031 24.676 22.9055 24.7153C22.9054 24.7261 22.9047 24.7367 22.9047 24.7474C22.9047 24.7873 22.9063 24.8267 22.9088 24.866C22.9086 24.8768 22.908 24.8874 22.908 24.8982C22.908 24.938 22.9095 24.9774 22.912 25.0166C22.9117 25.0274 22.9111 25.0381 22.9111 25.0489C22.9111 25.0887 22.9128 25.1281 22.9152 25.1673C22.915 25.1781 22.9143 25.1888 22.9143 25.1997C22.9143 25.2394 22.9159 25.2788 22.9183 25.3179C22.9182 25.3288 22.9175 25.3395 22.9175 25.3504C22.9175 25.3902 22.9191 25.4295 22.9216 25.4686C22.9214 25.4795 22.9207 25.4902 22.9207 25.5011C22.9207 25.5408 22.9224 25.5802 22.9248 25.6193C22.9246 25.6302 22.9239 25.6409 22.9239 25.6519C22.9239 25.6915 22.9256 25.7308 22.928 25.7699C22.9278 25.7808 22.9271 25.7917 22.9271 25.8026C22.9271 25.8422 22.9287 25.8815 22.9311 25.9206C22.931 25.9315 22.9304 25.9424 22.9304 25.9533C22.9304 25.9929 22.9319 26.0322 22.9344 26.0712C22.9342 26.0822 22.9335 26.0931 22.9335 26.104C22.9335 26.1437 22.9352 26.1829 22.9376 26.2219C22.9374 26.2329 22.9367 26.2438 22.9367 26.2548C22.9367 26.2944 22.9384 26.3336 22.9408 26.3726C22.9406 26.3836 22.9399 26.3945 22.9399 26.4055C22.9399 26.4451 22.9415 26.4843 22.944 26.5232C22.9439 26.5343 22.9432 26.5452 22.9432 26.5563C22.9432 26.5958 22.9447 26.635 22.9472 26.6739C22.947 26.685 22.9464 26.6959 22.9464 26.707C22.9464 26.7465 22.948 26.7856 22.9504 26.8245C22.9502 26.8356 22.9495 26.8466 22.9495 26.8577C22.9495 26.8972 22.9512 26.9363 22.9536 26.9752C22.9534 26.9863 22.9527 26.9974 22.9527 27.0085C22.9527 27.0479 22.9544 27.087 22.9568 27.1259C22.9567 27.137 22.956 27.1481 22.956 27.1592C22.956 27.1986 22.9576 27.2376 22.9601 27.2765C22.9599 27.2876 22.9591 27.2987 22.9591 27.3099C22.9591 27.3493 22.9608 27.3884 22.9632 27.4272C22.963 27.4383 22.9624 27.4494 22.9624 27.4607C22.9624 27.5001 22.964 27.539 22.9664 27.5778C22.9662 27.5891 22.9656 27.6001 22.9656 27.6115C22.9656 27.6508 22.9672 27.6898 22.9696 27.7285C22.9695 27.7398 22.9687 27.7508 22.9687 27.7622C22.9687 27.8015 22.9704 27.8404 22.9728 27.8791C22.9727 27.8904 22.9719 27.9016 22.9719 27.9129C22.9719 27.9522 22.9736 27.9911 22.9761 28.0298C22.9758 28.0411 22.9752 28.0523 22.9752 28.0637C22.9752 28.1029 22.9768 28.1418 22.9793 28.1804C22.9791 28.1918 22.9784 28.203 22.9784 28.2144C22.9784 29.2529 23.8467 30.0948 24.918 30.0948C25.0016 30.0948 25.0839 30.0891 25.1647 30.0792C25.6475 30.0365 26.0787 29.8223 26.3936 29.4997C26.4321 29.466 26.4689 29.4306 26.5046 29.3942C26.5431 29.3606 26.58 29.3252 26.6156 29.2886C26.6542 29.255 26.691 29.2197 26.7267 29.1831C26.7652 29.1494 26.8021 29.1141 26.8377 29.0776C26.8762 29.044 26.9131 29.0086 26.9488 28.9721C26.9873 28.9385 27.0242 28.9031 27.0598 28.8665C27.0984 28.8329 27.1353 28.7976 27.1708 28.761C27.2094 28.7274 27.2463 28.692 27.2819 28.6555C27.3205 28.6219 27.3574 28.5865 27.393 28.55C27.4315 28.5164 27.4684 28.481 27.504 28.4445C27.5426 28.4108 27.5795 28.3755 27.6151 28.339C27.6537 28.3053 27.6905 28.27 27.7261 28.2335C27.7647 28.1998 27.8016 28.1645 27.8372 28.1279C27.8758 28.0943 27.9126 28.0589 27.9483 28.0224C27.9868 27.9888 28.0237 27.9535 28.0593 27.9169C28.0978 27.8832 28.1348 27.8479 28.1703 27.8114C28.2088 27.7777 28.2458 27.7424 28.2814 27.7058C28.3199 27.6722 28.3569 27.6369 28.3925 27.6003C28.431 27.5667 28.4679 27.5314 28.5035 27.4948C28.542 27.4612 28.5789 27.4259 28.6145 27.3893C28.653 27.3557 28.69 27.3203 28.7256 27.2837C28.7641 27.2502 28.8011 27.2148 28.8367 27.1782C28.8752 27.1446 28.9121 27.1093 28.9477 27.0727C28.9862 27.0391 29.0232 27.0038 29.0587 26.9672C29.0972 26.9336 29.1342 26.8983 29.1697 26.8616C29.2083 26.8281 29.2452 26.7927 29.2808 26.7561C29.3194 26.7225 29.3564 26.6872 29.3918 26.6506C29.4304 26.617 29.4674 26.5817 29.5029 26.5451C29.5415 26.5115 29.5784 26.4762 29.6139 26.4396C29.6525 26.406 29.6894 26.3706 29.725 26.334C29.7636 26.3005 29.8005 26.2652 29.836 26.2286C29.8747 26.1949 29.9115 26.1597 29.9471 26.123C29.9857 26.0894 30.0226 26.0541 30.0581 26.0175C30.0967 25.9839 30.1336 25.9486 30.1691 25.912C30.2078 25.8784 30.2447 25.8431 30.2803 25.8065C30.3189 25.7729 30.3558 25.7376 30.3913 25.701C30.4299 25.6673 30.4668 25.6321 30.5023 25.5954C30.5409 25.5619 30.5778 25.5266 30.6133 25.4899C30.652 25.4564 30.6889 25.421 30.7244 25.3844C30.7631 25.3508 30.8 25.3155 30.8355 25.2788C30.8741 25.2453 30.911 25.21 30.9465 25.1733C30.9851 25.1398 31.0221 25.1045 31.0576 25.0678C31.0962 25.0343 31.1332 24.9989 31.1686 24.9623C31.2073 24.9287 31.2442 24.8934 31.2797 24.8568C31.3183 24.8232 31.3552 24.788 31.3907 24.7512C31.4293 24.7177 31.4663 24.6824 31.5018 24.6457C31.5404 24.6122 31.5774 24.5769 31.6128 24.5402C31.6515 24.5067 31.6884 24.4714 31.7239 24.4347C31.7625 24.4011 31.7994 24.3659 31.8349 24.3292C31.8735 24.2956 31.9105 24.2604 31.946 24.2237C31.9846 24.1901 32.0216 24.1548 32.057 24.1182C32.0956 24.0846 32.1326 24.0493 32.168 24.0126C32.2067 23.9791 32.2436 23.9438 32.2792 23.9071C32.3177 23.8735 32.3547 23.8383 32.3902 23.8016C32.4288 23.7681 32.4658 23.7328 32.5012 23.6961C32.5398 23.6625 32.5768 23.6272 32.6122 23.5905C32.6509 23.557 32.6878 23.5217 32.7233 23.485C32.7619 23.4515 32.7989 23.4163 32.8343 23.3795C32.8729 23.346 32.91 23.3107 32.9454 23.274C32.984 23.2405 33.021 23.2052 33.0564 23.1685C33.0951 23.1349 33.1321 23.0997 33.1675 23.0629C33.2061 23.0294 33.2431 22.9942 33.2786 22.9574C33.3171 22.9239 33.3542 22.8886 33.3896 22.8519C33.4282 22.8184 33.4653 22.7831 33.5006 22.7464C33.5393 22.7129 33.5763 22.6776 33.6116 22.6409C33.6503 22.6073 33.6873 22.5721 33.7228 22.5353C33.7614 22.5018 33.7984 22.4666 33.8338 22.4299C33.8724 22.3963 33.9094 22.361 33.9448 22.3243C33.9594 22.3117 33.9736 22.2987 33.9877 22.2856C33.9939 22.2904 34.0002 22.2951 34.0065 22.2999C34.0359 22.3251 34.0662 22.3494 34.0971 22.3727C34.1266 22.398 34.1568 22.4223 34.188 22.4457C34.2173 22.4709 34.2476 22.4952 34.2785 22.5185C34.3079 22.5438 34.3382 22.568 34.3693 22.5914C34.3986 22.6167 34.4289 22.641 34.46 22.6644C34.4894 22.6896 34.5196 22.7138 34.5506 22.7372C34.58 22.7625 34.6103 22.7868 34.6414 22.8102C34.6707 22.8354 34.701 22.8596 34.732 22.883C34.7614 22.9083 34.7917 22.9326 34.8227 22.9559C34.8521 22.9812 34.8823 23.0054 34.9134 23.0288C34.9428 23.0541 34.973 23.0783 35.0041 23.1017C35.0334 23.1269 35.0638 23.1512 35.0948 23.1746C35.1242 23.1999 35.1543 23.224 35.1855 23.2475C35.2148 23.2727 35.2452 23.297 35.2762 23.3204C35.3056 23.3456 35.3358 23.3699 35.3668 23.3932C35.3881 23.4116 35.4099 23.4294 35.4321 23.4468C35.4875 23.5055 35.547 23.5604 35.6104 23.611C35.6681 23.673 35.7304 23.7309 35.7969 23.7841C35.8546 23.846 35.9169 23.9038 35.9833 23.957C36.0411 24.019 36.1034 24.0768 36.1698 24.13C36.2275 24.1919 36.2898 24.2498 36.3563 24.3029C36.414 24.3649 36.4762 24.4227 36.5427 24.4758C36.6003 24.5377 36.6626 24.5955 36.729 24.6487C36.7867 24.7106 36.849 24.7684 36.9153 24.8216C36.9732 24.8835 37.0355 24.9413 37.1018 24.9945C37.1596 25.0564 37.2218 25.1141 37.2882 25.1674C37.346 25.2293 37.4083 25.287 37.4745 25.3403C37.5324 25.4021 37.5947 25.4599 37.6608 25.5132C37.7187 25.575 37.781 25.6328 37.8473 25.686C37.9051 25.7479 37.9674 25.8056 38.0337 25.8589C38.0915 25.9208 38.1538 25.9785 38.22 26.0318C38.2779 26.0936 38.3402 26.1513 38.4064 26.2047C38.4643 26.2665 38.5266 26.3242 38.5928 26.3776C38.6507 26.4394 38.713 26.4971 38.7792 26.5504C38.8371 26.6122 38.8994 26.67 38.9656 26.7234C39.0234 26.7851 39.0857 26.8428 39.152 26.8963C39.2098 26.9581 39.2721 27.0157 39.3384 27.0692C39.3962 27.1309 39.4586 27.1886 39.5247 27.242C39.5826 27.3038 39.645 27.3615 39.7112 27.415C39.7691 27.4768 39.8315 27.5344 39.8976 27.5879C39.9556 27.6497 40.0179 27.7074 40.0841 27.7609C40.142 27.8227 40.2045 27.8804 40.2706 27.9339C40.3285 27.9957 40.391 28.0533 40.457 28.1069C40.515 28.1686 40.5775 28.2263 40.6436 28.2798C40.7015 28.3415 40.7639 28.3992 40.83 28.4528C40.888 28.5145 40.9504 28.5722 41.0165 28.6258C41.0745 28.6875 41.1369 28.7452 41.203 28.7988C41.2609 28.8604 41.3234 28.9181 41.3894 28.9717C41.4475 29.0334 41.5099 29.0911 41.5759 29.1447C41.634 29.2064 41.6964 29.2641 41.7624 29.3177C41.8205 29.3793 41.8829 29.437 41.9489 29.4906C42.3018 29.8651 42.8094 30.1 43.3737 30.1C44.2261 30.1 44.9489 29.5639 45.2043 28.8207C45.303 28.5954 45.3578 28.3476 45.3578 28.0874C45.3578 28.0581 45.3568 28.029 45.3555 28.0001C45.3602 27.9463 45.3632 27.8921 45.3632 27.8372C45.3632 27.8079 45.3622 27.7789 45.3609 27.75C45.3657 27.6962 45.3686 27.6419 45.3686 27.5869C45.3686 27.5577 45.3677 27.5287 45.3664 27.4999C45.3711 27.446 45.374 27.3917 45.374 27.3366C45.374 27.3075 45.3731 27.2785 45.3718 27.2497C45.3765 27.1958 45.3795 27.1415 45.3795 27.0864C45.3795 27.0573 45.3785 27.0284 45.3772 26.9996C45.382 26.9456 45.3849 26.8912 45.3849 26.8361C45.3849 26.8071 45.384 26.7782 45.3827 26.7495C45.3873 26.6956 45.3903 26.6411 45.3903 26.5859C45.3903 26.5569 45.3894 26.5281 45.3881 26.4994C45.3928 26.4453 45.3957 26.3909 45.3957 26.3356C45.3957 26.3067 45.3948 26.2779 45.3935 26.2492C45.3983 26.1952 45.4012 26.1406 45.4012 26.0854C45.4012 26.0565 45.4003 26.0278 45.399 25.9991C45.4037 25.945 45.4066 25.8904 45.4066 25.8351C45.4066 25.8063 45.4057 25.7776 45.4044 25.749C45.4091 25.6949 45.4121 25.6403 45.4121 25.5849C45.4121 25.5561 45.4111 25.5275 45.4098 25.4989C45.4145 25.4447 45.4175 25.39 45.4175 25.3346C45.4175 25.3058 45.4165 25.2773 45.4153 25.2488C45.42 25.1946 45.4229 25.1398 45.4229 25.0844C45.4229 25.0556 45.422 25.0271 45.4207 24.9987C45.4254 24.9444 45.4283 24.8896 45.4283 24.8341C45.4283 24.8054 45.4274 24.7769 45.4261 24.7486C45.4308 24.6942 45.4338 24.6394 45.4338 24.5839C45.4338 24.5552 45.4328 24.5268 45.4316 24.4984C45.4362 24.4441 45.4393 24.3892 45.4393 24.3336C45.4393 24.305 45.4382 24.2766 45.437 24.2483C45.4417 24.1939 45.4446 24.1389 45.4446 24.0834C45.4446 24.0548 45.4437 24.0265 45.4424 23.9982C45.4471 23.9438 45.45 23.8888 45.45 23.8331C45.45 23.8046 45.4491 23.7763 45.4479 23.7481C45.4526 23.6936 45.4555 23.6386 45.4555 23.5829C45.4555 23.5544 45.4545 23.5262 45.4534 23.498C45.458 23.4434 45.461 23.3884 45.461 23.3326C45.461 23.3041 45.4599 23.276 45.4587 23.2478C45.4634 23.1932 45.4664 23.1381 45.4664 23.0823C45.4664 23.054 45.4654 23.0258 45.4641 22.9977C45.4688 22.9431 45.4718 22.888 45.4718 22.8321C45.4718 22.8038 45.4708 22.7757 45.4696 22.7477C45.4743 22.6929 45.4773 22.6378 45.4773 22.5819C45.4773 22.5536 45.4762 22.5255 45.475 22.4975C45.4797 22.4428 45.4826 22.3875 45.4826 22.3316C45.4826 22.3033 45.4816 22.2753 45.4805 22.2474C45.4851 22.1926 45.4881 22.1373 45.4881 22.0814C45.4881 22.0532 45.4871 22.0252 45.486 21.9973C45.4905 21.9425 45.4936 21.8871 45.4936 21.8311C45.4936 21.803 45.4925 21.7751 45.4914 21.7472C45.496 21.6923 45.499 21.6369 45.499 21.5809C45.499 21.5527 45.498 21.5249 45.4968 21.4971C45.5014 21.4421 45.5044 21.3867 45.5044 21.3306C45.5044 21.3025 45.5034 21.2747 45.5022 21.2469C45.5068 21.1919 45.5098 21.1365 45.5098 21.0803C45.5098 21.0524 45.5088 21.0246 45.5077 20.9968C45.5123 20.9418 45.5153 20.8863 45.5153 20.8301C45.5153 20.8021 45.5142 20.7744 45.5131 20.7467C45.5177 20.6916 45.5207 20.6361 45.5207 20.5799C45.5207 20.5519 45.5197 20.5242 45.5185 20.4966C45.5231 20.4415 45.5261 20.3859 45.5261 20.3296C45.5261 20.3017 45.5251 20.2741 45.524 20.2464C45.5286 20.1913 45.5316 20.1357 45.5316 20.0794C45.5316 20.0509 45.5305 20.0227 45.5294 19.9945Z" fill="#CED4E0"/>
</g>
<defs>
<clipPath id="clip0_1147_24977">
<rect width="80" height="80" fill="white"/>
</clipPath>
</defs>
</svg>
