<svg width="24" height="24" viewBox="0 0 24 24" fill="none" xmlns="http://www.w3.org/2000/svg">
<mask id="mask0_75_3266" style="mask-type:alpha" maskUnits="userSpaceOnUse" x="0" y="0" width="24" height="24">
<rect width="24" height="24" fill="#C4C4C4"/>
</mask>
<g mask="url(#mask0_75_3266)">
<path fill-rule="evenodd" clip-rule="evenodd" d="M12 22C17.5228 22 22 17.5228 22 12C22 6.47715 17.5228 2 12 2C6.47715 2 2 6.47715 2 12C2 17.5228 6.47715 22 12 22ZM6.52896 14.8952C6.40179 15.0664 6.59499 15.2911 6.78331 15.1911L10.3418 13.3013L13.5076 15.0598C13.7226 15.1792 13.9927 15.1245 14.1442 14.9307L17.4657 10.6833C17.5964 10.5162 17.4111 10.2873 17.2204 10.3803L13.881 12.0096L10.5471 10.2061C10.3285 10.0878 10.0561 10.1481 9.90787 10.3476L6.52896 14.8952Z" fill="white"/>
</g>
</svg>
