<svg width="18" height="18" viewBox="0 0 18 18" fill="none" xmlns="http://www.w3.org/2000/svg">
<path d="M11.9327 9.65998V12.74C11.9327 15.3067 10.906 16.3333 8.33935 16.3333H5.25935C2.69268 16.3333 1.66602 15.3067 1.66602 12.74V9.65998C1.66602 7.09332 2.69268 6.06665 5.25935 6.06665H8.33935C10.906 6.06665 11.9327 7.09332 11.9327 9.65998Z" stroke="#3772FF" stroke-width="2" stroke-linecap="round" stroke-linejoin="round"/>
<path d="M16.3331 5.26008V8.34008C16.3331 10.9067 15.3064 11.9334 12.7397 11.9334H11.9331V9.66008C11.9331 7.09341 10.9064 6.06675 8.33974 6.06675H6.06641V5.26008C6.06641 2.69341 7.09307 1.66675 9.65974 1.66675H12.7397C15.3064 1.66675 16.3331 2.69341 16.3331 5.26008Z" stroke="#3772FF" stroke-width="2" stroke-linecap="round" stroke-linejoin="round"/>
</svg>
