<svg width="24" height="24" viewBox="0 0 24 24" fill="none" xmlns="http://www.w3.org/2000/svg">
<path d="M16.4 12.99V17.61C16.4 21.46 14.86 23 11.01 23H6.39C2.54 23 1 21.46 1 17.61V12.99C1 9.14001 2.54 7.60001 6.39 7.60001H11.01C14.86 7.60001 16.4 9.14001 16.4 12.99Z" stroke="#777E90" stroke-width="2" stroke-linecap="round" stroke-linejoin="round"/>
<path d="M23 6.39V11.01C23 14.86 21.46 16.4 17.61 16.4H16.4V12.99C16.4 9.14 14.86 7.6 11.01 7.6H7.59998V6.39C7.59998 2.54 9.13998 1 12.99 1H17.61C21.46 1 23 2.54 23 6.39Z" stroke="#777E90" stroke-width="2" stroke-linecap="round" stroke-linejoin="round"/>
</svg>
