<svg width="24" height="24" viewBox="0 0 24 24" fill="none" xmlns="http://www.w3.org/2000/svg">
<mask id="mask0_1394_30586" style="mask-type:alpha" maskUnits="userSpaceOnUse" x="0" y="0" width="24" height="24">
<rect width="24" height="24" fill="white"/>
</mask>
<g mask="url(#mask0_1394_30586)">
<path d="M21.8148 0.453518C21.8826 0.287648 22.1174 0.287648 22.1852 0.453517L22.421 1.03117C22.5226 1.27997 22.72 1.47741 22.9688 1.57899L23.5465 1.81484C23.7124 1.88256 23.7124 2.11744 23.5465 2.18516L22.9688 2.42101C22.72 2.52259 22.5226 2.72003 22.421 2.96883L22.1852 3.54648C22.1174 3.71235 21.8826 3.71235 21.8148 3.54648L21.579 2.96883C21.4774 2.72003 21.28 2.52259 21.0312 2.42101L20.4535 2.18516C20.2876 2.11744 20.2876 1.88256 20.4535 1.81484L21.0312 1.57899C21.28 1.47741 21.4774 1.27997 21.579 1.03117L21.8148 0.453518Z" fill="black" fill-opacity="0.92"/>
<path d="M2.31484 19.4535C2.38256 19.2876 2.61744 19.2876 2.68516 19.4535L3.06596 20.3862C3.16754 20.635 3.36499 20.8325 3.61378 20.934L4.54648 21.3148C4.71235 21.3826 4.71235 21.6174 4.54648 21.6852L3.61378 22.066C3.36499 22.1675 3.16754 22.365 3.06596 22.6138L2.68516 23.5465C2.61744 23.7124 2.38256 23.7124 2.31484 23.5465L1.93404 22.6138C1.83246 22.365 1.63501 22.1675 1.38622 22.066L0.453518 21.6852C0.287648 21.6174 0.287648 21.3826 0.453518 21.3148L1.38622 20.934C1.63501 20.8325 1.83246 20.635 1.93404 20.3862L2.31484 19.4535Z" fill="black" fill-opacity="0.92"/>
<path d="M8.5 23H15.5" stroke="black" stroke-opacity="0.92" stroke-width="2" stroke-linecap="round"/>
<path fill-rule="evenodd" clip-rule="evenodd" d="M15.9422 17.5325C18.6516 16.1116 20.5 13.2716 20.5 10C20.5 5.30558 16.6944 1.5 12 1.5C7.30558 1.5 3.5 5.30558 3.5 10C3.5 13.2348 5.30698 16.0476 7.96662 17.484V19.8475H15.9422V17.5325Z" stroke="black" stroke-opacity="0.92" stroke-width="2" stroke-linecap="round" stroke-linejoin="round"/>
<path d="M11.6279 6.5L9.5 10.268H13.6519L11.6279 13.9113" stroke="black" stroke-opacity="0.92" stroke-width="2" stroke-linecap="round" stroke-linejoin="round"/>
</g>
</svg>
