<svg width="57" height="56" viewBox="0 0 57 56" fill="none" xmlns="http://www.w3.org/2000/svg">
<path fill-rule="evenodd" clip-rule="evenodd" d="M36.9125 9.5647C38.2292 9.5647 39.448 10.2526 40.1179 11.3742L48.7303 26.1525C49.3841 27.2936 49.3834 28.6908 48.7284 29.8312L40.1161 44.6041C39.4547 45.7371 38.2329 46.4353 36.9107 46.4353H19.686C18.3628 46.4388 17.1393 45.7398 16.4807 44.6041L7.86832 29.8312C7.2143 28.6962 7.2143 27.3038 7.86832 26.1688L16.4807 11.3959C17.1421 10.2629 18.3638 9.5647 19.686 9.5647H36.9125ZM28.2982 38.1405V40.6738L28.3019 40.6756C34.3992 40.6812 39.6557 36.4339 40.8697 30.5208C42.0836 24.6077 38.9186 18.6672 33.3025 16.3178C27.6865 13.9683 21.1753 15.861 17.7353 20.8428C14.2952 25.8246 14.8794 32.5153 19.1319 36.8395C19.1433 36.8621 19.1618 36.876 19.1775 36.8878C19.1844 36.893 19.1908 36.8978 19.1959 36.9028C19.235 36.9434 19.2778 36.9804 19.3239 37.0132C19.3484 37.0323 19.3755 37.0482 19.4043 37.0602C19.4488 37.0928 19.4974 37.1195 19.5488 37.1398C19.5634 37.1467 19.5785 37.1503 19.5936 37.1539C19.6105 37.1579 19.6274 37.162 19.6439 37.1706L19.7883 37.2176C19.8242 37.2298 19.862 37.2353 19.8999 37.2339C19.9248 37.2339 19.9492 37.2381 19.9734 37.2422C19.9972 37.2462 20.0208 37.2502 20.0443 37.2502C20.0593 37.2502 20.0772 37.2469 20.0968 37.2432C20.1204 37.2388 20.1463 37.2339 20.1723 37.2339C20.2004 37.2212 20.231 37.215 20.2619 37.2158L20.4064 37.1688C20.421 37.162 20.4361 37.1583 20.4511 37.1547C20.4681 37.1507 20.485 37.1466 20.5014 37.138C20.5575 37.1179 20.6109 37.0912 20.6605 37.0584C20.6684 37.0515 20.6796 37.0479 20.6909 37.0442C20.7033 37.0402 20.7159 37.0361 20.7245 37.0276C20.7999 36.9841 20.8693 36.9312 20.9311 36.8702L27.5504 30.479C27.7918 30.5608 28.0449 30.6036 28.3001 30.6057C29.7533 30.6057 30.9313 29.4399 30.9313 28.0018C30.9313 26.5637 29.7533 25.3979 28.3001 25.3979C26.8469 25.3979 25.6688 26.5637 25.6688 28.0018C25.668 28.2313 25.7 28.4598 25.7639 28.6804L23.8495 30.5279C23.3973 29.7588 23.1606 28.8843 23.1638 27.9946C23.1638 25.1892 25.4604 22.9143 28.2952 22.9117C31.13 22.909 33.431 25.1796 33.4364 27.9849C33.4418 30.7903 31.1495 33.0695 28.3147 33.0775V35.6108C32.5693 35.6108 36.0183 32.1976 36.0183 27.9873C36.0183 23.777 32.5693 20.3638 28.3147 20.3638C24.0601 20.3638 20.6111 23.777 20.6111 27.9873C20.6047 29.5403 21.0837 31.0572 21.9825 32.3301L20.1321 34.1143C18.7713 32.3576 18.0364 30.2045 18.0421 27.9909C18.0421 22.3855 22.6339 17.8414 28.2982 17.8414C33.9626 17.8414 38.5544 22.3855 38.5544 27.9909C38.5544 33.5964 33.9626 38.1405 28.2982 38.1405Z" fill="#006CFF"/>
</svg>
