<svg width="57" height="56" viewBox="0 0 57 56" fill="none" xmlns="http://www.w3.org/2000/svg">
<path d="M11.6951 23.5971H8.31633C7.48917 23.5971 6.69588 23.9257 6.11099 24.5106C5.5261 25.0955 5.19751 25.8888 5.19751 26.7159V29.9595C5.19751 30.7867 5.5261 31.58 6.11099 32.1649C6.69588 32.7497 7.48917 33.0783 8.31633 33.0783H14.8139V26.7159C14.8139 25.8888 14.4853 25.0955 13.9004 24.5106C13.3155 23.9257 12.5222 23.5971 11.6951 23.5971ZM12.7555 31.0823H8.22537C7.96985 31.0816 7.72499 30.9798 7.54431 30.7991C7.36363 30.6184 7.26182 30.3736 7.26113 30.1181V26.5548C7.26181 26.299 7.36354 26.0539 7.54415 25.8728C7.72475 25.6917 7.96961 25.5893 8.22537 25.588H11.7886C12.0446 25.5893 12.2897 25.6916 12.4708 25.8727C12.6518 26.0537 12.7541 26.2988 12.7555 26.5548V31.0823ZM23.9105 23.5971H20.5317C19.7046 23.5971 18.9113 23.9257 18.3264 24.5106C17.7415 25.0955 17.4129 25.8888 17.4129 26.7159V29.9595C17.4129 30.7867 17.7415 31.58 18.3264 32.1649C18.9113 32.7497 19.7046 33.0783 20.5317 33.0783H27.0293V26.7159C27.0293 25.8888 26.7007 25.0955 26.1158 24.5106C25.5309 23.9257 24.7376 23.5971 23.9105 23.5971ZM24.9709 31.0823H20.4408C20.1852 31.0816 19.9404 30.9798 19.7597 30.7991C19.579 30.6184 19.4772 30.3736 19.4765 30.1181V26.5548C19.4772 26.299 19.5789 26.0539 19.7595 25.8728C19.9401 25.6917 20.185 25.5893 20.4408 25.588H24.004C24.26 25.5893 24.5051 25.6916 24.6862 25.8727C24.8672 26.0537 24.9695 26.2988 24.9709 26.5548V31.0823ZM41.8437 26.7159V33.0783H48.3412C49.1684 33.0783 49.9617 32.7497 50.5466 32.1649C51.1315 31.58 51.4601 30.7867 51.4601 29.9595V26.7159C51.4601 25.8888 51.1315 25.0955 50.5466 24.5106C49.9617 23.9257 49.1684 23.5971 48.3412 23.5971H44.9625C44.1353 23.5971 43.3421 23.9257 42.7572 24.5106C42.1723 25.0955 41.8437 25.8888 41.8437 26.7159ZM43.9073 26.5574C43.908 26.3012 44.0101 26.0557 44.1912 25.8745C44.3724 25.6933 44.6179 25.5912 44.8741 25.5906H48.4348C48.691 25.5912 48.9365 25.6933 49.1177 25.8745C49.2989 26.0557 49.401 26.3012 49.4016 26.5574V30.1181C49.4009 30.374 49.2988 30.6193 49.1175 30.8C48.9363 30.9808 48.6908 31.0823 48.4348 31.0823H43.9073V26.5574ZM29.6283 26.7159V33.0783H36.1258C36.953 33.0783 37.7463 32.7497 38.3312 32.1649C38.9161 31.58 39.2447 30.7867 39.2447 29.9595V26.7159C39.2447 25.8888 38.9161 25.0955 38.3312 24.5106C37.7463 23.9257 36.953 23.5971 36.1258 23.5971H32.7471C31.92 23.5971 31.1267 23.9257 30.5418 24.5106C29.9569 25.0955 29.6283 25.8888 29.6283 26.7159ZM31.6919 26.5574C31.6926 26.3012 31.7947 26.0557 31.9759 25.8745C32.157 25.6933 32.4025 25.5912 32.6588 25.5906H36.2194C36.4756 25.5912 36.7211 25.6933 36.9023 25.8745C37.0835 26.0557 37.1856 26.3012 37.1862 26.5574V30.1181C37.1856 30.374 37.0834 30.6193 36.9021 30.8C36.7209 30.9808 36.4754 31.0823 36.2194 31.0823H31.6919V26.5574ZM14.8139 21.7778H12.7555V17.8793H14.8139V21.7778ZM31.6893 38.6714H29.6283V34.7729H31.6919L31.6893 38.6714ZM43.9047 38.6714H41.8437V34.7729H43.9073L43.9047 38.6714Z" fill="url(#paint0_linear_8927_159164)"/>
<defs>
<linearGradient id="paint0_linear_8927_159164" x1="5.19751" y1="28.2805" x2="51.4653" y2="28.2805" gradientUnits="userSpaceOnUse">
<stop stop-color="#EE0D9A"/>
<stop offset="1" stop-color="#5811F3"/>
</linearGradient>
</defs>
</svg>
