<svg width="74" height="33" viewBox="0 0 74 33" fill="none" xmlns="http://www.w3.org/2000/svg">
<path d="M10.3073 9.07046H4.94753C3.63536 9.07046 2.37694 9.59172 1.4491 10.5196C0.521256 11.4474 0 12.7058 0 14.018L0 19.1634C0 20.4756 0.521256 21.734 1.4491 22.6618C2.37694 23.5897 3.63536 24.1109 4.94753 24.1109H15.2549V14.018C15.2549 12.7058 14.7336 11.4474 13.8058 10.5196C12.8779 9.59172 11.6195 9.07046 10.3073 9.07046ZM11.9895 20.9445H4.80322C4.39788 20.9434 4.00945 20.7819 3.72283 20.4953C3.43621 20.2087 3.2747 19.8203 3.27361 19.4149V13.7624C3.2747 13.3566 3.43607 12.9678 3.72257 12.6805C4.00908 12.3932 4.3975 12.2308 4.80322 12.2286H10.4558C10.8619 12.2308 11.2507 12.3931 11.5379 12.6802C11.8251 12.9674 11.9873 13.3563 11.9895 13.7624V20.9445ZM29.6852 9.07046H24.3253C23.0132 9.07046 21.7547 9.59172 20.8269 10.5196C19.8991 11.4474 19.3778 12.7058 19.3778 14.018V19.1634C19.3778 20.4756 19.8991 21.734 20.8269 22.6618C21.7547 23.5897 23.0132 24.1109 24.3253 24.1109H34.6327V14.018C34.6327 12.7058 34.1114 11.4474 33.1836 10.5196C32.2557 9.59172 30.9973 9.07046 29.6852 9.07046ZM31.3673 20.9445H24.181C23.7757 20.9434 23.3873 20.7819 23.1006 20.4953C22.814 20.2087 22.6525 19.8203 22.6514 19.4149V13.7624C22.6525 13.3566 22.8139 12.9678 23.1004 12.6805C23.3869 12.3932 23.7753 12.2308 24.181 12.2286H29.8336C30.2397 12.2308 30.6285 12.3931 30.9157 12.6802C31.2029 12.9674 31.3652 13.3563 31.3673 13.7624V20.9445ZM58.1334 14.018V24.1109H68.4408C69.7529 24.1109 71.0114 23.5897 71.9392 22.6618C72.867 21.734 73.3883 20.4756 73.3883 19.1634V14.018C73.3883 12.7058 72.867 11.4474 71.9392 10.5196C71.0114 9.59172 69.7529 9.07046 68.4408 9.07046H63.081C61.7688 9.07046 60.5104 9.59172 59.5825 10.5196C58.6547 11.4474 58.1334 12.7058 58.1334 14.018ZM61.407 13.7665C61.4081 13.3601 61.5701 12.9706 61.8575 12.6832C62.1449 12.3958 62.5343 12.2338 62.9408 12.2328H68.5892C68.9956 12.2338 69.3851 12.3958 69.6725 12.6832C69.9599 12.9706 70.1219 13.3601 70.1229 13.7665V19.4149C70.1218 19.821 69.9598 20.21 69.6723 20.4968C69.3848 20.7835 68.9953 20.9445 68.5892 20.9445H61.407V13.7665ZM38.7556 14.018V24.1109H49.063C50.3751 24.1109 51.6336 23.5897 52.5614 22.6618C53.4892 21.734 54.0105 20.4756 54.0105 19.1634V14.018C54.0105 12.7058 53.4892 11.4474 52.5614 10.5196C51.6336 9.59172 50.3751 9.07046 49.063 9.07046H43.7031C42.391 9.07046 41.1326 9.59172 40.2047 10.5196C39.2769 11.4474 38.7556 12.7058 38.7556 14.018ZM42.0292 13.7665C42.0303 13.3601 42.1923 12.9706 42.4797 12.6832C42.7671 12.3958 43.1565 12.2338 43.563 12.2328H49.2114C49.6178 12.2338 50.0073 12.3958 50.2947 12.6832C50.5821 12.9706 50.744 13.3601 50.7451 13.7665V19.4149C50.744 19.821 50.582 20.21 50.2945 20.4968C50.0069 20.7835 49.6175 20.9445 49.2114 20.9445H42.0292V13.7665ZM15.2549 6.18441H11.9895V0H15.2549V6.18441ZM42.0251 32.9835H38.7556V26.7991H42.0292L42.0251 32.9835ZM61.4029 32.9835H58.1334V26.7991H61.407L61.4029 32.9835Z" fill="url(#paint0_linear_7804_146103)"/>
<defs>
<linearGradient id="paint0_linear_7804_146103" x1="0" y1="16.5" x2="73.3966" y2="16.5" gradientUnits="userSpaceOnUse">
<stop stop-color="#EE0D9A"/>
<stop offset="1" stop-color="#5811F3"/>
</linearGradient>
</defs>
</svg>
