<svg width="55" height="48" viewBox="0 0 55 48" fill="none" xmlns="http://www.w3.org/2000/svg">
<path fill-rule="evenodd" clip-rule="evenodd" d="M38.7644 0.19043C40.4649 0.19043 42.0391 1.07881 42.9043 2.52744L54.0275 21.6138C54.872 23.0875 54.8711 24.8921 54.0252 26.365L42.902 45.4444C42.0477 46.9076 40.4698 47.8094 38.7621 47.8094H16.5157C14.8067 47.8139 13.2265 46.9112 12.3758 45.4444L1.25257 26.365C0.407874 24.8991 0.407874 23.1008 1.25257 21.6349L12.3758 2.55549C13.23 1.09222 14.808 0.19043 16.5157 0.19043H38.7644ZM27.639 37.0965V40.3683L27.6437 40.3707C35.5186 40.3779 42.3077 34.8924 43.8756 27.2555C45.4434 19.6187 41.3557 11.9464 34.1023 8.9121C26.8489 5.8778 18.4394 8.32217 13.9965 14.7563C9.5535 21.1904 10.3079 29.8315 15.8002 35.4162C15.815 35.4454 15.8389 35.4634 15.8592 35.4786C15.8681 35.4854 15.8764 35.4916 15.8829 35.498C15.9334 35.5505 15.9887 35.5982 16.0482 35.6406C16.0799 35.6653 16.1149 35.6858 16.1521 35.7013C16.2096 35.7433 16.2723 35.7779 16.3387 35.8041C16.3576 35.813 16.3771 35.8176 16.3965 35.8223C16.4184 35.8275 16.4403 35.8328 16.4615 35.8439L16.648 35.9046C16.6944 35.9203 16.7432 35.9274 16.7921 35.9257C16.8243 35.9257 16.8559 35.931 16.8871 35.9363C16.9178 35.9415 16.9483 35.9467 16.9787 35.9467C16.998 35.9467 17.0212 35.9424 17.0465 35.9376C17.077 35.9319 17.1105 35.9257 17.144 35.9257C17.1803 35.9093 17.2198 35.9013 17.2597 35.9023L17.4463 35.8415C17.4652 35.8327 17.4846 35.8281 17.5041 35.8234C17.526 35.8182 17.5479 35.8129 17.5691 35.8018C17.6415 35.7758 17.7105 35.7413 17.7745 35.699C17.7847 35.6901 17.7991 35.6854 17.8138 35.6807C17.8298 35.6755 17.8461 35.6702 17.8572 35.6592C17.9545 35.603 18.0442 35.5347 18.1241 35.4559L26.6731 27.2016C26.9849 27.3072 27.3118 27.3624 27.6414 27.3652C29.5182 27.3652 31.0397 25.8595 31.0397 24.0022C31.0397 22.1449 29.5182 20.6393 27.6414 20.6393C25.7645 20.6393 24.243 22.1449 24.243 24.0022C24.2419 24.2986 24.2833 24.5937 24.3658 24.8786L21.8932 27.2647C21.3093 26.2714 21.0035 25.142 21.0076 23.9929C21.0076 20.3697 23.9738 17.4317 27.6351 17.4282C31.2963 17.4248 34.2682 20.3573 34.2751 23.9804C34.2821 27.6036 31.3215 30.5472 27.6602 30.5575V33.8294C33.1552 33.8294 37.6097 29.4212 37.6097 23.9835C37.6097 18.5458 33.1552 14.1377 27.6602 14.1377C22.1653 14.1377 17.7108 18.5458 17.7108 23.9835C17.7024 25.9892 18.3211 27.9483 19.482 29.5924L17.092 31.8967C15.3345 29.6278 14.3853 26.847 14.3927 23.9882C14.3927 16.7487 20.3233 10.8799 27.639 10.8799C34.9547 10.8799 40.8853 16.7487 40.8853 23.9882C40.8853 31.2277 34.9547 37.0965 27.639 37.0965Z" fill="#006CFF"/>
</svg>
