<svg width="24" height="24" viewBox="0 0 24 24" fill="none" xmlns="http://www.w3.org/2000/svg">
<path d="M14.7393 11.2693H17.7459" stroke="black" stroke-opacity="0.92" stroke-width="2" stroke-linecap="round" stroke-linejoin="round"/>
<circle cx="7.06504" cy="21.564" r="1.4" fill="black" fill-opacity="0.92"/>
<circle cx="19.4503" cy="21.564" r="1.4" fill="black" fill-opacity="0.92"/>
<path d="M2.27821 2.12328C1.76725 1.91367 1.18311 2.15797 0.973502 2.66893C0.763894 3.1799 1.00819 3.76403 1.51915 3.97364L2.27821 2.12328ZM4.22681 4.00351L5.22162 3.90182C5.18411 3.53485 4.94762 3.21833 4.60634 3.07833L4.22681 4.00351ZM5.18177 6.04775C4.62948 6.04775 4.18177 6.49547 4.18177 7.04775C4.18177 7.60004 4.62948 8.04775 5.18177 8.04775V6.04775ZM22.46 9.42042L21.4775 9.23409L22.46 9.42042ZM21.4031 14.993L20.4206 14.8066L21.4031 14.993ZM1.51915 3.97364L3.84728 4.92869L4.60634 3.07833L2.27821 2.12328L1.51915 3.97364ZM3.23199 4.1052L4.32932 14.8407L6.31896 14.6373L5.22162 3.90182L3.23199 4.1052ZM8.30859 18.434H18.4556V16.434H8.30859V18.434ZM22.3856 15.1793L23.4424 9.60675L21.4775 9.23409L20.4206 14.8066L22.3856 15.1793ZM20.495 6.04775H5.18177V8.04775H20.495V6.04775ZM23.4424 9.60675C23.7929 7.75874 22.3759 6.04775 20.495 6.04775V8.04775C21.122 8.04775 21.5943 8.61808 21.4775 9.23409L23.4424 9.60675ZM18.4556 18.434C20.3774 18.434 22.0275 17.0674 22.3856 15.1793L20.4206 14.8066C20.2416 15.7507 19.4165 16.434 18.4556 16.434V18.434ZM4.32932 14.8407C4.53795 16.8817 6.25694 18.434 8.30859 18.434V16.434C7.28277 16.434 6.42327 15.6578 6.31896 14.6373L4.32932 14.8407Z" fill="black" fill-opacity="0.92"/>
</svg>
