<svg width="48" height="48" viewBox="0 0 48 48" fill="none" xmlns="http://www.w3.org/2000/svg">
<path fill-rule="evenodd" clip-rule="evenodd" d="M24 48C37.2548 48 48 37.2548 48 24C48 10.7452 37.2548 0 24 0C10.7452 0 0 10.7452 0 24C0 37.2548 10.7452 48 24 48ZM21.792 14.4C21.096 13.68 19.968 13.68 19.248 14.4C18.552 15.096 18.552 16.248 19.272 16.944L26.352 24L19.272 31.056C18.552 31.752 18.552 32.88 19.248 33.6C19.608 33.96 20.064 34.128 20.544 34.128C21 34.128 21.456 33.96 21.792 33.6L30.168 25.272C30.504 24.936 30.696 24.48 30.696 24C30.696 23.52 30.504 23.064 30.168 22.728L21.792 14.4Z" fill="black" fill-opacity="0.16"/>
</svg>
