<svg width="48" height="48" viewBox="0 0 48 48" fill="none" xmlns="http://www.w3.org/2000/svg">
<path fill-rule="evenodd" clip-rule="evenodd" d="M24 48C10.7452 48 0 37.2548 0 24C0 10.7452 10.7452 0 24 0C37.2548 0 48 10.7452 48 24C48 37.2548 37.2548 48 24 48ZM26.208 14.4C26.904 13.68 28.032 13.68 28.752 14.4C29.448 15.096 29.448 16.248 28.728 16.944L21.648 24L28.728 31.056C29.448 31.752 29.448 32.88 28.752 33.6C28.392 33.96 27.936 34.128 27.456 34.128C27 34.128 26.544 33.96 26.208 33.6L17.832 25.272C17.496 24.936 17.304 24.48 17.304 24C17.304 23.52 17.496 23.064 17.832 22.728L26.208 14.4Z" fill="white" fill-opacity="0.16"/>
</svg>
