<svg width="24" height="24" viewBox="0 0 24 24" fill="none" xmlns="http://www.w3.org/2000/svg">
<mask id="mask0_37_1690" style="mask-type:alpha" maskUnits="userSpaceOnUse" x="0" y="0" width="24" height="24">
<rect width="24" height="24" fill="white"/>
</mask>
<g mask="url(#mask0_37_1690)">
<path fill-rule="evenodd" clip-rule="evenodd" d="M13.7168 5.16116C13.6996 5.21206 14.0858 5.34404 14.4717 5.47592L14.4717 5.47592C14.8559 5.60721 15.2397 5.7384 15.2249 5.78937C15.2136 5.82857 14.8023 5.78732 14.391 5.74606C13.9789 5.70472 13.5669 5.66338 13.5571 5.70298C13.0184 5.65375 12.4777 5.6289 11.9367 5.62849C11.5801 5.62849 11.0046 5.64023 10.3163 5.70298C10.2562 5.70298 10.0082 5.75134 9.72188 5.8072L9.72186 5.8072C9.25073 5.89909 8.67558 6.01128 8.66127 5.9618C8.64669 5.91137 9.02795 5.73681 9.40923 5.56224C9.79163 5.38715 10.1741 5.21206 10.1572 5.16218C9.78479 4.06186 8.64938 3.4129 7.51231 3.65047C6.38478 3.88873 4.7746 4.35148 3.50473 5.38207C3.49106 5.39334 3.47779 5.40508 3.46493 5.41727C3.06392 5.79125 2.78739 6.29583 2.44607 7.00755C2.10526 7.71927 1.75119 8.61467 1.42568 9.63506C0.775185 11.6763 0.23999 14.2151 0.23999 16.7314C0.240149 16.863 0.274239 16.9923 0.338968 17.1069C1.53538 19.2303 4.13329 20.0354 5.72459 20.3563C6.60506 20.5305 7.50621 20.175 8.03067 19.4466C8.03067 19.4466 5.59652 18.186 5.72459 18.0083C5.80672 17.8943 8.66127 18.5716 8.66127 18.5716C9.60411 18.7691 10.6954 18.8997 11.9367 18.8997C13.178 18.8997 14.2693 18.7691 15.2122 18.5716C15.2122 18.5716 17.8532 17.8598 17.9602 18.0083C18.0126 18.081 17.6128 18.3778 16.7609 18.8986C16.4977 19.0596 15.8418 19.4456 15.8418 19.4456C16.3664 20.1743 17.2681 20.5299 18.1489 20.3553C19.7402 20.0344 22.3371 19.2293 23.5335 17.1053C23.5981 16.9909 23.6322 16.8618 23.6324 16.7303C23.6324 14.2141 23.0983 11.6753 22.4478 9.63404C22.1223 8.61365 21.7672 7.71825 21.4264 7.00653C21.0845 6.29481 20.8085 5.79023 20.408 5.41625C20.395 5.40405 20.3815 5.39231 20.3677 5.38105C19.0983 4.35046 17.4882 3.88771 16.3601 3.64945C16.2218 3.62009 16.0811 3.60369 15.9397 3.60047C14.9375 3.57978 14.0377 4.21152 13.7168 5.16116ZM6.87049 13.2569C6.87049 14.3728 7.66197 15.2773 8.63831 15.2773C9.2699 15.2773 9.8535 14.8922 10.1693 14.2671C10.4851 13.642 10.4851 12.8719 10.1693 12.2467C9.8535 11.6216 9.2699 11.2366 8.63831 11.2366C7.66197 11.2366 6.87049 12.1411 6.87049 13.2569ZM15.2249 15.3181C14.2387 15.3181 13.4392 14.4044 13.4392 13.2773C13.4392 12.1502 14.2387 11.2366 15.2249 11.2366C16.2111 11.2366 17.0106 12.1502 17.0106 13.2773C17.0106 14.4044 16.2111 15.3181 15.2249 15.3181Z" fill="#777E90"/>
</g>
</svg>
