<svg width="24" height="24" viewBox="0 0 24 24" fill="none" xmlns="http://www.w3.org/2000/svg">
<mask id="mask0_37_1699" style="mask-type:alpha" maskUnits="userSpaceOnUse" x="0" y="0" width="24" height="24">
<rect width="24" height="24" fill="white"/>
</mask>
<g mask="url(#mask0_37_1699)">
<path fill-rule="evenodd" clip-rule="evenodd" d="M13.7168 5.16119C13.6996 5.21209 14.0858 5.34407 14.4717 5.47595L14.4717 5.47595C14.8559 5.60724 15.2397 5.73843 15.2249 5.7894C15.2136 5.8286 14.8023 5.78735 14.391 5.74609C13.9789 5.70475 13.5669 5.66341 13.5571 5.70301C13.0184 5.65378 12.4777 5.62893 11.9367 5.62853C11.5801 5.62853 11.0046 5.64026 10.3163 5.70301C10.2562 5.70301 10.0082 5.75137 9.72188 5.80723L9.72186 5.80723C9.25073 5.89912 8.67558 6.01131 8.66127 5.96183C8.64669 5.9114 9.02795 5.73684 9.40923 5.56227C9.79163 5.38718 10.1741 5.21209 10.1572 5.16221C9.78479 4.06189 8.64938 3.41293 7.51231 3.6505C6.38478 3.88876 4.7746 4.35151 3.50473 5.3821C3.49106 5.39337 3.47779 5.40511 3.46493 5.4173C3.06392 5.79128 2.78739 6.29586 2.44607 7.00758C2.10526 7.71931 1.75119 8.6147 1.42568 9.63509C0.775185 11.6764 0.23999 14.2151 0.23999 16.7314C0.240149 16.863 0.274239 16.9923 0.338968 17.1069C1.53538 19.2303 4.13329 20.0354 5.72459 20.3563C6.60506 20.5305 7.50621 20.175 8.03067 19.4467C8.03067 19.4467 5.59652 18.186 5.72459 18.0083C5.80672 17.8943 8.66127 18.5717 8.66127 18.5717C9.60411 18.7691 10.6954 18.8997 11.9367 18.8997C13.178 18.8997 14.2693 18.7691 15.2122 18.5717C15.2122 18.5717 17.8532 17.8598 17.9602 18.0083C18.0126 18.081 17.6128 18.3778 16.7609 18.8987C16.4977 19.0596 15.8418 19.4456 15.8418 19.4456C16.3664 20.1744 17.2681 20.5299 18.1489 20.3553C19.7402 20.0344 22.3371 19.2293 23.5335 17.1054C23.5981 16.9909 23.6322 16.8618 23.6324 16.7304C23.6324 14.2141 23.0983 11.6754 22.4478 9.63407C22.1223 8.61368 21.7672 7.71829 21.4264 7.00656C21.0845 6.29484 20.8085 5.79026 20.408 5.41628C20.395 5.40408 20.3815 5.39234 20.3677 5.38108C19.0983 4.35049 17.4882 3.88774 16.3601 3.64948C16.2218 3.62012 16.0811 3.60372 15.9397 3.6005C14.9375 3.57981 14.0377 4.21155 13.7168 5.16119ZM6.87049 13.257C6.87049 14.3728 7.66197 15.2773 8.63831 15.2773C9.2699 15.2773 9.8535 14.8923 10.1693 14.2671C10.4851 13.642 10.4851 12.8719 10.1693 12.2468C9.8535 11.6217 9.2699 11.2366 8.63831 11.2366C7.66197 11.2366 6.87049 12.1411 6.87049 13.257ZM15.2249 15.3182C14.2387 15.3182 13.4392 14.4045 13.4392 13.2774C13.4392 12.1503 14.2387 11.2366 15.2249 11.2366C16.2111 11.2366 17.0106 12.1503 17.0106 13.2774C17.0106 14.4045 16.2111 15.3182 15.2249 15.3182Z" fill="black"/>
</g>
</svg>
