<svg width="24" height="24" viewBox="0 0 24 24" fill="none" xmlns="http://www.w3.org/2000/svg">
<path d="M1.5 10.5158C1.5 9.31875 2.03608 8.18465 2.96104 7.42486L9.46104 2.08557C10.9367 0.873445 13.0633 0.873446 14.539 2.08557L21.039 7.42486C21.9639 8.18465 22.5 9.31875 22.5 10.5158V19C22.5 21.2091 20.7091 23 18.5 23H17.2439C16.1393 23 15.2439 22.1046 15.2439 21V18.553C15.2439 17.4485 14.3485 16.553 13.2439 16.553H11.0122C9.90763 16.553 9.01219 17.4485 9.01219 18.553V21C9.01219 22.1046 8.11676 23 7.01219 23H5.5C3.29086 23 1.5 21.2091 1.5 19V10.5158Z" stroke="white" stroke-opacity="0.92" stroke-width="2"/>
</svg>
