<svg width="24" height="24" viewBox="0 0 24 24" fill="none" xmlns="http://www.w3.org/2000/svg">
<path d="M20.25 21.1667H3.75C3.37417 21.1667 3.0625 20.855 3.0625 20.4792C3.0625 20.1034 3.37417 19.7917 3.75 19.7917H20.25C20.6258 19.7917 20.9375 20.1034 20.9375 20.4792C20.9375 20.855 20.6258 21.1667 20.25 21.1667Z" fill="white"/>
<path d="M18.4349 4.18998C16.6566 2.41165 14.9149 2.36581 13.0907 4.18998L11.9816 5.29915C11.8899 5.39081 11.8532 5.53748 11.8899 5.66581C12.5866 8.09498 14.5299 10.0383 16.9591 10.735C16.9957 10.7441 17.0324 10.7533 17.0691 10.7533C17.1699 10.7533 17.2616 10.7166 17.3349 10.6433L18.4349 9.53415C19.3424 8.63582 19.7824 7.76498 19.7824 6.88498C19.7916 5.97748 19.3516 5.09748 18.4349 4.18998Z" fill="white"/>
<path d="M15.3092 11.5691C15.0433 11.4408 14.7867 11.3124 14.5392 11.1658C14.3375 11.0466 14.145 10.9183 13.9525 10.7808C13.7967 10.6799 13.6133 10.5333 13.4392 10.3866C13.4208 10.3774 13.3567 10.3224 13.2833 10.2491C12.9808 9.99244 12.6417 9.66244 12.3392 9.29578C12.3117 9.27744 12.2658 9.21328 12.2017 9.13078C12.11 9.02078 11.9542 8.83744 11.8167 8.62661C11.7067 8.48911 11.5783 8.28744 11.4592 8.08578C11.3125 7.83828 11.1842 7.59078 11.0558 7.33411C11.0457 7.31243 11.0358 7.2908 11.026 7.26924C10.8753 6.9373 10.4412 6.83955 10.1835 7.09731L4.97832 12.3024C4.85915 12.4216 4.74915 12.6508 4.72165 12.8066L4.22665 16.3174C4.13499 16.9408 4.13412 17.834 4.49227 18.1906C4.85041 18.5472 5.70248 18.4899 6.30748 18.3891L9.82749 17.8941C9.99249 17.8666 10.2217 17.7566 10.3317 17.6374L15.5296 12.4395C15.7892 12.1799 15.6915 11.7338 15.3544 11.5886C15.3394 11.5822 15.3243 11.5757 15.3092 11.5691Z" fill="white"/>
</svg>
