<svg width="24" height="24" viewBox="0 0 24 24" fill="none" xmlns="http://www.w3.org/2000/svg">
<g clip-path="url(#clip0_1274_25539)">
<path d="M22.5069 24H0.900277C0.408126 24 0 23.5919 0 23.0997C0 22.6076 0.408126 22.1995 0.900277 22.1995H22.5069C22.9991 22.1995 23.4072 22.6076 23.4072 23.0997C23.4072 23.5919 22.9991 24 22.5069 24Z" fill="white"/>
<path d="M20.1301 1.76912C17.8013 -0.559601 15.5206 -0.619619 13.1319 1.76912L11.6795 3.22156C11.5594 3.3416 11.5114 3.53366 11.5594 3.70171C12.4717 6.88269 15.0165 9.42748 18.1975 10.3398C18.2455 10.3518 18.2935 10.3638 18.3415 10.3638C18.4735 10.3638 18.5936 10.3158 18.6896 10.2197L20.1301 8.76727C21.3184 7.59091 21.8946 6.45056 21.8946 5.2982C21.9066 4.10984 21.3304 2.95748 20.1301 1.76912Z" fill="white"/>
<path d="M16.0369 11.432C15.6888 11.264 15.3527 11.0959 15.0286 10.9039C14.7645 10.7478 14.5124 10.5798 14.2604 10.3997C14.0563 10.2677 13.8162 10.0756 13.5882 9.88355C13.5642 9.87155 13.4801 9.79953 13.3841 9.7035C12.988 9.3674 12.5438 8.93526 12.1477 8.45511C12.1117 8.43111 12.0517 8.34708 11.9677 8.23905C11.8476 8.095 11.6436 7.85493 11.4635 7.57884C11.3195 7.39879 11.1514 7.13471 10.9954 6.87063C10.8033 6.54653 10.6353 6.22243 10.4672 5.88632C10.4191 5.78324 10.3739 5.68114 10.3312 5.58031C10.1888 5.24472 9.7533 5.14778 9.49554 5.40553L2.50875 12.3923C2.3527 12.5484 2.20866 12.8485 2.17264 13.0525L1.52445 17.6499C1.40441 18.4662 1.40328 19.6359 1.87227 20.1029C2.34126 20.5699 3.45704 20.4948 4.24928 20.3628L8.85871 19.7146C9.07477 19.6786 9.37487 19.5345 9.51891 19.3785L16.4985 12.3988C16.7581 12.1393 16.6598 11.6949 16.3212 11.5532C16.2284 11.5144 16.134 11.4741 16.0369 11.432Z" fill="white"/>
</g>
<defs>
<clipPath id="clip0_1274_25539">
<rect width="24" height="24" fill="white"/>
</clipPath>
</defs>
</svg>
