<svg width="16" height="16" viewBox="0 0 16 16" fill="none" xmlns="http://www.w3.org/2000/svg">
<path d="M14.3193 3.86161L12.3267 1.86902C11.7079 1.25017 11.1772 1.28057 10.4801 1.9776L8.70905 3.74869C8.01201 4.44572 7.98162 4.97646 8.60046 5.5953L10.5887 7.5835C11.2119 8.20674 11.7382 8.17195 12.4353 7.47492L14.2064 5.70383C14.9078 5.01119 14.9382 4.48045 14.3193 3.86161Z" fill="#3772FF"/>
<path d="M13.9276 12.7849V10.2817C13.9276 9.29654 13.531 8.89999 12.5458 8.89999H10.0426C9.05744 8.89999 8.66089 9.29654 8.66089 10.2817V12.7849C8.66089 13.7701 9.05744 14.1667 10.0426 14.1667H12.5458C13.531 14.1667 13.9276 13.7701 13.9276 12.7849Z" fill="#3772FF"/>
<path d="M7.26667 6.27907V3.46605C7.26667 2.5924 6.87012 2.23923 5.88494 2.23923H3.38173C2.39655 2.23923 2 2.5924 2 3.46605V6.27287C2 7.15272 2.39655 7.4997 3.38173 7.4997H5.88494C6.87012 7.50589 7.26667 7.15272 7.26667 6.27907Z" fill="#3772FF"/>
<path d="M7.26667 12.7849V10.2817C7.26667 9.29654 6.87012 8.89999 5.88494 8.89999H3.38173C2.39655 8.89999 2 9.29654 2 10.2817V12.7849C2 13.7701 2.39655 14.1667 3.38173 14.1667H5.88494C6.87012 14.1667 7.26667 13.7701 7.26667 12.7849Z" fill="#3772FF"/>
</svg>
