<svg width="24" height="24" viewBox="0 0 24 24" fill="none" xmlns="http://www.w3.org/2000/svg">
<mask id="mask0_875_12882" style="mask-type:alpha" maskUnits="userSpaceOnUse" x="0" y="0" width="24" height="24">
<path d="M24 0L0 0L0 24H24V0Z" fill="black" fill-opacity="0.85"/>
</mask>
<g mask="url(#mask0_875_12882)">
<path d="M5.62498 2.62508C3.96814 2.62509 2.625 3.96823 2.625 5.62508V18.375C2.625 20.0319 3.96815 21.375 5.625 21.375H12.6369V14.1142H10.1924V11.2829H12.6369V9.19698C12.6369 6.77589 14.1158 5.45636 16.2768 5.45636C17.3127 5.45636 18.201 5.5337 18.4611 5.56886V8.09777H16.9611C15.7869 8.09777 15.5596 8.65558 15.5596 9.47589V11.2829H18.3627L17.9971 14.1118H15.5596V21.375H18.375C20.0319 21.375 21.375 20.0319 21.375 18.375V5.62501C21.375 3.96815 20.0318 2.62501 18.375 2.62501L5.62498 2.62508Z" fill="black"/>
</g>
</svg>
