<svg width="32" height="32" viewBox="0 0 32 32" fill="none" xmlns="http://www.w3.org/2000/svg">
<circle cx="16" cy="16" r="14.1176" stroke="black" stroke-opacity="0.92" stroke-width="3"/>
<path fill-rule="evenodd" clip-rule="evenodd" d="M16 6.99555C16.8284 6.9931 17.502 7.66268 17.5044 8.4911L17.5063 9.11597C17.9799 9.27292 18.4111 9.48376 18.7815 9.70229C19.5326 10.1454 20.1752 10.7038 20.5789 11.1911C21.1074 11.8291 21.0187 12.7747 20.3808 13.3032C19.7428 13.8317 18.7972 13.743 18.2687 13.105C18.1061 12.9088 17.7376 12.5696 17.2571 12.2861C16.7717 11.9997 16.3126 11.853 15.953 11.853C15.516 11.853 15.0202 12.0271 14.647 12.3105C14.253 12.6098 14.2134 12.8471 14.2134 12.8793C14.2134 13.3094 14.3042 13.5901 14.5444 13.8845C14.8337 14.239 15.4142 14.6988 16.5993 15.2647C17.7593 15.8186 18.8029 16.4044 19.564 17.1166C20.3767 17.8772 20.9238 18.8395 20.9238 20.054C20.9238 21.2012 20.2873 22.2502 19.4448 22.9651C18.9105 23.4185 18.2515 23.7788 17.4999 23.9909L17.4999 24.5001C17.4999 25.3285 16.8283 26.0001 15.9999 26C15.1714 26 14.4999 25.3284 14.4999 24.5L14.4999 24.0171C12.6771 23.5441 11.4515 22.2725 10.9698 21.5155C10.525 20.8166 10.7311 19.8895 11.43 19.4447C12.1289 19 13.056 19.206 13.5008 19.9049C13.754 20.3028 14.6805 21.2016 15.953 21.2016C16.644 21.2016 17.1681 20.9625 17.5037 20.6777C17.8727 20.3646 17.9238 20.0898 17.9238 20.054C17.9238 19.8538 17.8697 19.6398 17.5141 19.307C17.1069 18.9259 16.4151 18.5012 15.3066 17.9719C13.9558 17.3269 12.9165 16.6347 12.2201 15.7812C11.4745 14.8675 11.2134 13.8842 11.2134 12.8793C11.2134 11.5776 12.0026 10.5517 12.8327 9.92134C13.3175 9.55317 13.8908 9.25779 14.5061 9.07172L14.5044 8.49999C14.502 7.67157 15.1716 6.99801 16 6.99555Z" fill="black" fill-opacity="0.92"/>
</svg>
