<svg width="16" height="13" viewBox="0 0 16 13" fill="none" xmlns="http://www.w3.org/2000/svg">
<path fill-rule="evenodd" clip-rule="evenodd" d="M0.5 4.45449C0.5 2.21423 2.52478 0.5 4.892 0.5C6.10027 0.5 7.20217 0.940434 8.00019 1.66545C8.79979 0.940228 9.90605 0.5 11.108 0.5C13.4752 0.5 15.5 2.21423 15.5 4.45449C15.5 6.80697 14.2641 8.65104 12.8137 9.96301C11.3674 11.2712 9.66035 12.0966 8.58034 12.4225C8.39826 12.4788 8.18784 12.5 8 12.5C7.81215 12.5 7.60172 12.4788 7.41964 12.4225C6.33963 12.0966 4.63257 11.2712 3.18634 9.96301C1.7359 8.65104 0.5 6.80697 0.5 4.45449Z" fill="#F56565"/>
</svg>
