<svg width="24" height="24" viewBox="0 0 24 24" fill="none" xmlns="http://www.w3.org/2000/svg">
<path d="M12 22H7C3 22 2 21 2 17V7C2 3 3 2 7 2H8.5C10 2 10.33 2.44 10.9 3.2L12.4 5.2C12.78 5.7 13 6 14 6H17C21 6 22 7 22 11V12" stroke="white" stroke-opacity="0.92" stroke-width="2" stroke-miterlimit="10" stroke-linecap="round"/>
<path d="M18.2 21.4C19.9673 21.4 21.4 19.9673 21.4 18.2C21.4 16.4327 19.9673 15 18.2 15C16.4327 15 15 16.4327 15 18.2C15 19.9673 16.4327 21.4 18.2 21.4Z" stroke="white" stroke-opacity="0.92" stroke-width="2" stroke-linecap="round" stroke-linejoin="round"/>
<path d="M22 22L21 21" stroke="white" stroke-opacity="0.92" stroke-width="2" stroke-linecap="round" stroke-linejoin="round"/>
</svg>
