<svg width="24" height="24" viewBox="0 0 24 24" fill="none" xmlns="http://www.w3.org/2000/svg">
<mask id="mask0_875_12881" style="mask-type:alpha" maskUnits="userSpaceOnUse" x="0" y="0" width="24" height="24">
<path d="M24 0L0 0L0 24H24V0Z" fill="black" fill-opacity="0.85"/>
</mask>
<g mask="url(#mask0_875_12881)">
<path d="M7.02384 2.31058C7.64246 2.52096 8.40769 2.85626 9.14889 3.35611C10.0471 3.12454 11.0063 3 12.0003 3C12.9932 3 13.9515 3.12429 14.849 3.35541C15.59 2.85581 16.3551 2.52068 16.9735 2.31041C17.6704 2.07347 18.6637 1.68873 19.2534 2.34204C19.6538 2.78558 19.7531 3.52998 19.8245 4.09751C19.9043 4.7317 19.9229 5.55836 19.713 6.37797C20.5159 7.41477 21.0003 8.65244 21.0003 10C21.0003 12.0422 19.8942 13.8148 18.2571 15.0426C17.5036 15.6077 16.6276 16.0673 15.6669 16.3988C15.8813 16.8891 16.0003 17.4307 16.0003 18V21C16.0003 21.5523 15.5525 22 15.0003 22H9.00029C8.44801 22 8.00029 21.5523 8.00029 21V20.0087C7.04497 20.1257 6.24437 20.0222 5.56284 19.7331C4.85105 19.4311 4.35493 18.9627 3.98205 18.5152C3.62835 18.0908 3.24274 17.1349 2.68404 16.9487C2.1601 16.774 1.87694 16.2077 2.05158 15.6838C2.22623 15.1598 2.79255 14.8767 3.31649 15.0513C3.98227 15.2732 4.41578 15.7534 4.71343 16.1386C5.19249 16.7585 5.58388 17.5695 6.34394 17.8919C6.6565 18.0245 7.1157 18.1125 7.83254 18.0137L8.00034 17.9802C8.00307 17.4181 8.12173 16.8834 8.33365 16.3988C7.37297 16.0673 6.4969 15.6077 5.74344 15.0426C4.1063 13.8148 3.00029 12.0422 3.00029 10C3.00029 8.65402 3.48353 7.41765 4.28472 6.38159C4.07403 5.56134 4.09241 4.73379 4.17216 4.09897C4.17376 4.08622 4.17536 4.07342 4.17697 4.06057C4.24985 3.47909 4.33573 2.79383 4.74331 2.34215C5.3329 1.6888 6.327 2.07361 7.02384 2.31058Z" fill="black"/>
</g>
</svg>
