<svg width="24" height="24" viewBox="0 0 24 24" fill="none" xmlns="http://www.w3.org/2000/svg">
<path fill-rule="evenodd" clip-rule="evenodd" d="M7.17843 5.72784H7.21671C7.36982 5.65128 7.52294 5.57473 7.67605 5.53645V2.47418C7.67605 1.93828 7.21671 1.47894 6.68081 1.47894H2.54675V10.2064C3.54199 8.25421 5.18796 6.6848 7.17843 5.72784ZM11.4011 11.0647H12.3198C13.6595 11.0647 14.7313 9.99286 14.7696 8.65312V6.0502C14.272 5.93536 11.9753 5.89708 11.4394 5.89708C6.76941 5.89708 2.86502 9.53352 2.5588 14.2035C2.52052 14.4331 2.52052 14.6245 2.52052 14.8159C2.52052 15.0073 2.52052 15.237 2.5588 15.4284V20.9787C2.5588 21.5146 3.01814 21.974 3.55403 21.974H7.6881V14.7777C7.6881 12.7106 9.37234 11.0647 11.4011 11.0647ZM16.6632 17.7511H16.6249C16.4718 17.8277 16.3187 17.9042 16.1656 17.9425V21.0048C16.1656 21.5407 16.6249 22 17.1608 22H21.2949V13.2726C20.2997 15.2247 18.6537 16.7942 16.6632 17.7511ZM21.3286 2.47418V8.02454C21.3286 8.14461 21.3495 8.26467 21.3695 8.37927C21.3877 8.48388 21.4052 8.58393 21.4052 8.67527C21.4052 8.77097 21.3956 8.87623 21.386 8.9815C21.3765 9.08676 21.3669 9.19203 21.3669 9.28772C21.1372 12.5031 19.185 15.374 16.2376 16.752H16.1993C15.0892 17.2879 13.8643 17.5558 12.6011 17.5941H12.4098C11.8739 17.5941 9.57716 17.5176 9.07954 17.441V14.8381C9.11782 13.4983 10.1896 12.4265 11.5294 12.4265H12.448C14.4768 12.4265 16.161 10.7806 16.161 8.71355V1.47894H20.2951C20.8693 1.47894 21.3286 1.93828 21.3286 2.47418Z" fill="#01943F"/>
</svg>
