<svg width="91" height="26" viewBox="0 0 91 26" fill="none" xmlns="http://www.w3.org/2000/svg">
<path d="M18 20L11.6 24.8C10.9408 25.2944 10 24.824 10 24V20H18Z" fill="#FF7A45"/>
<rect width="91" height="20" rx="5" fill="#FF7A45"/>
<path d="M11.312 7.808L11.96 6.416C11.156 5.888 10.04 5.528 8.924 5.528C7.04 5.528 5.78 6.464 5.78 7.928C5.78 10.916 10.292 9.92 10.292 11.672C10.292 12.26 9.752 12.596 8.852 12.596C7.952 12.596 6.812 12.128 5.948 11.36L5.276 12.716C6.176 13.52 7.484 14.06 8.828 14.06C10.676 14.06 12.044 13.148 12.044 11.576C12.056 8.564 7.544 9.488 7.544 7.784C7.544 7.268 8.036 6.992 8.792 6.992C9.44 6.992 10.412 7.268 11.312 7.808ZM16.1832 7.532C14.2632 7.532 12.9192 8.852 12.9192 10.808C12.9192 12.74 14.2272 14.06 16.2192 14.06C17.3472 14.06 18.2832 13.652 18.9192 12.956L18.0792 12.08C17.6232 12.548 17.0112 12.8 16.3512 12.8C15.4152 12.8 14.7192 12.248 14.5152 11.336H19.2552C19.4112 9.008 18.4392 7.532 16.1832 7.532ZM14.4792 10.292C14.6232 9.344 15.2712 8.744 16.1952 8.744C17.1672 8.744 17.8032 9.344 17.8392 10.292H14.4792ZM24.4727 7.52C23.4287 7.532 22.6247 7.928 22.1687 8.78V7.58H20.6087V14H22.1687V10.844C22.1687 9.788 22.7927 9.008 23.8487 8.996C24.7367 8.996 25.2767 9.548 25.2767 10.448V14H26.8487V9.992C26.8487 8.468 25.9487 7.52 24.4727 7.52ZM33.2329 5.096V8.636C32.7649 7.916 32.0209 7.52 31.0369 7.52C29.2369 7.52 28.0129 8.828 28.0129 10.772C28.0129 12.728 29.2369 14.072 31.0729 14.072C32.0329 14.072 32.7769 13.676 33.2329 12.968V14H34.7929V5.096H33.2329ZM31.4089 12.764C30.3289 12.764 29.5969 11.96 29.5849 10.808C29.5969 9.668 30.3409 8.852 31.4089 8.852C32.4889 8.852 33.2329 9.656 33.2329 10.808C33.2329 11.96 32.4889 12.764 31.4089 12.764ZM40.654 5.588V7.004H42.406V14H44.026V5.588H40.654ZM52.9802 7.364L53.6042 6.176C52.9202 5.768 51.9002 5.516 51.0482 5.516C48.8042 5.516 47.3762 7.268 47.3762 9.956C47.3762 12.536 48.6842 14.072 50.8322 14.072C52.6442 14.072 53.8322 12.98 53.8322 11.228C53.8322 9.584 52.8002 8.528 51.1322 8.528C50.1122 8.528 49.3562 8.924 48.9242 9.644C48.8642 7.94 49.6082 6.836 51.1562 6.836C51.7922 6.836 52.4762 7.028 52.9802 7.364ZM50.8202 9.776C51.7682 9.776 52.3562 10.328 52.3562 11.216C52.3562 12.164 51.7082 12.716 50.7602 12.716C49.6442 12.716 49.1402 11.96 49.1522 11.264C49.1402 10.448 49.7522 9.776 50.8202 9.776ZM57.9385 5.54C55.8745 5.54 54.7345 7.052 54.7345 9.788C54.7345 12.524 55.8745 14.048 57.9385 14.048C59.9905 14.048 61.1305 12.524 61.1305 9.788C61.1305 7.052 59.9905 5.54 57.9385 5.54ZM57.9385 6.776C59.0185 6.776 59.5465 7.712 59.5465 9.788C59.5465 11.864 59.0185 12.812 57.9385 12.812C56.8465 12.812 56.3185 11.864 56.3185 9.788C56.3185 7.712 56.8465 6.776 57.9385 6.776ZM65.3447 5.54C63.2807 5.54 62.1407 7.052 62.1407 9.788C62.1407 12.524 63.2807 14.048 65.3447 14.048C67.3967 14.048 68.5367 12.524 68.5367 9.788C68.5367 7.052 67.3967 5.54 65.3447 5.54ZM65.3447 6.776C66.4247 6.776 66.9527 7.712 66.9527 9.788C66.9527 11.864 66.4247 12.812 65.3447 12.812C64.2527 12.812 63.7247 11.864 63.7247 9.788C63.7247 7.712 64.2527 6.776 65.3447 6.776ZM72.751 5.54C70.687 5.54 69.547 7.052 69.547 9.788C69.547 12.524 70.687 14.048 72.751 14.048C74.803 14.048 75.943 12.524 75.943 9.788C75.943 7.052 74.803 5.54 72.751 5.54ZM72.751 6.776C73.831 6.776 74.359 7.712 74.359 9.788C74.359 11.864 73.831 12.812 72.751 12.812C71.659 12.812 71.131 11.864 71.131 9.788C71.131 7.712 71.659 6.776 72.751 6.776ZM78.9212 10.496V5.6H77.3132V10.496C77.3132 12.704 78.7532 14.072 81.0452 14.072C83.3252 14.072 84.7292 12.704 84.7292 10.496V5.6H83.1212V10.496C83.1212 11.84 82.3172 12.632 81.0452 12.632C79.7732 12.632 78.9212 11.828 78.9212 10.496Z" fill="white"/>
</svg>
