<svg width="48" height="48" viewBox="0 0 48 48" fill="none" xmlns="http://www.w3.org/2000/svg">
<path fill-rule="evenodd" clip-rule="evenodd" d="M47.8095 24C47.8095 10.8503 37.1497 0.19043 24 0.19043C10.8504 0.19043 0.190491 10.8503 0.190491 24C0.190491 37.1496 10.8504 47.8095 24 47.8095C34.8904 47.8095 44.0731 40.4978 46.907 30.5157C47.4949 28.4449 47.8095 26.2592 47.8095 24ZM13.8016 13.6211H31.1219C37.0283 13.6211 39.3091 16.3288 39.5312 19.6114C40.141 27.565 33.0023 29.8645 28.4722 29.8645H25.2463L23.7704 36.2096H17.2826L18.7928 29.8645H9.04279L10.3519 24.9154H29.5079C31.3975 24.9598 33.1552 23.7455 33.1552 21.7773C33.1376 20.2747 31.9226 18.8007 29.9113 18.8338C28.4469 18.8338 26.4237 19.8421 26.0324 24.0336C26.0268 24.055 25.5807 24.0662 24.6941 24.0672H24.4491C23.4848 24.0662 22.08 24.055 20.2346 24.0336L21.384 18.8385H12.4074L13.8016 13.6211Z" fill="#006EFF"/>
</svg>
