<svg width="56" height="56" viewBox="0 0 56 56" fill="none" xmlns="http://www.w3.org/2000/svg">
<path fill-rule="evenodd" clip-rule="evenodd" d="M49.8411 27.9999C49.8411 15.938 40.063 6.15991 28.0011 6.15991C15.9392 6.15991 6.16113 15.938 6.16113 27.9999C6.16113 40.0618 15.9392 49.8399 28.0011 49.8399C37.9907 49.8399 46.4137 43.1331 49.0132 33.9766C49.5524 32.0771 49.8411 30.0722 49.8411 27.9999ZM18.6456 18.4795H34.5332C39.951 18.4795 42.0431 20.9633 42.2468 23.9743C42.8062 31.27 36.258 33.3792 32.1026 33.3792H29.1436L27.7898 39.1995H21.8387L23.2239 33.3792H14.2805L15.4812 28.8395H33.0527C34.786 28.8803 36.3982 27.7664 36.3982 25.961C36.3821 24.5828 35.2676 23.2307 33.4227 23.2611C32.0794 23.2611 30.2236 24.1859 29.8647 28.0307C29.8595 28.0504 29.4503 28.0607 28.6371 28.0615H28.4124C27.5278 28.0607 26.2392 28.0504 24.5465 28.0307L25.6008 23.2653H17.3667L18.6456 18.4795Z" fill="#006EFF"/>
</svg>
