<svg width="24" height="24" viewBox="0 0 24 24" fill="none" xmlns="http://www.w3.org/2000/svg">
<mask id="mask0_875_12885" style="mask-type:alpha" maskUnits="userSpaceOnUse" x="0" y="0" width="24" height="24">
<path d="M24 0L0 0L0 24H24V0Z" fill="black" fill-opacity="0.85"/>
</mask>
<g mask="url(#mask0_875_12885)">
<path d="M16.1667 2.625C19.0431 2.625 21.375 4.95685 21.375 7.83333V16.1667C21.375 19.0431 19.0431 21.375 16.1667 21.375H7.83333C4.95685 21.375 2.625 19.0431 2.625 16.1667L2.625 7.83333C2.625 4.95685 4.95685 2.625 7.83333 2.625L16.1667 2.625ZM12 7.83333C9.69881 7.83333 7.83333 9.69881 7.83333 12C7.83333 14.3011 9.69881 16.1667 12 16.1667C14.3011 16.1667 16.1667 14.3011 16.1667 12C16.1667 9.69881 14.3011 7.83333 12 7.83333ZM12 9.91667C13.1506 9.91667 14.0833 10.8494 14.0833 12C14.0833 13.1506 13.1506 14.0833 12 14.0833C10.8494 14.0833 9.91667 13.1506 9.91667 12C9.91667 10.8494 10.8494 9.91667 12 9.91667ZM16.6875 6.27083C16.1122 6.27083 15.6458 6.73721 15.6458 7.3125C15.6458 7.88779 16.1122 8.35417 16.6875 8.35417C17.2628 8.35417 17.7292 7.88779 17.7292 7.3125C17.7292 6.73721 17.2628 6.27083 16.6875 6.27083Z" fill="black"/>
</g>
</svg>
