<svg width="50" height="50" viewBox="0 0 50 50" fill="none" xmlns="http://www.w3.org/2000/svg">
<path fill-rule="evenodd" clip-rule="evenodd" d="M32.2027 31.3013H17.8166C16.2985 31.3021 14.8429 31.9127 13.7694 32.9988C12.696 34.0849 12.0926 35.5579 12.0918 37.0939V44.1922C12.0926 45.7282 12.696 47.2012 13.7694 48.2872C14.8429 49.3736 16.2985 49.9842 17.8166 49.9849H28.2873C28.2888 49.3722 28.1217 48.7712 27.8048 48.2489C27.4878 47.7269 27.0336 47.3042 26.4928 47.0286L27.9759 44.0722C29.0582 44.6266 29.9669 45.4746 30.6007 46.5212C31.2345 47.5679 31.5683 48.7722 31.565 49.9999H32.1879C33.706 49.9992 35.1617 49.3885 36.235 48.3022C37.3087 47.2162 37.912 45.7432 37.9127 44.2072V37.0789C37.915 36.3196 37.7687 35.5672 37.4823 34.8652C37.1963 34.1636 36.7757 33.5256 36.245 32.9887C35.7143 32.4518 35.084 32.0263 34.3903 31.7367C33.6967 31.4471 32.9532 31.2991 32.2027 31.3013ZM18.0391 41.2509C17.6865 41.2509 17.3375 41.1806 17.0118 41.0442C16.6861 40.9076 16.3902 40.7076 16.1409 40.4552C15.8916 40.2032 15.6939 39.9036 15.559 39.5742C15.4241 39.2446 15.3546 38.8912 15.3546 38.5346C15.3546 38.1779 15.4241 37.8246 15.559 37.4952C15.6939 37.1656 15.8916 36.8662 16.1409 36.6139C16.3902 36.3619 16.6861 36.1616 17.0118 36.0252C17.3375 35.8886 17.6865 35.8182 18.0391 35.8182C18.3916 35.8182 18.7407 35.8886 19.0664 36.0252C19.392 36.1616 19.688 36.3619 19.9372 36.6139C20.1865 36.8662 20.3842 37.1656 20.5192 37.4952C20.6541 37.8246 20.7235 38.1779 20.7235 38.5346C20.7215 39.2546 20.4372 39.9442 19.9331 40.4519C19.4289 40.9599 18.7461 41.2446 18.0346 41.2432L18.0391 41.2509ZM31.9803 41.2509C31.6277 41.2509 31.2787 41.1806 30.953 41.0442C30.6273 40.9076 30.3314 40.7076 30.0821 40.4552C29.8328 40.2032 29.6351 39.9036 29.5002 39.5742C29.3653 39.2446 29.2958 38.8912 29.2958 38.5346C29.2958 38.1779 29.3653 37.8246 29.5002 37.4952C29.6351 37.1656 29.8328 36.8662 30.0821 36.6139C30.3314 36.3619 30.6273 36.1616 30.953 36.0252C31.2787 35.8886 31.6277 35.8182 31.9803 35.8182C32.3328 35.8182 32.6819 35.8886 33.0075 36.0252C33.3332 36.1616 33.629 36.3619 33.8783 36.6139C34.1277 36.8662 34.3253 37.1656 34.4603 37.4952C34.5953 37.8246 34.6647 38.1779 34.6647 38.5346C34.6627 39.2546 34.3783 39.9442 33.8743 40.4519C33.37 40.9599 32.6873 41.2446 31.9758 41.2432L31.9803 41.2509Z" fill="#1FB75C"/>
<path d="M50 32.574C50 34.223 49.8436 35.8706 49.5283 37.4886C49.5283 40.4493 46.465 44.122 44.4163 45.9303C41.903 48.1486 38.78 49.537 35.4656 49.91C40.8066 48.1773 44.7883 43.0246 44.7883 37.1316C44.79 35.138 44.3503 33.1691 43.501 31.3702C42.6516 29.5712 41.4146 27.9878 39.8806 26.7363C40.1306 27.0638 40.266 27.4661 40.265 27.8799C40.266 28.356 40.0873 28.8144 39.765 29.1614C39.5916 29.3509 39.3816 29.502 39.148 29.6053C38.914 29.7086 38.6616 29.7619 38.4066 29.7617C38.1626 29.7619 37.921 29.7134 37.6953 29.6191C37.47 29.5248 37.2653 29.3864 37.0926 29.212C36.92 29.0375 36.783 28.8302 36.6896 28.6022C36.5963 28.3742 36.5483 28.1297 36.5483 27.8828C36.5483 27.8288 36.5483 27.7733 36.5556 27.7208L36.5186 27.7103C36.455 26.6253 36.2603 25.5523 35.9386 24.5153C35.8526 24.2402 35.7586 23.9701 35.657 23.705C34.6343 21.0369 32.7945 18.7703 30.4067 17.237C28.2931 15.8775 25.8397 15.1574 23.3352 15.1615C22.8636 15.1612 22.3922 15.1868 21.9233 15.2381C22.7148 15.6512 23.4154 16.2223 23.9828 16.9169C24.5502 17.6114 24.9727 18.4151 25.2247 19.2794C25.2558 19.3845 25.2825 19.4895 25.3078 19.5961C25.9344 22.2224 24.887 25.0443 22.7106 26.6022C20.0743 28.4892 16.3222 28.1155 14.1011 25.7182C13.4487 25.014 12.955 24.1751 12.6539 23.2593C12.0247 23.5294 11.416 23.8459 10.8326 24.2062C8.2206 25.8218 6.20673 28.2624 5.10193 31.1513C4.4879 32.7604 4.17266 34.4703 4.172 36.1953C4.16646 42.64 8.6903 49.35 15.3339 49.9746C11.7301 49.7433 8.30313 48.3126 5.58676 45.9053C1.7206 42.479 3.5373e-05 37.658 3.5373e-05 32.574C-0.00568536 29.1466 0.68254 25.7129 2.02744 22.5659C4.16723 17.5573 7.8438 13.3789 12.513 10.649C11.9223 11.0281 11.4359 11.5521 11.0989 12.1723C10.7618 12.7925 10.585 13.4888 10.585 14.1966C10.5847 14.8236 10.7231 15.4426 10.9899 16.0085C11.2568 16.5743 11.6455 17.0725 12.1274 17.4666C12.4156 17.7054 12.735 17.9029 13.0766 18.0534C13.5908 18.2823 14.1461 18.4019 14.708 18.4045H14.751C15.3423 18.4047 15.9269 18.277 16.4656 18.0301C17.0042 17.7832 17.4846 17.4228 17.8744 16.9729C18.1059 16.7078 18.3027 16.4137 18.4603 16.098C18.5092 16.077 18.5581 16.0574 18.6086 16.0394C18.8871 15.5449 19.1348 15.0331 19.3501 14.5072C20.0601 12.7816 20.4241 10.9304 20.4209 9.06123C20.4209 8.60503 20.3997 8.15479 20.3571 7.7106C20.0947 4.88896 18.9997 2.21237 17.2144 0.0285849C17.5526 0.00857573 17.8937 -0.000929 18.2378 7.14589e-05C21.3703 -0.00219181 24.4503 0.81488 27.1788 2.372C29.9073 3.92913 32.1917 6.17343 33.8103 8.88716C35.309 11.3877 36.193 14.2156 36.388 17.1334L36.4533 17.1439C36.649 18.8759 38.1416 20.2233 39.8643 20.2234C42.857 20.2324 44.3983 16.4294 42.2876 14.2911C44.73 16.6514 46.6726 19.4889 47.9983 22.6317C49.324 25.7745 50.005 29.1569 50 32.574Z" fill="#1FB75C"/>
</svg>
