<svg width="56" height="56" viewBox="0 0 56 56" fill="none" xmlns="http://www.w3.org/2000/svg">
<path fill-rule="evenodd" clip-rule="evenodd" d="M33.8083 33.0813H22.2073C20.9831 33.082 19.8093 33.5743 18.9437 34.4502C18.078 35.326 17.5915 36.5138 17.5908 37.7525V43.4766C17.5915 44.7152 18.078 45.903 18.9437 46.7788C19.8093 47.6548 20.9831 48.1472 22.2073 48.1478H30.6509C30.6521 47.6537 30.5173 47.1691 30.2617 46.7479C30.0062 46.3269 29.6399 45.9861 29.2038 45.7638L30.3997 43.3798C31.2725 43.8268 32.0053 44.5106 32.5164 45.3547C33.0275 46.1987 33.2967 47.1699 33.294 48.1599H33.7963C35.0205 48.1593 36.1944 47.6669 37.0599 46.7909C37.9257 45.9151 38.4122 44.7273 38.4128 43.4887V37.7404C38.4146 37.128 38.2966 36.5214 38.0657 35.9553C37.8351 35.3894 37.4959 34.875 37.0679 34.442C36.64 34.0091 36.1317 33.6659 35.5723 33.4324C35.013 33.1989 34.4134 33.0796 33.8083 33.0813ZM22.3867 41.1047C22.1024 41.1047 21.8209 41.048 21.5583 40.938C21.2957 40.8278 21.057 40.6665 20.856 40.463C20.655 40.2598 20.4956 40.0182 20.3868 39.7526C20.278 39.4868 20.222 39.2018 20.222 38.9142C20.222 38.6266 20.278 38.3417 20.3868 38.0761C20.4956 37.8103 20.655 37.5689 20.856 37.3654C21.057 37.1622 21.2957 37.0006 21.5583 36.8907C21.8209 36.7805 22.1024 36.7238 22.3867 36.7238C22.671 36.7238 22.9525 36.7805 23.2151 36.8907C23.4777 37.0006 23.7164 37.1622 23.9174 37.3654C24.1184 37.5689 24.2778 37.8103 24.3866 38.0761C24.4954 38.3417 24.5514 38.6266 24.5514 38.9142C24.5498 39.4948 24.3206 40.051 23.914 40.4604C23.5074 40.87 22.9568 41.0996 22.3831 41.0985L22.3867 41.1047ZM33.6289 41.1047C33.3446 41.1047 33.0631 41.048 32.8005 40.938C32.5378 40.8278 32.2992 40.6665 32.0982 40.463C31.8972 40.2598 31.7377 40.0182 31.6289 39.7526C31.5201 39.4868 31.4641 39.2018 31.4641 38.9142C31.4641 38.6266 31.5201 38.3417 31.6289 38.0761C31.7377 37.8103 31.8972 37.5689 32.0982 37.3654C32.2992 37.1622 32.5378 37.0006 32.8005 36.8907C33.0631 36.7805 33.3446 36.7238 33.6289 36.7238C33.9132 36.7238 34.1946 36.7805 34.4573 36.8907C34.7199 37.0006 34.9584 37.1622 35.1595 37.3654C35.3605 37.5689 35.5199 37.8103 35.6288 38.0761C35.7377 38.3417 35.7936 38.6266 35.7936 38.9142C35.792 39.4948 35.5627 40.051 35.1562 40.4604C34.7496 40.87 34.199 41.0996 33.6253 41.0985L33.6289 41.1047Z" fill="#1FB75C"/>
<path d="M48.16 34.1077C48.16 35.4374 48.0339 36.7661 47.7796 38.0708C47.7796 40.4583 45.3094 43.4199 43.6573 44.8782C41.6306 46.667 39.1122 47.7866 36.4395 48.0874C40.7465 46.6901 43.9573 42.535 43.9573 37.7829C43.9586 36.1752 43.6041 34.5876 42.9192 33.1369C42.2343 31.6862 41.2368 30.4093 39.9997 29.4001C40.2014 29.6642 40.3105 29.9886 40.3097 30.3223C40.3105 30.7062 40.1664 31.0759 39.9065 31.3558C39.7667 31.5085 39.5974 31.6304 39.4089 31.7137C39.2202 31.797 39.0168 31.8399 38.8111 31.8398C38.6144 31.84 38.4195 31.8009 38.2375 31.7248C38.0558 31.6488 37.8907 31.5372 37.7515 31.3965C37.6123 31.2558 37.5018 31.0887 37.4265 30.9048C37.3513 30.7209 37.3126 30.5238 37.3126 30.3247C37.3126 30.2811 37.3126 30.2364 37.3185 30.194L37.2886 30.1855C37.2373 29.3106 37.0803 28.4453 36.8209 27.6091C36.7516 27.3873 36.6758 27.1694 36.5938 26.9556C35.7691 24.8041 34.2855 22.9763 32.3599 21.7399C30.6555 20.6436 28.6771 20.0629 26.6575 20.0662C26.2772 20.066 25.8971 20.0866 25.5189 20.1279C26.1572 20.4611 26.7221 20.9216 27.1797 21.4817C27.6372 22.0418 27.9779 22.6899 28.1812 23.3869C28.2063 23.4716 28.2278 23.5563 28.2482 23.6422C28.7535 25.7601 27.9089 28.0357 26.1538 29.2919C24.0279 30.8136 21.0022 30.5123 19.2111 28.5791C18.685 28.0113 18.2869 27.3348 18.0441 26.5962C17.5367 26.814 17.0459 27.0693 16.5754 27.3598C14.4691 28.6626 12.8451 30.6308 11.9542 32.9604C11.459 34.258 11.2048 35.6368 11.2043 37.0279C11.1998 42.2248 14.8479 47.6358 20.2052 48.1395C17.2992 47.953 14.5356 46.7993 12.3452 44.858C9.22748 42.095 7.84002 38.2074 7.84002 34.1077C7.83541 31.3438 8.3904 28.5748 9.47493 26.0371C11.2005 21.9982 14.1652 18.6287 17.9305 16.4273C17.4542 16.733 17.0619 17.1556 16.7901 17.6557C16.5183 18.1558 16.3758 18.7173 16.3757 19.2881C16.3755 19.7937 16.4871 20.2929 16.7023 20.7492C16.9175 21.2055 17.2309 21.6072 17.6195 21.925C17.8519 22.1176 18.1095 22.2768 18.3849 22.3982C18.7996 22.5828 19.2474 22.6792 19.7005 22.6814H19.7352C20.212 22.6815 20.6834 22.5786 21.1178 22.3795C21.5522 22.1804 21.9395 21.8897 22.2539 21.5269C22.4406 21.3131 22.5993 21.076 22.7263 20.8214C22.7658 20.8044 22.8053 20.7887 22.8459 20.7742C23.0705 20.3753 23.2703 19.9627 23.4439 19.5386C24.0165 18.147 24.31 16.6543 24.3074 15.1469C24.3074 14.7791 24.2903 14.416 24.256 14.0578C24.0444 11.7824 23.1614 9.62402 21.7217 7.86302C21.9944 7.84688 22.2695 7.83922 22.547 7.84002C25.073 7.8382 27.5567 8.49708 29.757 9.75275C31.9572 11.0084 33.7994 12.8182 35.1046 15.0066C36.3132 17.023 37.026 19.3034 37.1833 21.6564L37.236 21.6648C37.3937 23.0615 38.5974 24.1481 39.9866 24.1481C42.3999 24.1554 43.6428 21.0886 41.9408 19.3643C43.9103 21.2676 45.4768 23.5558 46.5458 26.0901C47.6148 28.6245 48.164 31.3521 48.16 34.1077Z" fill="#1FB75C"/>
</svg>
