<svg width="32" height="32" viewBox="0 0 32 32" fill="none" xmlns="http://www.w3.org/2000/svg">
<path d="M21.3333 11.2L9.50001 23.0667C9.23335 23.3333 8.91646 23.4667 8.54935 23.4667C8.18223 23.4667 7.86579 23.3333 7.60001 23.0667C7.33335 22.8 7.20001 22.4831 7.20001 22.116C7.20001 21.7489 7.33335 21.4324 7.60001 21.1667L19.4667 9.33333H9.33335C8.95557 9.33333 8.63868 9.20533 8.38268 8.94933C8.12668 8.69333 7.99912 8.37688 8.00001 7.99999C8.00001 7.62222 8.12801 7.30533 8.38401 7.04933C8.64001 6.79333 8.95646 6.66577 9.33335 6.66666H22.6667C23.0445 6.66666 23.3613 6.79466 23.6173 7.05066C23.8733 7.30666 24.0009 7.62311 24 7.99999V21.3333C24 21.7111 23.872 22.028 23.616 22.284C23.36 22.54 23.0436 22.6675 22.6667 22.6667C22.2889 22.6667 21.972 22.5387 21.716 22.2827C21.46 22.0267 21.3325 21.7102 21.3333 21.3333V11.2Z" fill="white"/>
</svg>
