<svg width="32" height="32" viewBox="0 0 32 32" fill="none" xmlns="http://www.w3.org/2000/svg">
<path d="M21.3333 11.2L9.50001 23.0667C9.23335 23.3334 8.91646 23.4667 8.54935 23.4667C8.18223 23.4667 7.86579 23.3334 7.60001 23.0667C7.33335 22.8 7.20001 22.4831 7.20001 22.116C7.20001 21.7489 7.33335 21.4325 7.60001 21.1667L19.4667 9.33336H9.33335C8.95557 9.33336 8.63868 9.20536 8.38268 8.94936C8.12668 8.69336 7.99912 8.37691 8.00001 8.00002C8.00001 7.62225 8.12801 7.30536 8.38401 7.04936C8.64001 6.79336 8.95646 6.6658 9.33335 6.66669H22.6667C23.0445 6.66669 23.3613 6.79469 23.6173 7.05069C23.8733 7.30669 24.0009 7.62314 24 8.00002V21.3334C24 21.7111 23.872 22.028 23.616 22.284C23.36 22.54 23.0436 22.6676 22.6667 22.6667C22.2889 22.6667 21.972 22.5387 21.716 22.2827C21.46 22.0267 21.3325 21.7102 21.3333 21.3334V11.2Z" fill="black"/>
</svg>
