<svg width="56" height="56" viewBox="0 0 56 56" fill="none" xmlns="http://www.w3.org/2000/svg">
<path d="M37.387 11.1782C37.387 10.8044 37.5116 10.5552 37.8854 10.4306L42.9943 7.56468C43.6173 7.19086 44.2403 7.68928 44.2403 8.31231V44.9463C44.2403 45.3201 44.1157 45.5693 43.7419 45.6939L38.6331 48.4353C38.0101 48.6845 37.387 48.3106 37.387 47.6876V11.1782H37.387Z" fill="#2B8DFF"/>
<path opacity="0.5" d="M11.5941 47.6876C11.5941 48.3106 12.3417 48.809 12.8401 48.4352L17.9489 45.6939C18.1981 45.5693 18.4474 45.1955 18.4474 44.9462V18.7791C18.4474 18.1561 17.6997 17.6577 17.2013 18.0315L12.0925 20.7728C11.7187 20.8974 11.5941 21.2712 11.5941 21.5204V47.6876Z" fill="#2B8DFF"/>
<path d="M35.27 26.0061H29.289C29.0398 26.0061 28.7906 26.1307 28.666 26.2553L19.4452 35.7253C19.0713 36.0991 19.0713 36.5976 19.4452 36.9714L28.666 46.4414C28.7906 46.566 29.0398 46.6906 29.289 46.6906H35.27C36.0177 46.6906 36.3915 45.6938 35.8931 45.1953L27.9183 36.9714C27.5445 36.5976 27.5445 36.0991 27.9183 35.7253L35.8931 27.5014C36.3915 27.0029 36.0177 26.0061 35.27 26.0061Z" fill="#2B8DFF"/>
</svg>
