<svg width="39" height="48" viewBox="0 0 39 48" fill="none" xmlns="http://www.w3.org/2000/svg">
<path d="M30.8165 4.52337C30.8165 4.09056 30.9608 3.80202 31.3936 3.65775L37.3087 0.339515C38.0301 -0.0932977 38.7514 0.483786 38.7514 1.20514V43.6208C38.7514 44.0536 38.6072 44.3422 38.1743 44.4864L32.2592 47.6604C31.5379 47.9489 30.8165 47.5161 30.8165 46.7948V4.52337H30.8165Z" fill="#2B8DFF"/>
<path opacity="0.5" d="M0.952393 46.7947C0.952393 47.516 1.81802 48.0931 2.3951 47.6603L8.31021 44.4863C8.59875 44.342 8.8873 43.9092 8.8873 43.6207V13.3238C8.8873 12.6024 8.02167 12.0254 7.44459 12.4582L1.52948 15.6321C1.09666 15.7764 0.952393 16.2092 0.952393 16.4978V46.7947Z" fill="#2B8DFF"/>
<path d="M28.3638 21.6914H21.4388C21.1503 21.6914 20.8617 21.8357 20.7175 21.9799L10.0414 32.9445C9.60859 33.3774 9.60859 33.9544 10.0414 34.3873L20.7175 45.3518C20.8617 45.4961 21.1503 45.6404 21.4388 45.6404H28.3638C29.2294 45.6404 29.6623 44.4862 29.0852 43.9091L19.8518 34.3873C19.419 33.9544 19.419 33.3774 19.8518 32.9445L29.0852 23.4227C29.6623 22.8456 29.2294 21.6914 28.3638 21.6914Z" fill="#2B8DFF"/>
</svg>
