<svg width="24" height="24" viewBox="0 0 24 24" fill="none" xmlns="http://www.w3.org/2000/svg">
<path d="M6.75059 22.5917C6.76517 22.6418 6.72832 22.7065 6.67676 22.7146C6.66489 22.7164 6.65436 22.7132 6.6436 22.7079C4.32857 21.5578 2.44218 19.6596 1.28022 17.3445C1.27479 17.3337 1.27156 17.323 1.27343 17.3111C1.2815 17.2596 1.34607 17.2228 1.39609 17.2374C2.71532 17.6217 4.07231 17.9192 5.42334 18.1562C5.63214 18.1928 5.79616 18.3557 5.83371 18.5643C6.07843 19.9239 6.36654 21.2722 6.75059 22.5917Z" fill="#777E90"/>
<path d="M22.7266 17.3267C22.7285 17.3371 22.7255 17.345 22.7208 17.3544C21.7006 19.398 20.1 21.1067 18.1452 22.2845C17.7728 22.5088 17.3458 22.1531 17.4605 21.7338C17.7474 20.6847 17.9937 19.6299 18.1801 18.5695C18.2172 18.3584 18.3823 18.1926 18.5934 18.1557C19.9445 17.9197 21.2764 17.6236 22.589 17.2417C22.6399 17.2269 22.7167 17.2747 22.7266 17.3267Z" fill="#777E90"/>
<path d="M22.2883 5.85502C22.5116 6.22756 22.1549 6.65363 21.7359 6.53926C20.6961 6.25548 19.6493 6.01378 18.5917 5.82187C18.3815 5.78373 18.2173 5.61826 18.1805 5.40781C17.9966 4.35495 17.7579 3.30851 17.4719 2.27605C17.3554 1.85527 17.7833 1.49429 18.1575 1.71925C19.8522 2.73801 21.2715 4.15894 22.2883 5.85502Z" fill="#777E90"/>
<path d="M6.67683 1.27414C6.72897 1.28636 6.76477 1.35948 6.7498 1.4109C6.36692 2.72646 6.07965 4.06138 5.84457 5.41564C5.80767 5.62819 5.6399 5.79383 5.4272 5.82984C4.36791 6.00914 3.31426 6.25343 2.26624 6.53957C1.84691 6.65405 1.49118 6.22709 1.7155 5.85476C2.89278 3.90071 4.60056 2.30063 6.64309 1.28038C6.65418 1.27485 6.66476 1.27132 6.67683 1.27414Z" fill="#777E90"/>
<path d="M16.0626 4.84734C16.1275 5.17606 15.8527 5.47044 15.5191 5.43908C13.1778 5.21897 10.8222 5.21897 8.48094 5.43908C8.14734 5.47044 7.87251 5.17606 7.9373 4.84732C8.21771 3.42453 8.56836 2.00776 9.03601 0.636C9.07476 0.480985 9.16275 0.346801 9.31871 0.312048C10.1848 0.11905 11.0726 0 12 0C12.9152 0 13.8106 0.118709 14.6683 0.311218C14.825 0.346383 14.9251 0.480228 14.964 0.636C15.4316 2.01798 15.7822 3.42695 16.0626 4.84734Z" fill="#777E90"/>
<path d="M5.44206 15.5227C5.47215 15.8552 5.17865 16.1284 4.85098 16.0642C3.42031 15.7835 2.0101 15.4325 0.636 14.964C0.480985 14.9253 0.346801 14.8373 0.312048 14.6813C0.11905 13.8152 0 12.9274 0 12C0 11.0848 0.118709 10.1894 0.311218 9.3317C0.346383 9.17503 0.480228 9.07495 0.636 9.03601C2.02037 8.57803 3.42279 8.21935 4.8511 7.9365C5.17865 7.87164 5.47215 8.14479 5.44206 8.47734C5.22998 10.821 5.22998 13.179 5.44206 15.5227Z" fill="#777E90"/>
<path d="M23.9999 12C23.9999 12.9274 23.8809 13.8152 23.6879 14.6813C23.6531 14.8373 23.519 14.9253 23.3639 14.964C21.9819 15.4212 20.5729 15.7795 19.1525 16.0621C18.8239 16.1275 18.5295 15.8527 18.5609 15.5191C18.781 13.1778 18.781 10.8222 18.5609 8.48094C18.5295 8.14734 18.8239 7.87251 19.1526 7.9373C20.5754 8.21771 21.9922 8.56836 23.3639 9.03601C23.516 9.07403 23.6542 9.17934 23.6883 9.33233C23.881 10.1978 23.9999 11.0841 23.9999 12Z" fill="#777E90"/>
<path d="M15.5196 18.5633C15.8529 18.5299 16.128 18.8238 16.0635 19.1525C15.7829 20.582 15.4321 21.991 14.964 23.3639C14.9251 23.5197 14.825 23.6536 14.6683 23.6887C13.8106 23.8812 12.9152 23.9999 12 23.9999C11.0726 23.9999 10.1848 23.8809 9.31871 23.6879C9.16275 23.6531 9.07477 23.519 9.03601 23.3639C8.57834 21.9805 8.21984 20.5791 7.93708 19.1518C7.87202 18.8233 8.14668 18.5296 8.47982 18.5629C9.64949 18.6797 10.8205 18.7559 12 18.7559C13.1779 18.7559 14.3558 18.6799 15.5196 18.5633Z" fill="#777E90"/>
<path d="M16.5625 16.1308C16.5364 16.3576 16.3576 16.5364 16.1308 16.5625C13.3841 16.8792 10.6159 16.8792 7.8692 16.5625C7.64239 16.5364 7.46366 16.3576 7.43751 16.1308C7.12085 13.3841 7.12085 10.6159 7.43751 7.8692C7.46366 7.64239 7.64239 7.46366 7.8692 7.43751C10.6159 7.12085 13.3841 7.12085 16.1308 7.43751C16.3576 7.46366 16.5364 7.64239 16.5625 7.8692C16.8792 10.6159 16.8792 13.3841 16.5625 16.1308Z" fill="#777E90"/>
</svg>
