<svg width="24" height="24" viewBox="0 0 24 24" fill="none" xmlns="http://www.w3.org/2000/svg">
<path d="M18.3356 2H14.4065C10.914 2 8.7312 4.18281 8.7312 7.6753V11.0041H16.6439C17.0914 11.0041 17.4625 11.3752 17.4625 11.8226C17.4625 12.2701 17.0914 12.6412 16.6439 12.6412H8.7312V15.97C8.7312 19.4625 10.914 21.6453 14.4065 21.6453H18.3247C21.8172 21.6453 24 19.4625 24 15.97V7.6753C24.0109 4.18281 21.8281 2 18.3356 2Z" fill="#777E90"/>
<path d="M2.79126 11.0041L5.05047 8.74492C5.21418 8.5812 5.29058 8.37384 5.29058 8.16647C5.29058 7.9591 5.21418 7.74082 5.05047 7.58803C4.73396 7.27152 4.21009 7.27152 3.89358 7.58803L0.23738 11.2442C-0.0791267 11.5607 -0.0791267 12.0846 0.23738 12.4011L3.89358 16.0573C4.21009 16.3738 4.73396 16.3738 5.05047 16.0573C5.36698 15.7408 5.36698 15.2169 5.05047 14.9004L2.79126 12.6412H8.73123V11.0041H2.79126Z" fill="#777E90"/>
</svg>
