<svg width="57" height="56" viewBox="0 0 57 56" fill="none" xmlns="http://www.w3.org/2000/svg">
<path fill-rule="evenodd" clip-rule="evenodd" d="M40.7929 25.8731C40.0444 25.1255 39.8202 24.0006 40.2247 23.0232C40.6292 22.0457 41.5829 21.4083 42.6407 21.4083C43.6986 21.4083 44.6522 22.0457 45.0568 23.0232C45.4613 24.0006 45.237 25.1255 44.4886 25.8731C43.9989 26.3639 43.334 26.6397 42.6407 26.6397C41.9474 26.6397 41.2826 26.3639 40.7929 25.8731Z" fill="white"/>
<path fill-rule="evenodd" clip-rule="evenodd" d="M32.0067 34.6547C31.243 33.8886 31.2444 32.6488 32.0096 31.8844C32.7749 31.1199 34.0147 31.1199 34.7799 31.8844C35.5452 32.6488 35.5465 33.8886 34.7829 34.6547C34.016 35.4206 32.7736 35.4206 32.0067 34.6547Z" fill="white"/>
<path fill-rule="evenodd" clip-rule="evenodd" d="M45.8779 30.0352C45.3173 29.4747 45.1496 28.6317 45.453 27.8993C45.7563 27.1669 46.471 26.6893 47.2637 26.6893C48.0565 26.6893 48.7711 27.1669 49.0745 27.8993C49.3779 28.6317 49.2102 29.4747 48.6496 30.0352C47.8832 30.7981 46.6443 30.7981 45.8779 30.0352Z" fill="white"/>
<path fill-rule="evenodd" clip-rule="evenodd" d="M41.2543 34.6549C40.6938 34.0943 40.5261 33.2513 40.8294 32.5189C41.1328 31.7865 41.8475 31.309 42.6402 31.309C43.4329 31.309 44.1476 31.7865 44.451 32.5189C44.7543 33.2513 44.5866 34.0943 44.0261 34.6549C43.6591 35.0235 43.1604 35.2308 42.6402 35.2308C42.12 35.2308 41.6213 35.0235 41.2543 34.6549Z" fill="white"/>
<path fill-rule="evenodd" clip-rule="evenodd" d="M50.9594 34.2064C50.448 33.6949 50.4481 32.8658 50.9595 32.3544C51.471 31.843 52.3001 31.843 52.8116 32.3544C53.323 32.8658 53.3231 33.6949 52.8117 34.2064C52.5646 34.4542 52.2282 34.5923 51.8783 34.5898C51.5283 34.5873 51.194 34.4443 50.9504 34.1929L50.9594 34.2064Z" fill="white"/>
<path fill-rule="evenodd" clip-rule="evenodd" d="M46.3407 38.817C45.8319 38.307 45.8325 37.4811 46.3421 36.9719C46.8517 36.4627 47.6775 36.4627 48.1872 36.9719C48.6968 37.4811 48.6974 38.307 48.1885 38.817C47.9437 39.0623 47.6113 39.2003 47.2646 39.2003C46.918 39.2003 46.5855 39.0623 46.3407 38.817Z" fill="white"/>
<path fill-rule="evenodd" clip-rule="evenodd" d="M36.1514 30.4971C35.1312 29.4756 35.1319 27.8206 36.153 26.8C37.174 25.7794 38.829 25.7794 39.85 26.8C40.8711 27.8206 40.8718 29.4756 39.8516 30.4971C39.3611 30.9882 38.6955 31.2641 38.0015 31.2641C37.3075 31.2641 36.6419 30.9882 36.1514 30.4971Z" fill="white"/>
<path fill-rule="evenodd" clip-rule="evenodd" d="M36.1514 21.2714C35.1312 20.2499 35.1319 18.5949 36.153 17.5743C37.174 16.5537 38.829 16.5537 39.85 17.5743C40.8711 18.5949 40.8718 20.2499 39.8516 21.2714C39.3617 21.7636 38.6959 22.0403 38.0015 22.0403C37.3071 22.0403 36.6413 21.7636 36.1514 21.2714Z" fill="white"/>
<path fill-rule="evenodd" clip-rule="evenodd" d="M31.5438 25.873C30.5236 24.8515 30.5242 23.1965 31.5453 22.1759C32.5663 21.1552 34.2213 21.1552 35.2424 22.1759C36.2634 23.1965 36.2641 24.8515 35.2439 25.873C34.2215 26.8932 32.5662 26.8932 31.5438 25.873Z" fill="white"/>
<path fill-rule="evenodd" clip-rule="evenodd" d="M22.2474 25.873C21.2272 24.8515 21.2279 23.1965 22.2489 22.1759C23.2699 21.1552 24.9249 21.1552 25.946 22.1759C26.967 23.1965 26.9677 24.8515 25.9475 25.873C25.4577 26.3651 24.7919 26.6418 24.0974 26.6418C23.403 26.6418 22.7372 26.3651 22.2474 25.873Z" fill="white"/>
<path fill-rule="evenodd" clip-rule="evenodd" d="M13.474 34.6549C12.9135 34.0943 12.7458 33.2513 13.0491 32.5189C13.3525 31.7865 14.0672 31.309 14.8599 31.309C15.6527 31.309 16.3673 31.7865 16.6707 32.5189C16.9741 33.2513 16.8064 34.0943 16.2458 34.6549C15.8788 35.0235 15.3801 35.2308 14.8599 35.2308C14.3398 35.2308 13.841 35.0235 13.474 34.6549Z" fill="white"/>
<path fill-rule="evenodd" clip-rule="evenodd" d="M27.3417 30.0349C26.7812 29.4743 26.6135 28.6313 26.9168 27.8989C27.2202 27.1665 27.9349 26.689 28.7276 26.689C29.5203 26.689 30.235 27.1665 30.5384 27.8989C30.8417 28.6313 30.674 29.4743 30.1135 30.0349C29.347 30.7978 28.1081 30.7978 27.3417 30.0349Z" fill="white"/>
<path fill-rule="evenodd" clip-rule="evenodd" d="M22.7188 34.6547C21.9552 33.8886 21.9565 32.6488 22.7218 31.8844C23.487 31.1199 24.7269 31.1199 25.4921 31.8844C26.2573 32.6488 26.2587 33.8886 25.4951 34.6547C25.1279 35.0247 24.6282 35.2328 24.1069 35.2328C23.5857 35.2328 23.086 35.0247 22.7188 34.6547Z" fill="white"/>
<path fill-rule="evenodd" clip-rule="evenodd" d="M4.68816 34.2064C4.17681 33.6949 4.17687 32.8658 4.68831 32.3544C5.19974 31.843 6.0289 31.843 6.54033 32.3544C7.05177 32.8658 7.05183 33.6949 6.54048 34.2064C6.0243 34.7118 5.19694 34.7058 4.68816 34.1929V34.2064Z" fill="white"/>
<path fill-rule="evenodd" clip-rule="evenodd" d="M9.31214 38.817C8.80329 38.307 8.80391 37.4811 9.31352 36.9719C9.82314 36.4627 10.649 36.4627 11.1586 36.9719C11.6682 37.4811 11.6688 38.307 11.16 38.817C10.9151 39.0623 10.5827 39.2003 10.2361 39.2003C9.8894 39.2003 9.55698 39.0623 9.31214 38.817Z" fill="white"/>
<path fill-rule="evenodd" clip-rule="evenodd" d="M27.8046 38.817C27.2957 38.307 27.2963 37.4811 27.806 36.9719C28.3156 36.4627 29.1414 36.4627 29.651 36.9719C30.1606 37.4811 30.1613 38.307 29.6524 38.817C29.4076 39.0623 29.0751 39.2003 28.7285 39.2003C28.3818 39.2003 28.0494 39.0623 27.8046 38.817Z" fill="white"/>
<path fill-rule="evenodd" clip-rule="evenodd" d="M8.85075 30.0352C8.29019 29.4747 8.12249 28.6317 8.42586 27.8993C8.72922 27.1669 9.44389 26.6893 10.2366 26.6893C11.0294 26.6893 11.744 27.1669 12.0474 27.8993C12.3508 28.6317 12.1831 29.4747 11.6225 30.0352C10.8561 30.7981 9.61718 30.7981 8.85075 30.0352Z" fill="white"/>
<path fill-rule="evenodd" clip-rule="evenodd" d="M17.6324 30.4837C16.6122 29.4622 16.6129 27.8072 17.6339 26.7866C18.655 25.766 20.31 25.766 21.331 26.7866C22.352 27.8072 22.3527 29.4622 21.3325 30.4837C20.3128 31.5051 18.6595 31.5112 17.6324 30.4971V30.4837Z" fill="white"/>
<path fill-rule="evenodd" clip-rule="evenodd" d="M17.6325 21.2355C16.6296 20.2016 16.6516 18.5515 17.6818 17.5448C18.7119 16.5381 20.3621 16.554 21.3726 17.5804C22.3831 18.6068 22.3733 20.2571 21.3506 21.2713C20.8589 21.7668 20.1897 22.0455 19.4916 22.0455C18.7935 22.0455 18.1243 21.7668 17.6325 21.2713V21.2355Z" fill="white"/>
<path fill-rule="evenodd" clip-rule="evenodd" d="M13.0126 25.8731C12.2642 25.1255 12.0399 24.0006 12.4444 23.0232C12.849 22.0457 13.8026 21.4083 14.8605 21.4083C15.9183 21.4083 16.872 22.0457 17.2765 23.0232C17.681 24.0006 17.4568 25.1255 16.7083 25.8731C16.2186 26.3639 15.5538 26.6397 14.8605 26.6397C14.1671 26.6397 13.5023 26.3639 13.0126 25.8731Z" fill="white"/>
</svg>
