<svg width="57" height="56" viewBox="0 0 57 56" fill="none" xmlns="http://www.w3.org/2000/svg">
<path fill-rule="evenodd" clip-rule="evenodd" d="M40.7928 25.8731C40.0443 25.1255 39.8201 24.0006 40.2246 23.0232C40.6291 22.0457 41.5828 21.4083 42.6406 21.4083C43.6985 21.4083 44.6521 22.0457 45.0567 23.0232C45.4612 24.0006 45.2369 25.1255 44.4885 25.8731C43.9988 26.3639 43.334 26.6397 42.6406 26.6397C41.9473 26.6397 41.2825 26.3639 40.7928 25.8731Z" fill="black"/>
<path fill-rule="evenodd" clip-rule="evenodd" d="M32.0066 34.6547C31.243 33.8886 31.2443 32.6488 32.0095 31.8844C32.7748 31.1199 34.0146 31.1199 34.7799 31.8844C35.5451 32.6488 35.5464 33.8886 34.7828 34.6547C34.0159 35.4206 32.7735 35.4206 32.0066 34.6547Z" fill="black"/>
<path fill-rule="evenodd" clip-rule="evenodd" d="M45.8778 30.0352C45.3172 29.4747 45.1495 28.6317 45.4529 27.8993C45.7563 27.1669 46.4709 26.6893 47.2637 26.6893C48.0564 26.6893 48.7711 27.1669 49.0744 27.8993C49.3778 28.6317 49.2101 29.4747 48.6495 30.0352C47.8831 30.7981 46.6442 30.7981 45.8778 30.0352Z" fill="black"/>
<path fill-rule="evenodd" clip-rule="evenodd" d="M41.2543 34.6549C40.6938 34.0943 40.5261 33.2513 40.8294 32.5189C41.1328 31.7865 41.8475 31.309 42.6402 31.309C43.433 31.309 44.1476 31.7865 44.451 32.5189C44.7544 33.2513 44.5867 34.0943 44.0261 34.6549C43.6591 35.0235 43.1604 35.2308 42.6402 35.2308C42.1201 35.2308 41.6213 35.0235 41.2543 34.6549Z" fill="black"/>
<path fill-rule="evenodd" clip-rule="evenodd" d="M50.9594 34.2064C50.448 33.6949 50.4481 32.8658 50.9595 32.3544C51.471 31.843 52.3001 31.843 52.8115 32.3544C53.323 32.8658 53.323 33.6949 52.8117 34.2064C52.5645 34.4542 52.2282 34.5923 51.8782 34.5898C51.5283 34.5873 51.194 34.4443 50.9504 34.1929L50.9594 34.2064Z" fill="black"/>
<path fill-rule="evenodd" clip-rule="evenodd" d="M46.3407 38.817C45.8319 38.307 45.8325 37.4811 46.3421 36.9719C46.8517 36.4627 47.6776 36.4627 48.1872 36.9719C48.6968 37.4811 48.6974 38.307 48.1886 38.817C47.9437 39.0623 47.6113 39.2003 47.2647 39.2003C46.918 39.2003 46.5856 39.0623 46.3407 38.817Z" fill="black"/>
<path fill-rule="evenodd" clip-rule="evenodd" d="M36.1515 30.4971C35.1313 29.4756 35.132 27.8206 36.153 26.8C37.1741 25.7794 38.8291 25.7794 39.8501 26.8C40.8712 27.8206 40.8718 29.4756 39.8516 30.4971C39.3612 30.9882 38.6956 31.2641 38.0016 31.2641C37.3075 31.2641 36.6419 30.9882 36.1515 30.4971Z" fill="black"/>
<path fill-rule="evenodd" clip-rule="evenodd" d="M36.1515 21.2714C35.1313 20.2499 35.132 18.5949 36.153 17.5743C37.1741 16.5537 38.8291 16.5537 39.8501 17.5743C40.8712 18.5949 40.8718 20.2499 39.8516 21.2714C39.3618 21.7636 38.696 22.0403 38.0016 22.0403C37.3071 22.0403 36.6414 21.7636 36.1515 21.2714Z" fill="black"/>
<path fill-rule="evenodd" clip-rule="evenodd" d="M31.5436 25.873C30.5234 24.8515 30.5241 23.1965 31.5451 22.1759C32.5662 21.1552 34.2211 21.1552 35.2422 22.1759C36.2632 23.1965 36.2639 24.8515 35.2437 25.873C34.2213 26.8932 32.566 26.8932 31.5436 25.873Z" fill="black"/>
<path fill-rule="evenodd" clip-rule="evenodd" d="M22.2472 25.873C21.227 24.8515 21.2277 23.1965 22.2487 22.1759C23.2698 21.1552 24.9248 21.1552 25.9458 22.1759C26.9669 23.1965 26.9675 24.8515 25.9473 25.873C25.4575 26.3651 24.7917 26.6418 24.0973 26.6418C23.4028 26.6418 22.7371 26.3651 22.2472 25.873Z" fill="black"/>
<path fill-rule="evenodd" clip-rule="evenodd" d="M13.4741 34.6549C12.9135 34.0943 12.7458 33.2513 13.0492 32.5189C13.3525 31.7865 14.0672 31.309 14.86 31.309C15.6527 31.309 16.3674 31.7865 16.6707 32.5189C16.9741 33.2513 16.8064 34.0943 16.2458 34.6549C15.8789 35.0235 15.3801 35.2308 14.86 35.2308C14.3398 35.2308 13.8411 35.0235 13.4741 34.6549Z" fill="black"/>
<path fill-rule="evenodd" clip-rule="evenodd" d="M27.3416 30.0349C26.781 29.4743 26.6133 28.6313 26.9167 27.8989C27.2201 27.1665 27.9347 26.689 28.7275 26.689C29.5202 26.689 30.2349 27.1665 30.5383 27.8989C30.8416 28.6313 30.6739 29.4743 30.1134 30.0349C29.3469 30.7978 28.108 30.7978 27.3416 30.0349Z" fill="black"/>
<path fill-rule="evenodd" clip-rule="evenodd" d="M22.7187 34.6547C21.9551 33.8886 21.9564 32.6488 22.7216 31.8844C23.4869 31.1199 24.7267 31.1199 25.4919 31.8844C26.2572 32.6488 26.2585 33.8886 25.4949 34.6547C25.1278 35.0247 24.6281 35.2328 24.1068 35.2328C23.5855 35.2328 23.0858 35.0247 22.7187 34.6547Z" fill="black"/>
<path fill-rule="evenodd" clip-rule="evenodd" d="M4.6881 34.2064C4.17674 33.6949 4.17681 32.8658 4.68825 32.3544C5.19968 31.843 6.02884 31.843 6.54027 32.3544C7.05171 32.8658 7.05177 33.6949 6.54042 34.2064C6.02424 34.7118 5.19688 34.7058 4.6881 34.1929V34.2064Z" fill="black"/>
<path fill-rule="evenodd" clip-rule="evenodd" d="M9.31214 38.817C8.80329 38.307 8.80391 37.4811 9.31352 36.9719C9.82314 36.4627 10.649 36.4627 11.1586 36.9719C11.6682 37.4811 11.6688 38.307 11.16 38.817C10.9151 39.0623 10.5827 39.2003 10.2361 39.2003C9.8894 39.2003 9.55698 39.0623 9.31214 38.817Z" fill="black"/>
<path fill-rule="evenodd" clip-rule="evenodd" d="M27.8045 38.817C27.2957 38.307 27.2963 37.4811 27.8059 36.9719C28.3155 36.4627 29.1413 36.4627 29.651 36.9719C30.1606 37.4811 30.1612 38.307 29.6523 38.817C29.4075 39.0623 29.0751 39.2003 28.7284 39.2003C28.3818 39.2003 28.0494 39.0623 27.8045 38.817Z" fill="black"/>
<path fill-rule="evenodd" clip-rule="evenodd" d="M8.8506 30.0352C8.29004 29.4747 8.12234 28.6317 8.4257 27.8993C8.72906 27.1669 9.44374 26.6893 10.2365 26.6893C11.0292 26.6893 11.7439 27.1669 12.0473 27.8993C12.3506 28.6317 12.1829 29.4747 11.6224 30.0352C10.8559 30.7981 9.61703 30.7981 8.8506 30.0352Z" fill="black"/>
<path fill-rule="evenodd" clip-rule="evenodd" d="M17.6322 30.4837C16.612 29.4622 16.6127 27.8072 17.6338 26.7866C18.6548 25.766 20.3098 25.766 21.3308 26.7866C22.3519 27.8072 22.3526 29.4622 21.3324 30.4837C20.3126 31.5051 18.6594 31.5112 17.6322 30.4971V30.4837Z" fill="black"/>
<path fill-rule="evenodd" clip-rule="evenodd" d="M17.6324 21.2355C16.6295 20.2016 16.6515 18.5515 17.6816 17.5448C18.7117 16.5381 20.362 16.554 21.3725 17.5804C22.383 18.6068 22.3731 20.2571 21.3505 21.2713C20.8587 21.7668 20.1895 22.0455 19.4914 22.0455C18.7933 22.0455 18.1241 21.7668 17.6324 21.2713V21.2355Z" fill="black"/>
<path fill-rule="evenodd" clip-rule="evenodd" d="M13.0125 25.8731C12.264 25.1255 12.0398 24.0006 12.4443 23.0232C12.8488 22.0457 13.8025 21.4083 14.8603 21.4083C15.9182 21.4083 16.8718 22.0457 17.2764 23.0232C17.6809 24.0006 17.4566 25.1255 16.7082 25.8731C16.2185 26.3639 15.5537 26.6397 14.8603 26.6397C14.167 26.6397 13.5022 26.3639 13.0125 25.8731Z" fill="black"/>
</svg>
