<svg viewBox="0 0 40 40" focusable="false"  xmlns="http://www.w3.org/2000/svg">
<path d="M0 20C0 8.95431 8.95431 0 20 0C31.0457 0 40 8.95431 40 20C40 31.0457 31.0457 40 20 40C8.95431 40 0 31.0457 0 20Z" fill="#8247E5"></path>
<path d="M26.1723 15.8543C25.7337 15.6036 25.1697 15.6036 24.6684 15.8543L21.1593 17.9222L18.7781 19.2381L15.3316 21.306C14.893 21.5567 14.329 21.5567 13.8277 21.306L11.1332 19.6768C10.6945 19.4261 10.3812 18.9248 10.3812 18.3608V15.2277C10.3812 14.7264 10.6319 14.2251 11.1332 13.9117L13.8277 12.3452C14.2663 12.0945 14.8303 12.0945 15.3316 12.3452L18.0261 13.9744C18.4648 14.2251 18.7781 14.7264 18.7781 15.2903V17.3582L21.1593 15.9796V13.8491C21.1593 13.3478 20.9086 12.8465 20.4073 12.5332L15.3943 9.58798C14.9556 9.33733 14.3916 9.33733 13.8903 9.58798L8.75196 12.5958C8.25065 12.8465 8 13.3478 8 13.8491V19.7394C8 20.2407 8.25065 20.742 8.75196 21.0553L13.8277 24.0005C14.2663 24.2512 14.8303 24.2512 15.3316 24.0005L18.7781 21.9953L21.1593 20.6167L24.6057 18.6115C25.0444 18.3608 25.6084 18.3608 26.1097 18.6115L28.8042 20.1781C29.2428 20.4287 29.5561 20.93 29.5561 21.494V24.6271C29.5561 25.1285 29.3055 25.6298 28.8042 25.9431L26.1723 27.5097C25.7337 27.7603 25.1697 27.7603 24.6684 27.5097L21.9739 25.9431C21.5352 25.6924 21.2219 25.1911 21.2219 24.6271V22.6219L18.8407 24.0005V26.0684C18.8407 26.5697 19.0914 27.071 19.5927 27.3843L24.6684 30.3295C25.107 30.5801 25.671 30.5801 26.1723 30.3295L31.248 27.3843C31.6867 27.1337 32 26.6324 32 26.0684V20.1154C32 19.6141 31.7493 19.1128 31.248 18.7995L26.1723 15.8543Z" fill="white"></path>
</svg>