<svg width="54" height="54" viewBox="0 0 54 54" fill="none" xmlns="http://www.w3.org/2000/svg">
<circle cx="27" cy="27" r="26.1905" fill="#12193E"/>
<mask id="mask0_36_848" style="mask-type:alpha" maskUnits="userSpaceOnUse" x="0" y="0" width="54" height="54">
<circle cx="27" cy="27" r="26.1905" fill="white"/>
</mask>
<g mask="url(#mask0_36_848)">
<path fill-rule="evenodd" clip-rule="evenodd" d="M10.2423 35.5276C10.2423 37.774 12.2283 39.5712 14.6435 39.5712H15.0729L14.9655 20.9513C14.9655 20.3022 15.1266 19.7531 15.4486 19.254C15.7707 18.7546 16.2538 18.4054 16.8978 18.1058C17.5418 17.8563 18.1861 17.7563 18.7764 17.8563C19.367 17.9559 19.9573 18.2058 20.4404 18.6549L28.2769 25.1944C28.3303 25.2444 28.6526 25.494 28.9209 25.7435C29.726 26.3926 30.1555 26.7418 30.1555 27.79C30.1555 28.6886 29.7797 29.4873 29.1357 30.0866C28.4914 30.6854 27.6329 31.0349 26.6665 31.0349C25.7005 31.0349 24.8417 30.6854 24.1977 30.0866C23.5533 29.4873 23.1776 28.6886 23.1776 27.79C23.1776 26.6918 23.6608 26.2926 24.5197 25.5939C24.6271 25.494 25.2711 24.9446 25.5394 24.745L21.9433 21.7499L21.299 22.299C19.367 23.8964 18.347 24.745 18.347 27.84C18.347 29.9867 19.2596 31.8836 20.7625 33.2813C22.2653 34.679 24.3585 35.5276 26.6128 35.5276C28.9209 35.5276 30.9606 34.679 32.4635 33.2813C33.9664 31.8836 34.8787 29.9367 34.8787 27.84C34.8787 24.795 33.8052 23.8964 31.9266 22.4487C31.8192 22.349 31.7118 22.2491 31.3363 21.9495L23.6608 15.3104C22.4799 14.3118 21.0307 13.6628 19.5279 13.4632C18.025 13.2636 16.4684 13.4132 14.9655 14.0623C13.4626 14.6613 12.2817 15.6599 11.4769 16.8577C10.6717 18.0559 10.1886 19.4536 10.2423 20.9513V35.5276Z" fill="white"/>
<path fill-rule="evenodd" clip-rule="evenodd" d="M32.1057 19.5332L33.1048 18.6858C33.6044 18.2371 34.2149 17.988 34.8256 17.8883C35.4361 17.7888 36.1021 17.8883 36.7681 18.1377C37.3786 18.3868 37.8782 18.7856 38.2669 19.2841C38.5998 19.7823 38.8221 20.3308 38.7665 20.9789L38.6553 39.5712H39.0994C41.5973 39.5712 43.5957 37.7766 43.651 35.5336L43.7621 20.9789C43.7621 19.4833 43.3181 18.0379 42.4854 16.8915C41.6529 15.6952 40.3761 14.748 38.8776 14.1001C37.3233 13.5021 35.7137 13.3025 34.1593 13.5021C32.6052 13.7013 31.1065 14.3495 29.8853 15.3463L28.8864 16.1937L27.8869 17.0408L31.6061 20.0318L32.1057 19.5332Z" fill="#4CA9DC"/>
</g>
</svg>
