<svg width="24" height="24" viewBox="0 0 24 24" fill="none" xmlns="http://www.w3.org/2000/svg">
<path fill-rule="evenodd" clip-rule="evenodd" d="M2.00232 16.8986C2.00232 18.2069 3.13978 19.2536 4.52302 19.2536H4.76897L4.70744 8.40911C4.70744 8.0311 4.79973 7.7113 4.98415 7.4206C5.16857 7.12973 5.44529 6.92635 5.81413 6.75189C6.18297 6.60654 6.55198 6.54834 6.89006 6.60654C7.2283 6.66458 7.56638 6.8101 7.8431 7.0717L12.3312 10.8804C12.3618 10.9095 12.5464 11.0548 12.7001 11.2002C13.1612 11.5782 13.4072 11.7816 13.4072 12.3921C13.4072 12.9154 13.192 13.3806 12.8231 13.7297C12.4541 14.0784 11.9624 14.282 11.409 14.282C10.8557 14.282 10.3638 14.0784 9.99495 13.7297C9.62594 13.3806 9.41075 12.9154 9.41075 12.3921C9.41075 11.7525 9.68747 11.52 10.1794 11.113C10.2409 11.0548 10.6097 10.7349 10.7634 10.6186L8.70384 8.87426L8.33483 9.19406C7.2283 10.1244 6.64411 10.6186 6.64411 12.4212C6.64411 13.6715 7.16677 14.7762 8.02752 15.5903C8.88826 16.4043 10.0871 16.8986 11.3782 16.8986C12.7001 16.8986 13.8683 16.4043 14.729 15.5903C15.5898 14.7762 16.1123 13.6424 16.1123 12.4212C16.1123 10.6477 15.4975 10.1244 14.4215 9.2812C14.36 9.22317 14.2985 9.16496 14.0835 8.99051L9.68747 5.12378C9.01115 4.54221 8.18117 4.1642 7.32043 4.04796C6.45969 3.93171 5.56818 4.01885 4.70744 4.39686C3.8467 4.74577 3.17038 5.32734 2.70941 6.02498C2.24828 6.72279 1.97156 7.53685 2.00232 8.40911V16.8986Z" fill="#12193E"/>
<path fill-rule="evenodd" clip-rule="evenodd" d="M14.524 7.5833L15.0963 7.08975C15.3824 6.82845 15.732 6.68336 16.0818 6.62525C16.4314 6.56732 16.8129 6.62525 17.1943 6.77051C17.544 6.91561 17.8301 7.14785 18.0527 7.43821C18.2434 7.72839 18.3707 8.0478 18.3389 8.42531L18.2752 19.2537H18.5295C19.9602 19.2537 21.1047 18.2085 21.1363 16.9021L21.2 8.42531C21.2 7.55425 20.9457 6.71241 20.4688 6.04471C19.992 5.34797 19.2607 4.79631 18.4025 4.41897C17.5123 4.07068 16.5904 3.95447 15.7002 4.07068C14.8102 4.18672 13.9518 4.56423 13.2523 5.14477L12.6803 5.63832L12.1078 6.1317L14.2379 7.87365L14.524 7.5833Z" fill="#4CA9DC"/>
</svg>
