<svg width="24" height="24" viewBox="0 0 24 24" fill="none" xmlns="http://www.w3.org/2000/svg">
<path d="M20.3238 5.96328L22 4.35273V4H16.1949L12.0578 14.3469L7.35195 4H1.26523V4.35273L3.22305 6.7207C3.41445 6.8957 3.51289 7.15273 3.48828 7.40977V16.7148C3.54844 17.0512 3.4418 17.393 3.20664 17.6363L1 20.3242V20.6715H7.25078V20.3188L5.04688 17.6391C4.80898 17.3957 4.69414 17.0566 4.74336 16.7176V8.66758L10.2312 20.677H10.8684L15.5879 8.66758V18.2352C15.5879 18.4867 15.5879 18.5387 15.4238 18.7055L13.7258 20.3543V20.707H21.9617V20.3543L20.3238 18.7438C20.1816 18.6344 20.1078 18.4512 20.1379 18.2734V6.43359C20.1078 6.25586 20.1816 6.07266 20.3238 5.96328Z" fill="#777E90"/>
</svg>
