<svg width="24" height="24" viewBox="0 0 24 24" fill="none" xmlns="http://www.w3.org/2000/svg">
<mask id="mask0_875_12887" style="mask-type:alpha" maskUnits="userSpaceOnUse" x="0" y="0" width="24" height="24">
<rect width="24" height="24" fill="black" fill-opacity="0.85"/>
</mask>
<g mask="url(#mask0_875_12887)">
<path d="M12 1.875C6.40865 1.875 1.875 6.40865 1.875 12C1.875 17.5913 6.40865 22.125 12 22.125C17.5913 22.125 22.125 17.5913 22.125 12C22.125 6.40865 17.5913 1.875 12 1.875ZM17.7857 7.60873L16.8636 8.49241C16.7823 8.55343 16.7438 8.65287 16.7597 8.75006V15.2522C16.7438 15.3516 16.7823 15.4511 16.8636 15.5098L17.7676 16.3935V16.5901H13.2295V16.4026L14.1629 15.4963C14.2555 15.4036 14.2555 15.3765 14.2555 15.2386V9.97726L11.6565 16.5675H11.3062L8.28223 9.97726V14.3956C8.25511 14.581 8.32065 14.7686 8.45173 14.9019L9.66763 16.3732V16.5698H6.21429V16.3732L7.43019 14.9019C7.49425 14.8357 7.54193 14.7555 7.5694 14.6676C7.59687 14.5796 7.60338 14.4865 7.58839 14.3956V9.28795C7.60421 9.14556 7.54997 9.0077 7.44149 8.91052L6.36119 7.60873V7.41211H9.71735L12.3074 13.0961L14.5878 7.41663H17.7857V7.60873Z" fill="black"/>
</g>
</svg>
