<svg width="16" height="16" viewBox="0 0 16 16" fill="none" xmlns="http://www.w3.org/2000/svg">
<path d="M5.04781 4.25822H5.07167C5.1671 4.2105 5.26252 4.16279 5.35795 4.13893V2.23039C5.35795 1.89639 5.07167 1.61011 4.73767 1.61011H2.16113V7.04947C2.78141 5.83277 3.80726 4.85464 5.04781 4.25822Z" fill="#777E90"/>
<path fill-rule="evenodd" clip-rule="evenodd" d="M8.25189 7.58445H7.67932C6.41491 7.58445 5.36521 8.61029 5.36521 9.89856V14.3836H2.78867C2.45467 14.3836 2.16839 14.0974 2.16839 13.7634V10.3041C2.14453 10.1848 2.14453 10.0417 2.14453 9.92242C2.14453 9.80313 2.14453 9.68385 2.16839 9.54071C2.35924 6.63017 4.79264 4.36377 7.70318 4.36377C8.03718 4.36377 9.46859 4.38763 9.77873 4.4592V6.08146C9.75487 6.91645 9.08688 7.58445 8.25189 7.58445ZM10.9351 11.7518H10.9589C12.1995 11.1553 13.2253 10.1772 13.8456 8.96051V14.3999H11.2691C10.9351 14.3999 10.6488 14.1136 10.6488 13.7796V11.871C10.7442 11.8472 10.8397 11.7995 10.9351 11.7518Z" fill="#777E90"/>
<path d="M13.8666 5.68963V2.23039C13.8666 1.89639 13.5803 1.61011 13.2225 1.61011H10.6459V6.11905C10.6459 7.40732 9.59624 8.43317 8.33183 8.43317H7.75926C6.92427 8.43317 6.25628 9.10116 6.23242 9.93615V11.5584C6.54256 11.6061 7.97397 11.6538 8.30797 11.6538H8.42725C9.21453 11.63 9.97795 11.463 10.6698 11.129H10.6937C12.5306 10.2701 13.7473 8.48088 13.8905 6.47691C13.8905 6.35762 13.9143 6.21448 13.9143 6.0952C13.9143 5.97591 13.8666 5.83277 13.8666 5.68963Z" fill="#777E90"/>
</svg>
