<svg width="14" height="16" viewBox="0 0 14 16" fill="none" xmlns="http://www.w3.org/2000/svg">
<path d="M6.9877 1.80317L4.41138 3.35238L2.88513 2.45079L6.97548 0L11.0658 2.45079L9.564 3.35238L6.9877 1.80317Z" fill="#777E90"/>
<path d="M9.57632 4.64746L11.0781 5.54905V7.35222L8.50183 8.90143V11.9998L7 12.9014L5.49816 11.9998V8.90143L2.92188 7.35222V5.54905L4.4237 4.64746L7 6.19667L9.57632 4.64746Z" fill="#777E90"/>
<path d="M11.0782 8.64746V10.4506L9.57635 11.3522V9.54905L11.0782 8.64746Z" fill="#777E90"/>
<path d="M9.57635 12.6478L12.1526 11.0986H12.1649V8.00022L13.6667 7.09863V12.0002L9.57635 14.451V12.6478Z" fill="#777E90"/>
<path d="M12.1526 4.90181L10.6508 4.00022L12.1526 3.09863L13.6544 4.00022V5.80339L12.1526 6.70498V4.90181Z" fill="#777E90"/>
<path d="M5.48596 15.0986V13.2954L6.98779 14.197L8.48959 13.2954V15.0986L6.98779 16.0002L5.48596 15.0986Z" fill="#777E90"/>
<path d="M4.4115 11.3522L2.90967 10.4506V8.64746L4.4115 9.54905V11.3522Z" fill="#777E90"/>
<path d="M6.98779 4.90181L5.48596 4.00022L6.98779 3.09863L8.48959 4.00022L6.98779 4.90181Z" fill="#777E90"/>
<path d="M3.33696 4.00022L1.83512 4.90181V6.70498L0.333313 5.80339V4.00022L1.83512 3.09863L3.33696 4.00022Z" fill="#777E90"/>
<path d="M0.333313 7.09863L1.83512 8.00022H1.84734V11.0986L4.42366 12.6478V14.451L0.333313 12.0002V7.09863Z" fill="#777E90"/>
</svg>
