<svg width="24" height="24" viewBox="0 0 24 24" fill="none" xmlns="http://www.w3.org/2000/svg">
<path d="M9.29053 12C9.29053 12.7187 9.57601 13.4079 10.0842 13.9161C10.5923 14.4242 11.2816 14.7097 12.0002 14.7097C12.7189 14.7097 13.4081 14.4242 13.9162 13.9161C14.4244 13.4079 14.7099 12.7187 14.7099 12C14.7099 11.6442 14.6398 11.2918 14.5036 10.9631C14.3674 10.6343 14.1679 10.3356 13.9162 10.084C13.6646 9.83237 13.3659 9.63278 13.0372 9.49661C12.7084 9.36043 12.356 9.29034 12.0002 9.29034C11.6444 9.29034 11.292 9.36043 10.9633 9.49661C10.6345 9.63278 10.3358 9.83237 10.0842 10.084C9.83256 10.3356 9.63296 10.6343 9.49679 10.9631C9.36062 11.2918 9.29053 11.6442 9.29053 12Z" fill="white" fill-opacity="0.92"/>
<path d="M18.1934 12C18.1933 12.2288 18.2384 12.4553 18.3259 12.6667C18.4134 12.878 18.5417 13.0701 18.7035 13.2319C18.8652 13.3937 19.0573 13.522 19.2686 13.6095C19.48 13.6971 19.7065 13.7421 19.9353 13.7421C20.1641 13.7421 20.3906 13.6971 20.602 13.6095C20.8133 13.522 21.0053 13.3937 21.1671 13.2319C21.3289 13.0701 21.4572 12.878 21.5447 12.6667C21.6322 12.4553 21.6773 12.2288 21.6772 12C21.6773 11.7712 21.6322 11.5447 21.5447 11.3333C21.4572 11.122 21.3289 10.9299 21.1671 10.7681C21.0053 10.6064 20.8133 10.478 20.602 10.3905C20.3906 10.3029 20.1641 10.2579 19.9353 10.2579C19.7065 10.2579 19.48 10.3029 19.2686 10.3905C19.0573 10.478 18.8652 10.6064 18.7035 10.7681C18.5417 10.9299 18.4134 11.122 18.3259 11.3333C18.2384 11.5447 18.1933 11.7712 18.1934 12Z" fill="white" fill-opacity="0.92"/>
<path d="M2.32275 12C2.32273 12.2288 2.36776 12.4553 2.45529 12.6667C2.54282 12.878 2.67113 13.0701 2.83288 13.2319C2.99464 13.3937 3.18668 13.522 3.39803 13.6095C3.60939 13.6971 3.83592 13.7421 4.06469 13.7421C4.29346 13.7421 4.51999 13.6971 4.73135 13.6095C4.9427 13.522 5.13474 13.3937 5.2965 13.2319C5.45825 13.0701 5.58656 12.878 5.67409 12.6667C5.76161 12.4553 5.80665 12.2288 5.80662 12C5.80665 11.7712 5.76161 11.5447 5.67409 11.3333C5.58656 11.122 5.45825 10.9299 5.2965 10.7681C5.13474 10.6064 4.9427 10.478 4.73135 10.3905C4.51999 10.3029 4.29346 10.2579 4.06469 10.2579C3.83592 10.2579 3.60939 10.3029 3.39803 10.3905C3.18668 10.478 2.99464 10.6064 2.83288 10.7681C2.67113 10.9299 2.54282 11.122 2.45529 11.3333C2.36776 11.5447 2.32273 11.7712 2.32275 12Z" fill="white" fill-opacity="0.92"/>
</svg>
