<svg width="18" height="18" viewBox="0 0 18 18" fill="none" xmlns="http://www.w3.org/2000/svg">
<g clip-path="url(#clip0_6704_5285)">
<path d="M12.2043 10.953C9.6143 10.4101 7.58994 8.38571 7.04708 5.7957C6.98039 5.47776 6.69997 5.25 6.37502 5.25C6.05007 5.25 5.76965 5.47776 5.703 5.79574C5.1601 8.38571 3.13574 10.41 0.545784 10.9529C0.227803 11.0195 0 11.3 0 11.6249C0 11.9498 0.227761 12.2303 0.545784 12.2969C3.1357 12.8399 5.15997 14.8642 5.70288 17.4542C5.76952 17.7722 6.04995 18 6.3749 18C6.6998 18 6.98027 17.7722 7.04691 17.4542C7.58986 14.8642 9.61425 12.8399 12.2042 12.2971C12.5222 12.2305 12.75 11.95 12.75 11.6251C12.75 11.3001 12.5222 11.0197 12.2043 10.953Z" fill="#3772FF"/>
<path d="M17.5512 14.4473C16.5476 14.237 15.7631 13.4525 15.5527 12.4489C15.4979 12.1874 15.2673 12 15 12C14.7328 12 14.5022 12.1873 14.4473 12.4488C14.2369 13.4525 13.4525 14.2369 12.4489 14.4473C12.1874 14.5021 12 14.7327 12 15C12 15.2672 12.1873 15.4978 12.4489 15.5527C13.4524 15.763 14.2369 16.5475 14.4473 17.5511C14.5021 17.8126 14.7327 18 15 18C15.2672 18 15.4978 17.8127 15.5527 17.5511C15.7631 16.5475 16.5475 15.7631 17.5512 15.5527C17.8127 15.4979 18 15.2672 18 15C18 14.7328 17.8127 14.5022 17.5512 14.4473Z" fill="#3772FF"/>
<path d="M4.16335 1.83548C3.41066 1.67772 2.82234 1.0894 2.66453 0.336656C2.62342 0.140516 2.45045 0 2.25001 0C2.0496 0 1.8766 0.140464 1.8355 0.33663C1.67768 1.08935 1.08934 1.67767 0.336654 1.83545C0.140515 1.87656 0 2.04956 0 2.24997C0 2.45039 0.140489 2.62339 0.336654 2.66449C1.08932 2.82228 1.67766 3.41062 1.83544 4.16334C1.87655 4.35948 2.04952 4.5 2.24996 4.5C2.45037 4.5 2.62337 4.35954 2.66448 4.16334C2.82229 3.41062 3.41063 2.82231 4.16335 2.66452C4.35949 2.62341 4.5 2.45041 4.5 2.25C4.5 2.04959 4.35951 1.87661 4.16335 1.83548Z" fill="#3772FF"/>
<path d="M17.4545 3.82834C15.8059 3.48273 14.5173 2.19413 14.1717 0.545529C14.1051 0.227696 13.8248 0 13.5 0C13.1753 0 12.8949 0.227613 12.8283 0.545488C12.4827 2.19413 11.1942 3.48269 9.54553 3.82826C9.2277 3.89487 9 4.1752 9 4.49996C9 4.82471 9.22766 5.10501 9.54553 5.17166C11.1941 5.51727 12.4827 6.80583 12.8283 8.45447C12.8949 8.7723 13.1752 9 13.5 9C13.8247 9 14.105 8.77239 14.1717 8.45447C14.5173 6.80583 15.8059 5.51727 17.4545 5.17174C17.7723 5.10509 18 4.8248 18 4.50004C18 4.17529 17.7723 3.89495 17.4545 3.82834Z" fill="#3772FF"/>
</g>
<defs>
<clipPath id="clip0_6704_5285">
<rect width="18" height="18" fill="white"/>
</clipPath>
</defs>
</svg>
