<svg width="20" height="20" viewBox="0 0 20 20" fill="none" xmlns="http://www.w3.org/2000/svg">
<path d="M2 4L2 10.1413C2 10.4066 2.10536 10.6609 2.29289 10.8484L9.32312 17.8787C10.4947 19.0503 12.3942 19.0503 13.5658 17.8787L16.8787 14.5658C18.0503 13.3942 18.0503 11.4947 16.8787 10.3231L9.84845 3.29289C9.66091 3.10536 9.40656 3 9.14134 3H3C2.44772 3 2 3.44772 2 4Z" stroke="#3772FF" stroke-width="1.5" stroke-linejoin="round"/>
<path d="M4.60965 6.54167C4.60965 7.2623 5.19328 7.8465 5.91447 7.8465C6.63449 7.8465 7.2193 7.2623 7.2193 6.54167C7.2193 5.82105 6.63449 5.23666 5.91447 5.23666C5.19347 5.23666 4.60965 5.82105 4.60965 6.54167Z" fill="#3772FF"/>
</svg>
