<svg width="30" height="30" viewBox="0 0 30 30" fill="none" xmlns="http://www.w3.org/2000/svg">
<mask id="mask0_918_16656" style="mask-type:alpha" maskUnits="userSpaceOnUse" x="0" y="0" width="30" height="30">
<rect width="30" height="30" fill="white"/>
</mask>
<g mask="url(#mask0_918_16656)">
<path fill-rule="evenodd" clip-rule="evenodd" d="M6.86398 6.19693H0.860012C0.385041 6.19693 0 6.58197 0 7.05695C0 7.53192 0.385041 7.91696 0.860012 7.91696H5.1865C5.54656 7.91652 5.86118 8.16006 5.95101 8.50874L9.50753 22.3404H11.8298C10.6677 22.7033 9.94481 23.8605 10.1284 25.064C10.3119 26.2676 11.3469 27.1567 12.5643 27.1567C13.7818 27.1567 14.8168 26.2676 15.0003 25.064C15.1839 23.8605 14.461 22.7033 13.2988 22.3404H24.937C23.8412 22.7803 23.2114 23.9356 23.4354 25.0949C23.6594 26.2543 24.6743 27.0918 25.855 27.0918C27.0358 27.0918 28.0507 26.2543 28.2747 25.0949C28.4987 23.9356 27.8688 22.7803 26.7731 22.3404H28.3932V20.6203H11.4519C11.0918 20.6207 10.7772 20.3772 10.6873 20.0286L7.19685 6.45562C7.16169 6.3011 7.0224 6.19285 6.86398 6.19693ZM12.2547 8.96751L12.2832 9.25637H9.54767L9.10612 7.53635H12.2389L12.2261 7.81173C12.22 7.94098 12.217 8.07006 12.217 8.19896C12.2171 8.45587 12.2297 8.71205 12.2547 8.96751ZM30 7.53635H27.7501L27.7639 7.81266C27.7703 7.94125 27.7735 8.07002 27.7734 8.19896C27.7734 8.45555 27.7607 8.71158 27.7352 8.96704L27.7064 9.25637H30V7.53635ZM12.0642 19.0413H26.6224L28.7328 10.8356H27.3149L27.2498 11.0035C26.0911 14.0009 23.2085 15.9772 19.9949 15.9772C16.7814 15.9772 13.8987 14.0009 12.7401 11.0035L12.6749 10.8356H9.95354L12.0642 19.0413Z" fill="black" fill-opacity="0.85"/>
<path fill-rule="evenodd" clip-rule="evenodd" d="M26.1937 8.1993C26.1939 4.77572 23.4187 2.00023 19.9951 2C16.5725 2.00262 13.7985 4.77642 13.7957 8.19903C13.7957 11.6226 16.571 14.398 19.9945 14.3981C23.4181 14.3981 26.1936 11.6229 26.1937 8.1993ZM17.5127 7.57873C17.305 7.55164 17.1166 7.44312 16.989 7.27708H16.9889C16.8611 7.11128 16.8044 6.90143 16.8315 6.69382C16.8586 6.48621 16.9671 6.29789 17.1332 6.1704L19.5136 4.33747C19.7974 4.11887 20.1928 4.11887 20.4765 4.33747L22.857 6.17028C23.2005 6.43699 23.2637 6.93125 22.9984 7.27581C22.733 7.62037 22.239 7.68551 21.8934 7.42151L20.7846 6.56999V11.4324C20.7846 11.8685 20.4311 12.222 19.995 12.222C19.559 12.222 19.2054 11.8685 19.2054 11.4324V6.57017L18.0964 7.42157C17.9304 7.5493 17.7204 7.60583 17.5127 7.57873Z" fill="#24C063"/>
</g>
</svg>
