<svg width="69" height="32" viewBox="0 0 69 32" fill="none" xmlns="http://www.w3.org/2000/svg">
<path fill-rule="evenodd" clip-rule="evenodd" d="M51.0857 13.0601C50.0515 12.0271 49.7416 10.4727 50.3006 9.12203C50.8596 7.77139 52.1773 6.89062 53.6391 6.89062C55.1008 6.89062 56.4186 7.77139 56.9776 9.12203C57.5365 10.4727 57.2266 12.0271 56.1924 13.0601C55.5158 13.7383 54.5971 14.1194 53.6391 14.1194C52.6811 14.1194 51.7624 13.7383 51.0857 13.0601Z" fill="white"/>
<path fill-rule="evenodd" clip-rule="evenodd" d="M38.9452 25.1945C37.89 24.1359 37.8919 22.4227 38.9493 21.3664C40.0067 20.3101 41.7199 20.3101 42.7773 21.3664C43.8347 22.4227 43.8366 24.1359 42.7814 25.1945C41.7216 26.2528 40.005 26.2528 38.9452 25.1945Z" fill="white"/>
<path fill-rule="evenodd" clip-rule="evenodd" d="M58.1137 18.8118C57.3391 18.0373 57.1074 16.8724 57.5265 15.8604C57.9457 14.8483 58.9333 14.1885 60.0287 14.1885C61.1241 14.1885 62.1116 14.8483 62.5308 15.8604C62.95 16.8724 62.7182 18.0373 61.9437 18.8118C60.8846 19.866 59.1727 19.866 58.1137 18.8118Z" fill="white"/>
<path fill-rule="evenodd" clip-rule="evenodd" d="M51.7243 25.1956C50.9497 24.4211 50.7179 23.2562 51.1371 22.2441C51.5563 21.2321 52.5439 20.5723 53.6393 20.5723C54.7347 20.5723 55.7222 21.2321 56.1414 22.2441C56.5606 23.2562 56.3288 24.4211 55.5543 25.1956C55.0472 25.705 54.358 25.9914 53.6393 25.9914C52.9205 25.9914 52.2313 25.705 51.7243 25.1956Z" fill="white"/>
<path fill-rule="evenodd" clip-rule="evenodd" d="M65.1353 24.5754C64.4288 23.8687 64.4289 22.723 65.1356 22.0163C65.8423 21.3097 66.988 21.3097 67.6947 22.0163C68.4014 22.723 68.4015 23.8687 67.6949 24.5754C67.3533 24.9178 66.8886 25.1087 66.405 25.1052C65.9214 25.1017 65.4595 24.9041 65.123 24.5568L65.1353 24.5754Z" fill="white"/>
<path fill-rule="evenodd" clip-rule="evenodd" d="M58.7521 30.9464C58.049 30.2417 58.0499 29.1005 58.754 28.3969C59.4582 27.6932 60.5994 27.6932 61.3035 28.3969C62.0077 29.1005 62.0086 30.2417 61.3055 30.9464C60.9671 31.2855 60.5078 31.476 60.0288 31.476C59.5498 31.476 59.0905 31.2855 58.7521 30.9464Z" fill="white"/>
<path fill-rule="evenodd" clip-rule="evenodd" d="M44.6714 19.4495C43.2617 18.0381 43.2626 15.7512 44.6735 14.3409C46.0844 12.9306 48.3713 12.9306 49.7822 14.3409C51.193 15.7512 51.194 18.0381 49.7843 19.4495C49.1066 20.1281 48.1869 20.5094 47.2278 20.5094C46.2688 20.5094 45.3491 20.1281 44.6714 19.4495Z" fill="white"/>
<path fill-rule="evenodd" clip-rule="evenodd" d="M44.6714 6.7015C43.2617 5.29004 43.2626 3.00317 44.6735 1.59288C46.0844 0.182583 48.3713 0.182583 49.7822 1.59288C51.193 3.00317 51.194 5.29004 49.7843 6.7015C49.1074 7.38159 48.1874 7.76393 47.2278 7.76393C46.2683 7.76393 45.3483 7.38159 44.6714 6.7015Z" fill="white"/>
<path fill-rule="evenodd" clip-rule="evenodd" d="M38.3067 13.0609C36.897 11.6494 36.8979 9.36255 38.3088 7.95225C39.7197 6.54196 42.0065 6.54196 43.4174 7.95225C44.8283 9.36255 44.8292 11.6494 43.4195 13.0609C42.0067 14.4706 39.7194 14.4706 38.3067 13.0609Z" fill="white"/>
<path fill-rule="evenodd" clip-rule="evenodd" d="M25.4595 13.0609C24.0498 11.6494 24.0508 9.36255 25.4616 7.95225C26.8725 6.54196 29.1594 6.54196 30.5703 7.95225C31.9811 9.36255 31.9821 11.6494 30.5724 13.0609C29.8955 13.741 28.9755 14.1233 28.016 14.1233C27.0564 14.1233 26.1364 13.741 25.4595 13.0609Z" fill="white"/>
<path fill-rule="evenodd" clip-rule="evenodd" d="M13.3373 25.1956C12.5627 24.4211 12.331 23.2562 12.7502 22.2441C13.1694 21.2321 14.1569 20.5723 15.2523 20.5723C16.3477 20.5723 17.3352 21.2321 17.7544 22.2441C18.1736 23.2562 17.9419 24.4211 17.1673 25.1956C16.6602 25.705 15.9711 25.9914 15.2523 25.9914C14.5335 25.9914 13.8444 25.705 13.3373 25.1956Z" fill="white"/>
<path fill-rule="evenodd" clip-rule="evenodd" d="M32.4999 18.8108C31.7253 18.0363 31.4936 16.8714 31.9128 15.8594C32.332 14.8474 33.3195 14.1875 34.4149 14.1875C35.5103 14.1875 36.4978 14.8474 36.917 15.8594C37.3362 16.8714 37.1045 18.0363 36.3299 18.8108C35.2708 19.865 33.5589 19.865 32.4999 18.8108Z" fill="white"/>
<path fill-rule="evenodd" clip-rule="evenodd" d="M26.1102 25.1954C25.0551 24.1369 25.0569 22.4237 26.1143 21.3674C27.1717 20.3111 28.8849 20.3111 29.9424 21.3674C30.9998 22.4237 31.0016 24.1369 29.9464 25.1954C29.4391 25.7067 28.7486 25.9943 28.0283 25.9943C27.308 25.9943 26.6176 25.7067 26.1102 25.1954Z" fill="white"/>
<path fill-rule="evenodd" clip-rule="evenodd" d="M1.19663 24.5754C0.490042 23.8687 0.490133 22.723 1.19683 22.0163C1.90353 21.3097 3.04926 21.3097 3.75596 22.0163C4.46265 22.723 4.46275 23.8687 3.75616 24.5754C3.04291 25.2738 1.89966 25.2655 1.19663 24.5568V24.5754Z" fill="white"/>
<path fill-rule="evenodd" clip-rule="evenodd" d="M7.58611 30.9464C6.88298 30.2417 6.88384 29.1005 7.58802 28.3969C8.2922 27.6932 9.43335 27.6932 10.1375 28.3969C10.8417 29.1005 10.8426 30.2417 10.1394 30.9464C9.80111 31.2855 9.34178 31.476 8.86277 31.476C8.38377 31.476 7.92444 31.2855 7.58611 30.9464Z" fill="white"/>
<path fill-rule="evenodd" clip-rule="evenodd" d="M33.1381 30.9464C32.435 30.2417 32.4358 29.1005 33.14 28.3969C33.8442 27.6932 34.9853 27.6932 35.6895 28.3969C36.3937 29.1005 36.3946 30.2417 35.6914 30.9464C35.3531 31.2855 34.8938 31.476 34.4148 31.476C33.9358 31.476 33.4764 31.2855 33.1381 30.9464Z" fill="white"/>
<path fill-rule="evenodd" clip-rule="evenodd" d="M6.94789 18.8118C6.17331 18.0373 5.94158 16.8724 6.36077 15.8604C6.77995 14.8483 7.76749 14.1885 8.86289 14.1885C9.95829 14.1885 10.9458 14.8483 11.365 15.8604C11.7842 16.8724 11.5525 18.0373 10.7779 18.8118C9.71885 19.866 8.00694 19.866 6.94789 18.8118Z" fill="white"/>
<path fill-rule="evenodd" clip-rule="evenodd" d="M19.0823 19.432C17.6726 18.0205 17.6735 15.7336 19.0844 14.3233C20.4953 12.9131 22.7822 12.9131 24.193 14.3233C25.6039 15.7336 25.6049 18.0205 24.1952 19.432C22.7861 20.8434 20.5016 20.8517 19.0823 19.4506V19.432Z" fill="white"/>
<path fill-rule="evenodd" clip-rule="evenodd" d="M19.0825 6.65228C17.6967 5.22376 17.7271 2.94354 19.1505 1.55249C20.5739 0.16144 22.8543 0.183446 24.2505 1.60171C25.6468 3.01997 25.6333 5.30034 24.2202 6.70186C23.5406 7.38651 22.6159 7.77157 21.6513 7.77157C20.6867 7.77157 19.762 7.38651 19.0825 6.70186V6.65228Z" fill="white"/>
<path fill-rule="evenodd" clip-rule="evenodd" d="M12.699 13.0601C11.6648 12.0271 11.3549 10.4727 11.9139 9.12203C12.4729 7.77139 13.7906 6.89062 15.2524 6.89062C16.7141 6.89062 18.0318 7.77139 18.5908 9.12203C19.1498 10.4727 18.8399 12.0271 17.8057 13.0601C17.129 13.7383 16.2104 14.1194 15.2524 14.1194C14.2943 14.1194 13.3757 13.7383 12.699 13.0601Z" fill="white"/>
</svg>
