<svg width="56" height="56" viewBox="0 0 56 56" fill="none" xmlns="http://www.w3.org/2000/svg">
<path fill-rule="evenodd" clip-rule="evenodd" d="M9.7301 6.58191L16.3718 13.2192C19.0618 11.0678 22.2979 9.70843 25.7173 9.29355C29.1368 8.87868 32.6042 9.4247 35.7305 10.8704C38.8569 12.316 41.5188 14.6042 43.4174 17.4781C45.3161 20.3521 46.3763 23.6982 46.4795 27.1411V27.6828V49.418L39.8467 42.7808C37.1592 44.9346 33.9245 46.2967 30.5058 46.7143C27.0872 47.1318 23.6198 46.5883 20.4928 45.1447C17.3659 43.7011 14.7032 41.4145 12.8036 38.5417C10.904 35.6688 9.84276 32.3234 9.73891 28.8808V28.3391L9.7301 6.58191ZM14.2701 17.5444V28.3173C14.2711 30.8529 14.9611 33.3407 16.2664 35.5145C17.5716 37.6884 19.443 39.4667 21.6806 40.6595C23.9182 41.8522 26.4378 42.4145 28.9701 42.2863C31.5026 42.158 33.9525 41.344 36.0582 39.9314L36.4194 39.6848L15.1554 18.4297L14.2701 17.5444ZM19.7992 16.3197L20.1604 16.0687C22.2656 14.6568 24.715 13.8435 27.2465 13.7158C29.7781 13.588 32.2968 14.1505 34.5335 15.3433C36.7702 16.536 38.6408 18.3141 39.9452 20.4875C41.2497 22.661 41.939 25.148 41.9396 27.6828V38.4513L41.0588 37.5704L19.7992 16.3197Z" fill="white"/>
</svg>
