<svg width="42" height="48" viewBox="0 0 42 48" fill="none" xmlns="http://www.w3.org/2000/svg">
<path fill-rule="evenodd" clip-rule="evenodd" d="M0.761963 0.19043L8.14522 7.5688C11.1356 5.1772 14.7331 3.66605 18.5343 3.20485C22.3356 2.74365 26.1901 3.35064 29.6655 4.95772C33.141 6.5648 36.1001 9.10843 38.2107 12.3033C40.3214 15.4981 41.5 19.2179 41.6147 23.0452V23.6474V47.8095L34.2413 40.4312C31.2537 42.8255 27.6579 44.3397 23.8575 44.8039C20.0571 45.268 16.2025 44.6638 12.7264 43.0591C9.25031 41.4542 6.29032 38.9123 4.17864 35.7188C2.06697 32.5251 0.887202 28.8062 0.771755 24.9791V24.3769L0.761963 0.19043ZM5.80981 12.377V24.3527C5.81094 27.1714 6.57799 29.937 8.02896 32.3536C9.47994 34.7702 11.5603 36.747 14.0477 38.073C16.5352 39.3989 19.3361 40.0239 22.1512 39.8815C24.9664 39.7389 27.6899 38.834 30.0307 37.2636L30.4322 36.9894L6.79393 13.3611L5.80981 12.377ZM11.9544 11.0156L12.3558 10.7365C14.6961 9.16702 17.419 8.26294 20.2332 8.12091C23.0475 7.97888 25.8474 8.60423 28.3338 9.93016C30.8203 11.2561 32.8997 13.2327 34.3497 15.6487C35.7999 18.0649 36.5662 20.8296 36.5668 23.6474V35.6184L35.5877 34.6391L11.9544 11.0156Z" fill="black"/>
</svg>
