<svg xmlns="http://www.w3.org/2000/svg" viewBox="0 0 200 200"><defs><style>.cls-1{fill:#fe0420;}.cls-2{fill:#fff;}</style></defs><g id="图层_2" data-name="图层 2"><g id="图层_1-2" data-name="图层 1"><circle class="cls-1" cx="100" cy="100" r="100"/><path class="cls-2" d="M81.39,73.19c9.85.76,18.24,7.89,16.9,18.51-1.91,15.16-5.24,31.53-23.15,34.73-12.75,2.28-28.65-2.57-26-19C52.32,87.73,57,71.31,81.39,73.19Zm1.07,12.44c-5.71-4.8-13.81-.23-15.87,6a80,80,0,0,0-3.22,13.7c-.84,5.79-.7,10.87,6.9,10.79,11.75-.13,13.47-17.31,14.1-26A5.09,5.09,0,0,0,82.46,85.63Z"/><path class="cls-2" d="M117.6,108.49,114.14,125a1.47,1.47,0,0,1-1.41,1.17l-10.75.06a1.46,1.46,0,0,1-1.47-1.46,1.63,1.63,0,0,1,0-.31l10.59-49.67A1,1,0,0,1,112,74c10.82-.47,40.14-4.51,39.09,14.12C150,108,133.68,107.81,118.2,108A.61.61,0,0,0,117.6,108.49Zm17.77-23.4a27.36,27.36,0,0,0-12.18-.68.74.74,0,0,0-.61.57L120,97.12a.44.44,0,0,0,.35.52h.07c7.43.47,18,.39,16.68-10.49A2.5,2.5,0,0,0,135.37,85.09Z"/></g></g></svg>