<svg width="30" height="31" viewBox="0 0 30 31" fill="none" xmlns="http://www.w3.org/2000/svg">
<g clip-path="url(#clip0_8047_195667)">
<path d="M30 15.5C30 23.7838 23.2838 30.5 15 30.5C6.71619 30.5 0 23.7838 0 15.5C0 7.21619 6.71619 0.5 15 0.5C23.2856 0.5 30 7.21619 30 15.5Z" fill="#2081E2"/>
<path d="M6.39643 15.2054L6.46114 15.1036L10.3632 8.99929C10.4203 8.90992 10.5543 8.91916 10.5975 9.01624C11.2494 10.4772 11.8119 12.2942 11.5484 13.4254C11.4359 13.8908 11.1276 14.5211 10.7809 15.1036C10.7362 15.1884 10.6869 15.2716 10.6345 15.3518C10.6098 15.3887 10.5682 15.4103 10.5235 15.4103H6.51046C6.40258 15.4103 6.3394 15.2932 6.39643 15.2054Z" fill="white"/>
<path d="M24.7933 17.1383V18.1046C24.7933 18.16 24.7594 18.2094 24.7101 18.2309C24.4081 18.3604 23.374 18.835 22.944 19.433C21.8467 20.9602 21.0084 23.144 19.1344 23.144H11.3163C8.54541 23.144 6.3 20.8909 6.3 18.1107V18.0213C6.3 17.9474 6.36009 17.8873 6.43407 17.8873H10.7924C10.8786 17.8873 10.9418 17.9674 10.9341 18.0522C10.9033 18.3357 10.9557 18.6255 11.0898 18.889C11.3487 19.4145 11.885 19.7428 12.4644 19.7428H14.622V18.0583H12.4891C12.3797 18.0583 12.315 17.932 12.3782 17.8426C12.4013 17.8071 12.4275 17.7702 12.4552 17.7286C12.6571 17.4419 12.9453 16.9965 13.2319 16.4895C13.4276 16.1474 13.6172 15.7821 13.7698 15.4153C13.8006 15.3491 13.8252 15.2812 13.8499 15.215C13.8915 15.0979 13.9347 14.9884 13.9655 14.879C13.9963 14.7865 14.021 14.6895 14.0456 14.5985C14.1181 14.2872 14.1489 13.9574 14.1489 13.6153C14.1489 13.4812 14.1427 13.341 14.1304 13.2069C14.1242 13.0605 14.1057 12.9141 14.0872 12.7677C14.0749 12.6382 14.0518 12.5103 14.0271 12.3763C13.9963 12.1805 13.9532 11.9864 13.9038 11.7906L13.8869 11.7167C13.8499 11.5826 13.8191 11.4547 13.7759 11.3206C13.6542 10.8999 13.514 10.4899 13.366 10.1062C13.3121 9.95363 13.2504 9.80723 13.1888 9.66083C13.0979 9.44045 13.0054 9.24011 12.9206 9.05054C12.8775 8.96423 12.8405 8.88563 12.8035 8.8055C12.7619 8.71457 12.7187 8.62364 12.6756 8.53736C12.6448 8.47109 12.6093 8.40944 12.5846 8.34779L12.3211 7.8608C12.2841 7.79453 12.3458 7.71593 12.4182 7.73597L14.0672 8.18288H14.0718C14.0749 8.18288 14.0765 8.18444 14.078 8.18444L14.2953 8.24453L14.5342 8.31236L14.622 8.33699V7.35686C14.622 6.88373 15.0011 6.5 15.4696 6.5C15.7039 6.5 15.9165 6.59555 16.0691 6.75119C16.2217 6.90686 16.3172 7.11953 16.3172 7.35686V8.81168L16.4929 8.86097C16.5068 8.86562 16.5206 8.87177 16.533 8.88101C16.5761 8.91338 16.6378 8.96114 16.7164 9.01973C16.778 9.06902 16.8443 9.12914 16.9244 9.19079C17.0831 9.31868 17.2727 9.48359 17.4808 9.67316C17.5362 9.72092 17.5902 9.77024 17.6395 9.81956C17.9077 10.0692 18.2082 10.362 18.4948 10.6857C18.575 10.7766 18.6536 10.8691 18.7337 10.9661C18.8138 11.0648 18.8986 11.1619 18.9725 11.259C19.0697 11.3884 19.1744 11.5225 19.2654 11.6627C19.3085 11.729 19.3578 11.7968 19.3994 11.8631C19.5166 12.0403 19.6198 12.2237 19.7185 12.4071C19.7601 12.4918 19.8032 12.5843 19.8402 12.6752C19.9496 12.9203 20.0359 13.1699 20.0914 13.4196C20.1083 13.4735 20.1207 13.5321 20.1269 13.5845V13.5968C20.1453 13.6708 20.1515 13.7494 20.1577 13.8295C20.1823 14.0854 20.17 14.3412 20.1145 14.5985C20.0914 14.708 20.0606 14.8112 20.0236 14.9206C19.9866 15.0254 19.9496 15.1348 19.9019 15.2381C19.8094 15.4523 19.7 15.6665 19.5705 15.8669C19.5289 15.9409 19.4796 16.0195 19.4303 16.0934C19.3763 16.172 19.3208 16.246 19.2715 16.3184C19.2037 16.4109 19.1313 16.508 19.0573 16.5943C18.9911 16.6852 18.9233 16.7761 18.8493 16.8563C18.746 16.978 18.6474 17.0936 18.5441 17.2046C18.4825 17.277 18.4162 17.351 18.3484 17.4172C18.2822 17.4912 18.2143 17.5575 18.1527 17.6191C18.0494 17.7224 17.9631 17.8025 17.8907 17.8688L17.7212 18.0244C17.6965 18.046 17.6642 18.0583 17.6303 18.0583H16.3172V19.7428H17.9693C18.3392 19.7428 18.6905 19.6118 18.9741 19.3714C19.0712 19.2866 19.495 18.9198 19.9958 18.3666C20.0128 18.3481 20.0344 18.3342 20.0591 18.328L24.6223 17.0089C24.707 16.9842 24.7933 17.0489 24.7933 17.1383Z" fill="white"/>
</g>
<defs>
<clipPath id="clip0_8047_195667">
<rect width="30" height="30" fill="white" transform="translate(0 0.5)"/>
</clipPath>
</defs>
</svg>
