<svg width="16" height="16" viewBox="0 0 16 16" fill="none" xmlns="http://www.w3.org/2000/svg">
<path d="M11.9528 9.25737C12.9068 9.23968 13.9324 9.37068 14.3114 9.46369C15.1144 9.62154 15.6425 9.94379 15.8613 10.4121C16.0462 10.7966 16.0462 11.2426 15.8613 11.6265C15.5266 12.3528 14.4475 12.586 14.0282 12.6463C13.9416 12.6594 13.8719 12.584 13.881 12.4969C14.0952 10.4842 12.391 9.52984 11.9502 9.31042C11.9313 9.3006 11.9274 9.28553 11.9293 9.27636C11.9306 9.26981 11.9385 9.25933 11.9528 9.25737ZM4.04771 9.25763C4.06204 9.25959 4.0692 9.27007 4.0705 9.27597C4.07245 9.28579 4.06855 9.3002 4.05031 9.31068C3.6088 9.5301 1.9046 10.4844 2.11885 12.4965C2.12797 12.5843 2.05894 12.659 1.97233 12.6465C1.55295 12.5863 0.473912 12.3531 0.139194 11.6267C-0.0463981 11.2422 -0.0463981 10.7968 0.139194 10.4124C0.357998 9.94406 0.885472 9.6218 1.6884 9.46329C2.06805 9.37094 3.09305 9.23994 4.04771 9.25763ZM7.96293 2.54546C9.66192 2.54546 11.0242 3.91438 11.0242 5.62389C11.0242 7.33275 9.66192 8.70299 7.96293 8.70299C6.26394 8.70299 4.90163 7.33275 4.90163 5.62389C4.90163 3.91438 6.26394 2.54546 7.96293 2.54546ZM12.1188 3.05883C13.7599 3.05883 15.0486 4.61181 14.6097 6.34163C14.3134 7.50619 13.2409 8.27973 12.0459 8.24829C11.9261 8.24502 11.8082 8.23388 11.6943 8.21423C11.6116 8.19983 11.5699 8.10616 11.6168 8.03673C12.0726 7.3621 12.3324 6.55057 12.3324 5.67944C12.3324 4.77031 12.0485 3.92276 11.5555 3.22782C11.5399 3.20621 11.5282 3.1728 11.5438 3.14791C11.5568 3.12761 11.5809 3.11713 11.6037 3.11189C11.7698 3.07783 11.9404 3.05883 12.1188 3.05883ZM3.88068 3.05877C4.0591 3.05877 4.22972 3.07776 4.39643 3.11182C4.41857 3.11706 4.44331 3.1282 4.45634 3.14785C4.47132 3.17274 4.46025 3.20614 4.44462 3.22776C3.95166 3.9227 3.66773 4.77025 3.66773 5.67937C3.66773 6.5505 3.92756 7.36203 4.3834 8.03667C4.43029 8.1061 4.38861 8.19976 4.30591 8.21417C4.1913 8.23447 4.07408 8.24495 3.95426 8.24823C2.75931 8.27967 1.68678 7.50613 1.39048 6.34156C0.950918 4.61174 2.23965 3.05877 3.88068 3.05877Z" fill="#3772FF"/>
<path d="M12.9091 12.647C12.9091 14.2028 3.09091 14.2144 3.09091 12.647C3.09091 10.683 5.28878 9.09091 8 9.09091C10.7112 9.09091 12.9091 10.683 12.9091 12.647Z" fill="#3772FF"/>
</svg>
