<svg width="24" height="24" viewBox="0 0 24 24" fill="none" xmlns="http://www.w3.org/2000/svg">
<mask id="mask0_898_16569" style="mask-type:alpha" maskUnits="userSpaceOnUse" x="0" y="0" width="24" height="24">
<rect width="24" height="24" fill="black" fill-opacity="0.85"/>
</mask>
<g mask="url(#mask0_898_16569)">
<path fill-rule="evenodd" clip-rule="evenodd" d="M4.84054 19.1595C2.94174 17.2607 1.875 14.6853 1.875 12C1.875 9.31468 2.94174 6.73935 4.84054 4.84054C6.73935 2.94174 9.31468 1.875 12 1.875C14.6853 1.875 17.2607 2.94174 19.1595 4.84054C21.0583 6.73935 22.125 9.31468 22.125 12C22.125 14.6853 21.0583 17.2607 19.1595 19.1595C17.2607 21.0583 14.6853 22.125 12 22.125C9.31468 22.125 6.73935 21.0583 4.84054 19.1595ZM11.9315 11.9947C13.444 11.9947 14.6566 10.7907 14.6566 9.28983H14.6571C14.6571 7.78844 13.444 6.59996 11.9315 6.59996C10.4191 6.59996 9.20599 7.78844 9.20599 9.28983C9.20599 10.7907 10.4191 11.9947 11.9315 11.9947ZM7.43411 17.5441H16.292C16.6811 17.5248 17.1483 17.236 17.129 16.8503V16.8889C17.129 14.5958 15.1629 12.7656 12.9045 12.7656H10.8216C8.56329 12.7656 6.86952 14.5765 6.86952 16.8696C6.86952 17.2548 7.04454 17.5441 7.43411 17.5441Z" fill="white"/>
</g>
</svg>
