<svg width="30" height="31" viewBox="0 0 30 31" fill="none" xmlns="http://www.w3.org/2000/svg">
<g clip-path="url(#clip0_6655_137084)">
<g clip-path="url(#clip1_6655_137084)">
<path d="M3.51207 16.7913L10.4521 28.8171C10.7419 29.319 11.2191 29.6852 11.7789 29.8352C12.3387 29.9852 12.9352 29.9067 13.4371 29.617L20.0655 25.7933C19.6816 25.7385 19.3117 25.6106 18.976 25.4166L6.95122 18.4741C5.87236 17.852 5.07699 16.8356 4.73258 15.6388L3.63249 11.7839L3.0995 13.8784C2.85507 14.8662 3.00295 15.9102 3.51207 16.7913Z" fill="black"/>
<path fill-rule="evenodd" clip-rule="evenodd" d="M5.76001 7.25277C5.99304 7.07656 6.25904 6.94886 6.54227 6.87723C7.73049 6.57676 8.92044 6.28253 10.1104 5.98831C10.6358 5.85839 11.1612 5.72847 11.6865 5.59802C12.6723 5.35322 13.7146 5.49928 14.5952 6.00562L26.6199 12.9481C27.1218 13.2379 27.4881 13.7152 27.6381 14.275C27.7881 14.8348 27.7095 15.4313 27.4198 15.9332L23.2678 23.1246C22.978 23.6265 22.5007 23.9927 21.9409 24.1427C21.3811 24.2927 20.7846 24.2142 20.2827 23.9244L8.258 16.9819C7.37922 16.4725 6.73157 15.6429 6.45067 14.6667L4.97546 9.59103C4.89587 9.30992 4.87347 9.01572 4.90956 8.7258C4.94565 8.43589 5.03951 8.15616 5.18558 7.90314C5.33166 7.65013 5.52699 7.42898 5.76001 7.25277ZM11.2965 11.4088C11.6947 10.719 11.4584 9.83699 10.7686 9.43874C10.0788 9.04048 9.19676 9.27683 8.7985 9.96662C8.40025 10.6564 8.63659 11.5385 9.32639 11.9367C10.0162 12.335 10.8982 12.0986 11.2965 11.4088Z" fill="black"/>
</g>
</g>
<defs>
<clipPath id="clip0_6655_137084">
<rect width="30" height="30" fill="white" transform="translate(0 0.637207)"/>
</clipPath>
<clipPath id="clip1_6655_137084">
<rect width="26" height="26" fill="white" transform="translate(-6 24.1372) rotate(-60)"/>
</clipPath>
</defs>
</svg>
