<svg width="30" height="31" viewBox="0 0 30 31" fill="none" xmlns="http://www.w3.org/2000/svg">
<g clip-path="url(#clip0_6673_146659)">
<g clip-path="url(#clip1_6673_146659)">
<path d="M3.51207 16.6536L10.4521 28.6794C10.7419 29.1813 11.2191 29.5475 11.7789 29.6975C12.3387 29.8475 12.9352 29.769 13.4371 29.4793L20.0655 25.6556C19.6816 25.6008 19.3117 25.4729 18.976 25.2789L6.95122 18.3364C5.87236 17.7143 5.07699 16.6979 4.73258 15.5011L3.63249 11.6462L3.0995 13.7407C2.85507 14.7285 3.00295 15.7725 3.51207 16.6536Z" fill="white"/>
<path fill-rule="evenodd" clip-rule="evenodd" d="M5.76001 7.11508C5.99304 6.93886 6.25904 6.81116 6.54227 6.73953C7.73049 6.43906 8.92044 6.14484 10.1104 5.85062C10.6358 5.7207 11.1612 5.59078 11.6865 5.46033C12.6723 5.21553 13.7146 5.36159 14.5952 5.86792L26.6199 12.8104C27.1218 13.1002 27.4881 13.5775 27.6381 14.1373C27.7881 14.6971 27.7095 15.2936 27.4198 15.7955L23.2678 22.9869C22.978 23.4888 22.5007 23.855 21.9409 24.005C21.3811 24.155 20.7846 24.0765 20.2827 23.7867L8.258 16.8442C7.37922 16.3348 6.73157 15.5052 6.45067 14.529L4.97546 9.45333C4.89587 9.17223 4.87347 8.87802 4.90956 8.58811C4.94565 8.29819 5.03951 8.01846 5.18558 7.76545C5.33166 7.51244 5.52699 7.29129 5.76001 7.11508ZM11.2965 11.2711C11.6947 10.5813 11.4584 9.6993 10.7686 9.30104C10.0788 8.90279 9.19676 9.13913 8.7985 9.82893C8.40025 10.5187 8.63659 11.4008 9.32639 11.799C10.0162 12.1973 10.8982 11.9609 11.2965 11.2711Z" fill="white"/>
</g>
</g>
<defs>
<clipPath id="clip0_6673_146659">
<rect width="30" height="30" fill="white" transform="translate(0 0.5)"/>
</clipPath>
<clipPath id="clip1_6673_146659">
<rect width="26" height="26" fill="white" transform="translate(-6 24) rotate(-60)"/>
</clipPath>
</defs>
</svg>
