<svg width="18" height="18" viewBox="0 0 18 18" fill="none" xmlns="http://www.w3.org/2000/svg">
<g clip-path="url(#clip0_6613_48719)">
<path fill-rule="evenodd" clip-rule="evenodd" d="M14.5932 3.475C13.6202 2.64523 12.4755 2.0411 11.2414 1.70592C11.1923 1.69398 11.1466 1.6705 11.1084 1.63743C11.0701 1.60436 11.0402 1.56264 11.0213 1.51573C11.0023 1.46883 10.9948 1.41808 10.9994 1.3677C11.0039 1.31731 11.0204 1.26874 11.0475 1.226L13.3333 -2.375H18.75L15.0721 3.40891C15.0475 3.44781 15.0147 3.48086 14.976 3.50577C14.9373 3.53068 14.8936 3.54685 14.848 3.55314C14.8024 3.55943 14.756 3.5557 14.712 3.5422C14.668 3.52871 14.6275 3.50577 14.5932 3.475ZM2.93333 3.40891L-0.75 -2.375H4.66667L6.9525 1.226C6.97957 1.26874 6.99606 1.31731 7.00062 1.3677C7.00519 1.41808 6.99768 1.46883 6.97873 1.51573C6.95977 1.56264 6.92992 1.60436 6.89164 1.63743C6.85335 1.6705 6.80774 1.69398 6.75858 1.70592C5.52447 2.0411 4.37982 2.64523 3.40675 3.475C3.3726 3.50481 3.33245 3.52694 3.28901 3.53988C3.24557 3.55282 3.19985 3.55628 3.15496 3.55001C3.11006 3.54375 3.06704 3.5279 3.0288 3.50356C2.99057 3.47922 2.95801 3.44694 2.93333 3.40891Z" fill="#777E90"/>
<path fill-rule="evenodd" clip-rule="evenodd" d="M1.5 10.5C1.5 6.36437 4.86437 3 9 3C13.1356 3 16.5 6.36437 16.5 10.5C16.5 14.6356 13.1356 18 9 18C4.86437 18 1.5 14.6356 1.5 10.5ZM13.3492 9.60089L11.7295 11.13C11.6692 11.1819 11.6237 11.248 11.5974 11.322C11.5711 11.396 11.565 11.4754 11.5795 11.5523L11.9545 13.6494C11.9703 13.7449 11.9582 13.8427 11.9198 13.9318C11.8813 14.021 11.818 14.0979 11.7369 14.154C11.6557 14.21 11.5601 14.2429 11.4608 14.249C11.3614 14.255 11.2623 14.234 11.1746 14.1883L9.23996 13.198C9.16538 13.162 9.08325 13.1433 9 13.1433C8.91675 13.1433 8.83462 13.162 8.76004 13.198L6.82538 14.1883C6.73636 14.2341 6.63586 14.2547 6.53536 14.2477C6.43486 14.2406 6.33842 14.2063 6.25707 14.1486C6.17572 14.0909 6.11273 14.0121 6.07532 13.9212C6.03791 13.8304 6.02758 13.7311 6.04552 13.6349L6.42045 11.5523C6.43503 11.4754 6.42888 11.396 6.40261 11.322C6.37633 11.248 6.33082 11.1819 6.27048 11.13L4.65076 9.60089C4.58355 9.53709 4.53618 9.45621 4.51406 9.3675C4.49195 9.2788 4.49598 9.18583 4.52571 9.09925C4.55543 9.01266 4.60964 8.93594 4.68214 8.87786C4.75465 8.81978 4.84252 8.78268 4.93571 8.77079L7.17032 8.45041C7.25079 8.44182 7.3276 8.41316 7.3933 8.36723C7.45899 8.3213 7.51134 8.25965 7.54525 8.18827L8.52008 6.29508C8.56309 6.20681 8.63102 6.13221 8.71598 6.07997C8.80095 6.02773 8.89944 6 9 6C9.10056 6 9.19905 6.02773 9.28402 6.07997C9.36898 6.13221 9.43691 6.20681 9.47991 6.29508L10.4547 8.18827C10.4887 8.25965 10.541 8.3213 10.6067 8.36723C10.6724 8.41316 10.7492 8.44182 10.8297 8.45041L13.0643 8.77079C13.1575 8.78268 13.2454 8.81978 13.3179 8.87786C13.3904 8.93594 13.4446 9.01266 13.4743 9.09925C13.504 9.18583 13.5081 9.2788 13.4859 9.3675C13.4638 9.45621 13.4165 9.53709 13.3492 9.60089Z" fill="#777E90"/>
</g>
<defs>
<clipPath id="clip0_6613_48719">
<rect width="18" height="18" fill="white"/>
</clipPath>
</defs>
</svg>
