<svg width="41" height="41" viewBox="0 0 41 41" fill="none" xmlns="http://www.w3.org/2000/svg">
<path fill-rule="evenodd" clip-rule="evenodd" d="M14.6474 1.37808C15.5298 0.49571 16.7265 0 17.9744 0L40.9999 0.000139526L31.1295 9.87051H12.0356C10.8355 9.87051 9.87035 10.8433 9.87035 12.0434V28.1235L0.787445 19.0406C0.262488 18.5156 4.29815e-06 17.8275 0 17.1394C-4.29774e-06 16.4514 0.26247 15.7634 0.78743 15.2383L14.6474 1.37808ZM28.9571 31.1295H9.87078L0.00042229 40.9999L23.026 41C24.2738 41 25.4705 40.5043 26.3529 39.6219L40.2129 25.7616C40.7379 25.2367 41.0003 24.5486 41.0003 23.8605C41.0003 23.1725 40.7379 22.4845 40.2129 21.9595L31.13 12.8765V28.9566C31.13 30.1566 30.1572 31.1295 28.9571 31.1295Z" fill="#4A21EF"/>
</svg>
