<svg width="56" height="56" viewBox="0 0 56 56" fill="none" xmlns="http://www.w3.org/2000/svg">
<path fill-rule="evenodd" clip-rule="evenodd" d="M22.684 11.8261C23.4432 11.0668 24.473 10.6403 25.5467 10.6403L45.3596 10.6404L36.8664 19.1336H20.4365C19.4039 19.1336 18.5734 19.9707 18.5734 21.0033V34.8398L10.7578 27.0242C10.3061 26.5724 10.0802 25.9804 10.0802 25.3883C10.0802 24.7963 10.306 24.2043 10.7578 23.7525L22.684 11.8261ZM34.9968 37.4265H18.5734L10.0802 45.9197L29.8932 45.9198C30.9669 45.9198 31.9966 45.4932 32.7559 44.7339L44.682 32.8075C45.1338 32.3558 45.3596 31.7637 45.3596 31.1716C45.3596 30.5796 45.1338 29.9876 44.682 29.5358L36.8664 21.7201V35.5567C36.8664 36.5893 36.0294 37.4265 34.9968 37.4265Z" fill="#4A21EF"/>
</svg>
