<svg width="24" height="24" viewBox="0 0 24 24" fill="none" xmlns="http://www.w3.org/2000/svg">
<mask id="mask0_896_21414" style="mask-type:alpha" maskUnits="userSpaceOnUse" x="0" y="0" width="24" height="24">
<rect width="24" height="24" fill="black" fill-opacity="0.85"/>
</mask>
<g mask="url(#mask0_896_21414)">
<path d="M6.16023 11.1689C6.11684 11.2735 6.0945 11.3856 6.09448 11.4989L6.09514 16.874C6.09496 17.05 6.03017 17.2198 5.91311 17.351C5.79605 17.4823 5.63489 17.5658 5.46034 17.5857C5.05927 17.6328 4.72194 17.6666 4.451 17.6905C4.20847 17.7123 3.96479 17.6642 3.74858 17.552C3.53238 17.4398 3.35262 17.268 3.23045 17.057C2.52917 15.8338 2.0905 14.4773 1.94251 13.0744C1.79452 11.6716 1.94046 10.2532 2.371 8.91007C2.80154 7.56695 3.50719 6.32867 4.4428 5.27447C5.37842 4.22026 6.52339 3.37335 7.80444 2.78792C9.0855 2.20249 10.4744 1.89145 11.8824 1.87468C13.2903 1.85791 14.6862 2.1358 15.9808 2.69055C17.2754 3.24531 18.4401 4.06471 19.4005 5.09634C20.3608 6.12797 21.0957 7.34909 21.5579 8.68157C21.6353 8.90715 21.6558 9.14841 21.6175 9.38384C21.5791 9.61926 21.4833 9.84152 21.3384 10.0308C20.3397 11.3347 19.0813 12.4192 17.8396 13.3208V7.20031C17.8396 6.97211 17.7491 6.75324 17.5881 6.5918C17.4272 6.43036 17.2088 6.33955 16.981 6.33933H15.5488C15.3209 6.33937 15.1023 6.4301 14.9412 6.59156C14.7801 6.75302 14.6896 6.97199 14.6896 7.20031V14.6329C14.6895 14.774 14.6479 14.912 14.57 15.0296C14.4921 15.1473 14.3814 15.2393 14.2516 15.2943C13.9024 15.442 13.5438 15.5875 13.5438 15.5875V9.35284C13.5438 9.12448 13.4532 8.90547 13.2921 8.74398C13.1309 8.58248 12.9123 8.49174 12.6844 8.49169H11.2506C11.0227 8.49174 10.8041 8.58248 10.643 8.74398C10.4818 8.90547 10.3913 9.12448 10.3913 9.35284V16.07C10.3912 16.2317 10.3367 16.3886 10.2365 16.5153C10.1363 16.6421 9.9963 16.7312 9.83922 16.7682C9.61249 16.8217 9.40645 16.8727 9.24546 16.9205V11.5049C9.24546 11.2765 9.15492 11.0575 8.99376 10.8961C8.8326 10.7346 8.61402 10.6439 8.3861 10.6439L6.95667 10.6392C6.84365 10.6387 6.73164 10.6605 6.62707 10.7035C6.52249 10.7465 6.42742 10.8097 6.34731 10.8896C6.2672 10.9694 6.20362 11.0644 6.16023 11.1689Z" fill="white"/>
<path d="M11.2192 22.0923C9.35803 21.9447 7.57392 21.2842 6.06421 20.1839C11.5857 19.3974 18.4129 16.8145 22.1104 11.2894C22.1259 11.5191 22.1368 11.7494 22.1368 11.9834C22.1371 13.8539 21.621 15.688 20.6455 17.2828C19.67 18.8776 18.2732 20.171 16.6095 21.0198C14.9459 21.8686 13.0803 22.2398 11.2192 22.0923Z" fill="white"/>
</g>
</svg>
