<svg width="24" height="24" viewBox="0 0 24 24" fill="none" xmlns="http://www.w3.org/2000/svg">
<mask id="mask0_1389_33463" style="mask-type:alpha" maskUnits="userSpaceOnUse" x="0" y="0" width="24" height="24">
<rect width="24" height="24" fill="white"/>
</mask>
<g mask="url(#mask0_1389_33463)">
<path d="M21.616 13.6468C20.7473 12.6839 20.743 11.2004 21.6089 10.336C22.2561 9.68794 22.4532 8.71576 22.1096 7.8668C21.8243 7.02805 21.3721 6.21212 20.6332 5.22644C20.102 4.46486 19.1508 4.11754 18.2539 4.35773C17.7432 4.50038 17.1726 4.41194 16.5065 4.07244C15.9625 3.78214 15.5591 3.28408 15.3881 2.69164L15.371 2.64314C15.0385 1.81332 14.294 1.21951 13.4111 1.07975C12.4278 0.973416 11.4359 0.973416 10.4526 1.07975C9.57774 1.20304 8.85408 1.82315 8.59823 2.66882C8.28441 3.39488 7.91496 3.85562 7.47276 4.07672C6.80661 4.41051 6.2346 4.50466 5.72536 4.36201L5.66402 4.34917C4.66551 4.22507 3.83389 4.52035 3.26331 5.20504L3.24476 5.22929C2.67151 6.05248 2.17991 6.92962 1.77695 7.84825L1.76268 7.88392C1.50281 8.72153 1.68364 9.63374 2.2434 10.3089L2.25481 10.3217C3.12922 11.2846 3.13493 12.7724 2.26764 13.6396C1.61441 14.2936 1.42009 15.277 1.77552 16.1302C2.17606 17.0135 2.66548 17.8537 3.2362 18.6379C3.76187 19.4002 4.70771 19.7529 5.60411 19.5209C6.92786 19.2627 8.13891 19.9574 8.48696 21.177L8.50408 21.2255C8.85497 22.0391 9.55583 22.6497 10.4098 22.8859C10.8663 23 11.5096 23 11.9361 23C12.1627 22.9955 12.3888 22.9793 12.6137 22.9515C12.8627 22.9209 13.1131 22.9033 13.364 22.8987H13.4139C14.3696 22.7789 15.1257 22.1712 15.3767 21.3082C15.6905 20.5822 16.06 20.1214 16.5022 19.9003C17.1683 19.568 17.7403 19.4724 18.2496 19.615L18.3038 19.6264C19.1702 19.7764 20.0503 19.4496 20.6089 18.7706L20.6218 18.7549C21.3635 17.7649 21.8214 16.9476 22.1053 16.106C22.4474 15.262 22.2551 14.2955 21.616 13.6468Z" stroke="white" stroke-opacity="0.92" stroke-width="2"/>
<circle cx="11.9999" cy="12" r="4" stroke="white" stroke-opacity="0.92" stroke-width="2"/>
</g>
</svg>
