<svg width="24" height="24" viewBox="0 0 24 24" fill="none" xmlns="http://www.w3.org/2000/svg">
<path d="M17.8163 15.6837C17.1256 15.6837 16.4883 15.926 15.989 16.3307L10.9676 12.698C11.0517 12.2365 11.0517 11.7635 10.9676 11.302L15.989 7.66926C16.4883 8.07398 17.1256 8.31633 17.8163 8.31633C19.4207 8.31633 20.7245 7.0125 20.7245 5.40816C20.7245 3.80383 19.4207 2.5 17.8163 2.5C16.212 2.5 14.9082 3.80383 14.9082 5.40816C14.9082 5.68929 14.9469 5.95829 15.0221 6.21518L10.2527 9.66862C9.54503 8.73074 8.42054 8.12245 7.15306 8.12245C5.01072 8.12245 3.27551 9.85765 3.27551 12C3.27551 14.1423 5.01072 15.8776 7.15306 15.8776C8.42054 15.8776 9.54503 15.2693 10.2527 14.3314L15.0221 17.7848C14.9469 18.0417 14.9082 18.3131 14.9082 18.5918C14.9082 20.1962 16.212 21.5 17.8163 21.5C19.4207 21.5 20.7245 20.1962 20.7245 18.5918C20.7245 16.9875 19.4207 15.6837 17.8163 15.6837Z" fill="black"/>
</svg>
