<svg width="24" height="24" viewBox="0 0 24 24" fill="none" xmlns="http://www.w3.org/2000/svg">
<g clip-path="url(#clip0_896_21460)">
<path d="M19.3673 16.6531C18.4949 16.6531 17.6898 16.9592 17.0592 17.4704L10.7163 12.8816C10.8225 12.2987 10.8225 11.7013 10.7163 11.1184L17.0592 6.52959C17.6898 7.04082 18.4949 7.34694 19.3673 7.34694C21.3939 7.34694 23.0408 5.7 23.0408 3.67347C23.0408 1.64694 21.3939 0 19.3673 0C17.3408 0 15.6939 1.64694 15.6939 3.67347C15.6939 4.02857 15.7429 4.36837 15.8378 4.69286L9.81327 9.0551C8.91939 7.87041 7.49898 7.10204 5.89796 7.10204C3.19184 7.10204 1 9.29388 1 12C1 14.7061 3.19184 16.898 5.89796 16.898C7.49898 16.898 8.91939 16.1296 9.81327 14.9449L15.8378 19.3071C15.7429 19.6316 15.6939 19.9745 15.6939 20.3265C15.6939 22.3531 17.3408 24 19.3673 24C21.3939 24 23.0408 22.3531 23.0408 20.3265C23.0408 18.3 21.3939 16.6531 19.3673 16.6531Z" fill="white"/>
</g>
<defs>
<clipPath id="clip0_896_21460">
<rect width="24" height="24" fill="white"/>
</clipPath>
</defs>
</svg>
