<svg width="16" height="16" viewBox="0 0 16 16" fill="none" xmlns="http://www.w3.org/2000/svg">
<mask id="mask0_1111_12406" style="mask-type:alpha" maskUnits="userSpaceOnUse" x="0" y="0" width="16" height="16">
<rect width="16" height="16" fill="white"/>
</mask>
<g mask="url(#mask0_1111_12406)">
<path fill-rule="evenodd" clip-rule="evenodd" d="M0.5 6.45449C0.5 4.21423 2.52478 2.5 4.892 2.5C6.10027 2.5 7.20217 2.94043 8.00019 3.66545C8.79979 2.94023 9.90605 2.5 11.108 2.5C13.4752 2.5 15.5 4.21423 15.5 6.45449C15.5 8.80697 14.2641 10.651 12.8137 11.963C11.3674 13.2712 9.66035 14.0966 8.58034 14.4225C8.39826 14.4788 8.18784 14.5 8 14.5C7.81215 14.5 7.60172 14.4788 7.41964 14.4225C6.33963 14.0966 4.63257 13.2712 3.18634 11.963C1.7359 10.651 0.5 8.80697 0.5 6.45449Z" fill="#777E90"/>
</g>
</svg>
