<svg width="16" height="16" viewBox="0 0 16 16" fill="none" xmlns="http://www.w3.org/2000/svg">
<path fill-rule="evenodd" clip-rule="evenodd" d="M8.77623 15.2693L10.3813 13.6098L12.69 13.608C13.2485 13.6076 13.6984 13.1497 13.6891 12.5913L13.6506 10.2829L15.2819 8.64912C15.6765 8.2539 15.6709 7.61205 15.2694 7.22376L13.6099 5.6187L13.6081 3.30996C13.6077 2.75146 13.1499 2.30156 12.5914 2.31088L10.283 2.34938L8.64925 0.718126C8.25402 0.32351 7.61217 0.329112 7.22389 0.730566L5.61882 2.39008L3.31009 2.39188C2.75158 2.39231 2.30169 2.85013 2.311 3.40855L2.3495 5.71696L0.718248 7.35075C0.323632 7.74598 0.329234 8.38783 0.730688 8.77611L2.39021 10.3812L2.392 12.6899C2.39243 13.2484 2.85025 13.6983 3.40868 13.689L5.71709 13.6505L7.35087 15.2817C7.7461 15.6764 8.38795 15.6708 8.77623 15.2693ZM11.1823 6.77286C11.4806 6.48548 11.4894 6.01069 11.2021 5.71239C10.9147 5.41408 10.4399 5.40523 10.1416 5.69261L6.98559 8.73308L6.05522 7.78678C5.76482 7.49142 5.28997 7.48739 4.9946 7.77778C4.69923 8.06818 4.6952 8.54304 4.9856 8.83841L6.43646 10.3141C6.72477 10.6074 7.19546 10.6137 7.49162 10.3284L11.1823 6.77286Z" fill="#3772FF"/>
</svg>
