<svg width="24" height="24" viewBox="0 0 24 24" fill="none" xmlns="http://www.w3.org/2000/svg">
<mask id="mask0_875_12884" style="mask-type:alpha" maskUnits="userSpaceOnUse" x="0" y="0" width="24" height="24">
<path d="M24 0L0 0L0 24H24V0Z" fill="black" fill-opacity="0.85"/>
</mask>
<g mask="url(#mask0_875_12884)">
<path fill-rule="evenodd" clip-rule="evenodd" d="M20.0265 3.47102C21.1225 3.00954 22.2975 3.93631 22.1039 5.10966L19.8182 18.9687C19.5977 20.3049 18.1301 21.0717 16.9042 20.4058C15.8783 19.8486 14.3563 18.9909 12.9845 18.0946C12.2996 17.647 10.2022 16.2118 10.46 15.1902C10.6804 14.3166 14.2063 11.0345 16.2212 9.08259C17.0127 8.31587 16.6522 7.87293 15.7175 8.57888C13.3988 10.3301 9.67613 12.9927 8.44508 13.742C7.35893 14.4031 6.79183 14.5159 6.11539 14.4031C4.88014 14.1972 3.73492 13.8785 2.79994 13.4909C1.53624 12.9671 1.59779 11.2304 2.79908 10.7247L20.0265 3.47102Z" fill="black"/>
</g>
</svg>
