<svg width="24" height="24" viewBox="0 0 24 24" fill="none" xmlns="http://www.w3.org/2000/svg">
<path d="M16.3148 8.45352C16.3826 8.28765 16.6174 8.28765 16.6852 8.45352L17.066 9.38622C17.1675 9.63501 17.365 9.83246 17.6138 9.93404L18.5465 10.3148C18.7124 10.3826 18.7124 10.6174 18.5465 10.6852L17.6138 11.066C17.365 11.1675 17.1675 11.365 17.066 11.6138L16.6852 12.5465C16.6174 12.7124 16.3826 12.7124 16.3148 12.5465L15.934 11.6138C15.8325 11.365 15.635 11.1675 15.3862 11.066L14.4535 10.6852C14.2876 10.6174 14.2876 10.3826 14.4535 10.3148L15.3862 9.93404C15.635 9.83246 15.8325 9.63501 15.934 9.38622L16.3148 8.45352Z" fill="#777E90"/>
<path d="M20.3148 0.453517C20.3826 0.287648 20.6174 0.287648 20.6852 0.453518L21.3559 2.0963C21.4575 2.3451 21.6549 2.54254 21.9037 2.64412L23.5465 3.31484C23.7124 3.38256 23.7124 3.61744 23.5465 3.68516L21.9037 4.35588C21.6549 4.45746 21.4575 4.6549 21.3559 4.9037L20.6852 6.54648C20.6174 6.71235 20.3826 6.71235 20.3148 6.54648L19.6441 4.9037C19.5425 4.6549 19.3451 4.45746 19.0963 4.35588L17.4535 3.68516C17.2876 3.61744 17.2876 3.38256 17.4535 3.31484L19.0963 2.64412C19.3451 2.54254 19.5425 2.3451 19.6441 2.0963L20.3148 0.453517Z" fill="#777E90"/>
<path d="M22.543 16.999C22.974 16.2286 22.1223 15.4364 21.2622 15.6353C20.5353 15.8034 19.778 15.8923 19 15.8923C13.4772 15.8923 9 11.4151 9 5.89228C9 4.52942 9.27263 3.23024 9.76634 2.04629C10.1059 1.23197 9.46696 0.261168 8.63595 0.557561C4.18543 2.14491 1 6.3966 1 11.3923C1 17.7436 6.14873 22.8923 12.5 22.8923C16.8155 22.8923 20.5758 20.5152 22.543 16.999Z" fill="#777E90"/>
</svg>
