<svg width="16" height="17" viewBox="0 0 16 17" fill="none" xmlns="http://www.w3.org/2000/svg">
<path fill-rule="evenodd" clip-rule="evenodd" d="M1.47852 9.48378C1.47852 5.88401 4.39671 2.96582 7.99648 2.96582C11.5962 2.96582 14.5144 5.88401 14.5144 9.48378C14.5144 13.0836 11.5962 16.0017 7.99648 16.0017C4.39671 16.0017 1.47852 13.0836 1.47852 9.48378ZM6.96406 6.69163C6.67077 6.39914 6.1959 6.39978 5.9034 6.69307C5.6109 6.98636 5.61155 7.46123 5.90484 7.75373L7.51717 9.3617V12.2182C7.51717 12.6324 7.85296 12.9682 8.26717 12.9682C8.68138 12.9682 9.01717 12.6324 9.01717 12.2182V9.05045C9.01717 8.85118 8.93787 8.66011 8.79678 8.5194L6.96406 6.69163Z" fill="#3772FF"/>
<path d="M0.896973 4.41015C1.52178 3.57274 2.81283 2.2483 4.56618 1.52197" stroke="#3772FF" stroke-width="1.5" stroke-linecap="round" stroke-linejoin="round"/>
<path d="M15.1035 4.41015C14.4787 3.57274 13.1877 2.2483 11.4343 1.52197" stroke="#3772FF" stroke-width="1.5" stroke-linecap="round" stroke-linejoin="round"/>
</svg>
