<svg width="30" height="30" viewBox="0 0 30 30" fill="none" xmlns="http://www.w3.org/2000/svg">
<g clip-path="url(#clip0_9020_3951)">
<path d="M10.4733 25.7688C11.2645 24.9776 11.8094 24.0106 12.0731 22.9909L7.0273 17.9451C6.00754 18.2089 5.04056 18.7539 4.24943 19.545C2.43864 21.3734 0.262877 28.1205 0.0343027 28.8588C-0.0537052 29.1753 0.0343613 29.5093 0.262877 29.7379C0.291442 29.7665 0.321654 29.7928 0.35324 29.817C0.574342 29.9857 0.862747 30.0434 1.12432 29.9665C1.8803 29.738 8.64479 27.5797 10.4733 25.7688Z" fill="#FFE470"/>
<path d="M6.1132 23.8875C5.77916 23.536 5.77916 22.9908 6.1132 22.6568L8.60977 20.1778C8.94381 19.8262 9.48885 19.8262 9.8229 20.1778H9.84048C9.95514 20.2868 10.0324 20.4201 10.0722 20.5619C10.1546 20.8547 10.0774 21.1836 9.84045 21.4087L7.36147 23.9051C7.18568 24.0634 6.95717 24.1513 6.74617 24.1513C6.5176 24.1513 6.28908 24.0634 6.11318 23.9051L6.1132 23.8875Z" fill="#FDBF00"/>
<path d="M10.2219 8.64544C3.97865 8.64544 2.00837 13.9237 1.85028 14.1001C1.71294 14.3722 1.72583 14.6967 1.88632 14.9568C2.04599 15.2169 2.32929 15.3757 2.63485 15.3757C6.24295 15.6947 8.49424 15.8937 8.31436 15.8778L11.3044 8.64532H10.2219V8.64544Z" fill="#FF7816"/>
<path d="M14.1219 21.6751C14.1356 21.8552 14.5763 27.6649 14.5477 27.2885C14.5477 27.9431 15.2392 28.3672 15.8235 28.0731C15.9995 27.9154 21.2781 25.9075 21.2781 19.7015V18.619L14.1219 21.6751Z" fill="#FF4B00"/>
<path d="M14.8575 22.66C14.8499 22.6652 14.8418 22.67 14.8334 22.6744C14.3703 22.9103 13.9072 23.1419 13.4505 23.3692C13.3662 23.4111 13.2822 23.4529 13.1983 23.4946C13.1215 23.5328 13.0449 23.5708 12.9686 23.6088C12.6715 23.7563 12.3783 23.902 12.0907 24.0458C11.7567 24.2216 11.3524 24.1513 11.0709 23.8875L6.11309 18.9297C5.84942 18.6484 5.77905 18.244 5.95494 17.91C6.09937 17.6211 6.2457 17.3266 6.39392 17.0282C6.69678 16.4185 7.00756 15.7929 7.32622 15.1673C7.46593 14.8967 8.03906 15.0596 8.6152 15.2232C9.19938 15.3892 9.78665 15.5561 9.92831 15.2728L14.7279 20.0724C14.7279 20.0724 14.7279 20.0724 14.7279 20.0724C14.6575 20.1076 14.6149 20.1703 14.5932 20.2536C14.5822 20.2961 14.5765 20.3438 14.5754 20.3961C14.5697 20.654 14.6737 21.0204 14.7775 21.3855C14.9003 21.8176 15.0225 22.248 14.9618 22.4951C14.9441 22.5672 14.9109 22.6237 14.8575 22.66Z" fill="#FF7816"/>
<path d="M24.837 16.3453C27.0523 14.2179 28.4764 11.7567 29.2675 8.73262L28.617 6.95682C27.0874 6.92172 25.6985 6.30631 24.6963 5.30418C23.6942 4.30217 23.0789 2.9132 23.0437 1.38366L21.2681 0.733154C18.2441 1.52435 15.7827 2.94847 13.6554 5.16367C11.159 7.73043 8.97881 11.8796 7.32617 15.1673L14.8333 22.6744C18.121 21.0219 22.2526 18.8418 24.837 16.3453Z" fill="#ECECF1"/>
<path d="M28.9245 8.72387C29.0607 8.72827 29.197 8.73266 29.2674 8.73266C29.3465 8.42059 29.4184 8.10385 29.4836 7.78347C29.5937 7.24233 29.6844 6.6908 29.7573 6.13385C29.9867 4.38265 30.0406 2.5779 29.9707 0.873995C29.9707 0.645421 29.8828 0.434424 29.7246 0.276162C29.5663 0.117959 29.3554 0.0300095 29.1268 0.0300095C26.5599 -0.0754595 23.7645 0.0828025 21.2681 0.73337C21.2681 0.803675 21.2724 0.9399 21.2768 1.07614C21.2812 1.21241 21.2855 1.34869 21.2855 1.41904C21.3207 3.44076 22.1295 5.23408 23.4481 6.55268C24.7666 7.87127 26.5598 8.67999 28.5817 8.71509C28.652 8.71509 28.7882 8.71948 28.9245 8.72387Z" fill="#FF7816"/>
<path d="M23.2393 9.18756C23.0239 8.65791 22.7008 8.16121 22.2701 7.73044C20.5647 6.02514 17.7693 6.02516 16.064 7.73047C14.3586 9.45348 14.3586 12.2137 16.064 13.9367V13.9542C16.064 13.9542 16.064 13.9542 16.064 13.9542C17.7693 15.6595 20.5648 15.6596 22.2701 13.9543C23.192 13.0323 23.6207 11.8083 23.556 10.6055C23.53 10.1225 23.4244 9.64284 23.2393 9.18756Z" fill="#44CAFA"/>
</g>
<defs>
<clipPath id="clip0_9020_3951">
<rect width="30" height="30" fill="white"/>
</clipPath>
</defs>
</svg>
