<svg width="30" height="30" viewBox="0 0 30 30" fill="none" xmlns="http://www.w3.org/2000/svg">
<path d="M3.75452 18.75H6.25452C7.63523 18.75 8.75452 19.8693 8.75452 21.25V26.25C8.75452 27.6307 7.63523 28.75 6.25452 28.75H3.75452C2.3738 28.75 1.25452 27.6307 1.25452 26.25V21.25C1.25452 19.8693 2.3738 18.75 3.75452 18.75Z" fill="#FF7816"/>
<path d="M13.7545 15H16.2545C17.6352 15 18.7545 16.1193 18.7545 17.5V26.25C18.7545 27.6307 17.6352 28.75 16.2545 28.75H13.7545C12.3738 28.75 11.2545 27.6307 11.2545 26.25V17.5C11.2545 16.1193 12.3738 15 13.7545 15Z" fill="#F4D45A"/>
<path d="M23.7545 11.25H26.2545C27.6352 11.25 28.7545 12.3693 28.7545 13.75V26.25C28.7545 27.6307 27.6352 28.75 26.2545 28.75H23.7545C22.3738 28.75 21.2545 27.6307 21.2545 26.25V13.75C21.2545 12.3693 22.3738 11.25 23.7545 11.25Z" fill="#44CAFA"/>
<path d="M23.8037 0.073349H20.1174C19.7606 0.073349 19.4184 0.215094 19.1661 0.467401C18.9138 0.719707 18.772 1.06191 18.772 1.41872C18.772 1.77554 18.9138 2.11774 19.1661 2.37004C19.4184 2.62235 19.7606 2.7641 20.1174 2.7641H20.8843C15.9569 8.17793 9.47718 11.937 2.33156 13.5271C2.15489 13.5659 1.9876 13.6392 1.83924 13.7428C1.69089 13.8463 1.56438 13.978 1.46693 14.1304C1.36949 14.2828 1.30302 14.453 1.27132 14.6311C1.23962 14.8092 1.2433 14.9918 1.28217 15.1684C1.32104 15.3451 1.39433 15.5124 1.49785 15.6608C1.60137 15.8091 1.7331 15.9356 1.88552 16.0331C2.03793 16.1305 2.20804 16.197 2.38615 16.2287C2.56425 16.2604 2.74685 16.2567 2.92353 16.2178C10.5683 14.5055 17.5067 10.4964 22.8081 4.72834V5.57593C22.8385 5.93274 23.0093 6.26289 23.2831 6.49375C23.5568 6.72462 23.9111 6.83727 24.2679 6.80694C24.6247 6.77661 24.9548 6.60578 25.1857 6.33203C25.4166 6.05828 25.5292 5.70403 25.4989 5.34721L25.1491 1.31109C25.122 0.97325 24.9684 0.658088 24.7189 0.428614C24.4695 0.199139 24.1426 0.0722637 23.8037 0.073349Z" fill="#FF7816"/>
</svg>
