<svg width="31" height="35" viewBox="0 0 31 35" fill="none" xmlns="http://www.w3.org/2000/svg">
<path opacity="0.9" d="M15.4958 1.83782L16.277 0.821167C16.0522 0.648367 15.7765 0.554688 15.493 0.554688C15.2094 0.554688 14.9338 0.648367 14.7089 0.821167L15.4958 1.83782ZM28.9249 5.78382H30.2058C30.208 5.6139 30.1766 5.44521 30.1133 5.28749C30.0501 5.12977 29.9562 4.98615 29.8371 4.86492C29.718 4.7437 29.5761 4.64726 29.4195 4.58119C29.2629 4.51512 29.0948 4.48072 28.9249 4.47997V5.78382ZM15.4958 33.2162L14.7836 34.2846C14.9935 34.4251 15.2404 34.5001 15.493 34.5001C15.7456 34.5001 15.9924 34.4251 16.2023 34.2846L15.4958 33.2162ZM2.07835 5.78382V4.49721C1.90841 4.49795 1.7403 4.53235 1.58374 4.59842C1.42717 4.66449 1.28524 4.76093 1.16615 4.88216C1.04706 5.00338 0.953159 5.147 0.889889 5.30472C0.826609 5.46244 0.795199 5.63113 0.797479 5.80105L2.07835 5.78382ZM14.7147 2.84873C20.5274 7.35192 27.1845 7.06472 28.9306 7.06472V4.49721C27.1213 4.49721 21.3258 4.72696 16.2942 0.821167L14.7147 2.84873ZM27.6498 5.76085C27.5521 11.7114 27.2994 15.9101 26.8169 19.0175C26.3344 22.1249 25.6681 23.94 24.7893 25.2381C23.9105 26.5362 22.7847 27.3805 21.1363 28.3627C19.4878 29.3449 17.3798 30.4362 14.7836 32.1536L16.2311 34.2846C18.6894 32.6476 20.7342 31.6022 22.4746 30.5626C24.2283 29.6076 25.7501 28.278 26.9318 26.6683C28.0805 24.9452 28.8674 22.6476 29.3729 19.4081C29.8784 16.1686 30.1368 11.8091 30.2345 5.80105L27.6498 5.76085ZM16.2311 32.1536C13.6521 30.4305 11.5499 29.3621 9.91294 28.3685C8.27594 27.3748 7.15014 26.5821 6.26554 25.2381C5.38104 23.894 4.66306 22.1077 4.16909 19.0175C3.67513 15.9274 3.45686 11.7114 3.35922 5.76085L0.797479 5.80105C0.895119 11.8091 1.15934 16.1801 1.65905 19.4081C2.15876 22.6361 2.92269 24.9337 4.09442 26.6683C5.27045 28.2789 6.78874 29.6089 8.54014 30.5626C10.2632 31.6022 12.3253 32.6476 14.7836 34.2846L16.2311 32.1536ZM2.07835 7.06472C3.80149 7.06472 10.4643 7.35192 16.277 2.84873L14.7089 0.821167C9.66594 4.72696 3.87042 4.49721 2.0726 4.49721L2.07835 7.06472Z" fill="#3688EB"/>
</svg>
