<svg width="24" height="24" viewBox="0 0 24 24" fill="none" xmlns="http://www.w3.org/2000/svg">
<mask id="mask0_37_1676" style="mask-type:alpha" maskUnits="userSpaceOnUse" x="0" y="0" width="24" height="24">
<rect width="24" height="24" fill="white"/>
</mask>
<g mask="url(#mask0_37_1676)">
<path d="M8.81188 20.9906H8.7277C7.03183 20.9757 5.36048 20.5803 3.83468 19.8333C3.25857 19.5602 2.92584 18.9403 3.01391 18.3042C3.10963 17.6643 3.60205 17.1588 4.23454 17.0513C5.18011 16.924 6.08977 16.6024 6.90728 16.1063C4.01567 13.825 2.5974 10.1268 3.21384 6.47561C3.29762 5.89589 3.7088 5.41875 4.2661 5.25452C4.80882 5.08253 5.40089 5.25383 5.77084 5.68987C7.01278 7.33316 8.86957 8.38901 10.9059 8.60986C10.954 7.35889 11.4868 6.17694 12.3896 5.31823C13.3002 4.43835 14.5227 3.96418 15.7829 4.00211C17.0431 4.04004 18.2355 4.58689 19.0925 5.51998C19.3187 5.72175 19.644 5.76383 19.9133 5.62616C20.4254 5.38242 21.031 5.45887 21.4678 5.82243C21.9047 6.18599 22.0943 6.77132 21.9546 7.32506C21.7119 8.33391 21.2521 9.27646 20.6077 10.0858C20.3121 16.3734 15.0449 21.2427 8.81188 20.9906Z" fill="#777E90"/>
</g>
</svg>
