<svg width="24" height="24" viewBox="0 0 24 24" fill="none" xmlns="http://www.w3.org/2000/svg">
<mask id="mask0_75_3291" style="mask-type:alpha" maskUnits="userSpaceOnUse" x="0" y="0" width="24" height="24">
<rect width="24" height="24" fill="white"/>
</mask>
<g mask="url(#mask0_75_3291)">
<path d="M8.81188 20.9907H8.7277C7.03183 20.9757 5.36048 20.5804 3.83468 19.8333C3.25857 19.5602 2.92584 18.9404 3.01391 18.3043C3.10963 17.6643 3.60205 17.1588 4.23454 17.0513C5.18011 16.924 6.08977 16.6024 6.90728 16.1063C4.01567 13.825 2.5974 10.1269 3.21384 6.47564C3.29762 5.89592 3.7088 5.41878 4.2661 5.25455C4.80882 5.08256 5.40089 5.25386 5.77084 5.6899C7.01278 7.33319 8.86957 8.38904 10.9059 8.60989C10.954 7.35892 11.4868 6.17697 12.3896 5.31826C13.3002 4.43838 14.5227 3.96421 15.7829 4.00214C17.0431 4.04007 18.2355 4.58692 19.0925 5.52001C19.3187 5.72178 19.644 5.76386 19.9133 5.62619C20.4254 5.38245 21.031 5.4589 21.4678 5.82246C21.9047 6.18602 22.0943 6.77135 21.9546 7.32509C21.7119 8.33394 21.2521 9.27649 20.6077 10.0858C20.3121 16.3734 15.0449 21.2428 8.81188 20.9907Z" fill="white"/>
</g>
</svg>
