<svg width="60" height="60" viewBox="0 0 60 60" fill="none" xmlns="http://www.w3.org/2000/svg">
<path opacity="0.5" fill-rule="evenodd" clip-rule="evenodd" d="M0 10C0 4.47715 4.47715 0 10 0H50C55.5228 0 60 4.47715 60 10V46.9196L53.8231 41.718C49.7187 38.2617 43.6687 38.456 39.7946 42.1687L35.7905 46.0059L24.6011 35.0829C20.6847 31.2597 14.4885 31.0861 10.3641 34.684L0 43.725V10ZM50.6024 45.5425L59.5245 53.0559C58.2452 57.0463 54.5276 59.9452 50.1252 59.9992L39.3704 49.5005L43.2542 45.7786C45.2834 43.8339 48.4525 43.7321 50.6024 45.5425ZM21.1084 38.6608L42.9681 60H10C4.59589 60 0.192986 55.7133 0.00617366 50.3547L13.651 38.4518C15.8113 36.5672 19.057 36.6582 21.1084 38.6608ZM35.9286 21C35.9286 18.8303 37.6875 17.0714 39.8571 17.0714C42.0268 17.0714 43.7857 18.8303 43.7857 21C43.7857 23.1697 42.0268 24.9286 39.8571 24.9286C37.6875 24.9286 35.9286 23.1697 35.9286 21ZM39.8571 12.0714C34.926 12.0714 30.9286 16.0689 30.9286 21C30.9286 25.9311 34.926 29.9286 39.8571 29.9286C44.7883 29.9286 48.7857 25.9311 48.7857 21C48.7857 16.0689 44.7883 12.0714 39.8571 12.0714Z" fill="url(#paint0_linear_1097_22619)"/>
<defs>
<linearGradient id="paint0_linear_1097_22619" x1="-5.39283" y1="11.0599" x2="16.727" y2="65.9922" gradientUnits="userSpaceOnUse">
<stop stop-color="#DB74FF"/>
<stop offset="0.589072" stop-color="#4381FE"/>
<stop offset="1" stop-color="#3FB6FD"/>
</linearGradient>
</defs>
</svg>
