<svg width="17" height="24" viewBox="0 0 17 24" fill="none" xmlns="http://www.w3.org/2000/svg">
<path d="M14.9316 12.2034L14.9273 12.1997C14.1156 11.4561 12.9746 10.9261 11.5367 10.6245L6.22829 9.56083C5.7018 9.4515 5.30202 9.29676 5.03904 9.0994L5.0348 9.09616C4.86726 8.97246 4.64404 8.74268 4.64404 8.18026C4.64404 7.35191 4.99663 6.79922 5.75111 6.44157C6.33857 6.16638 7.12592 6.02693 8.09142 6.02693C9.1672 6.02693 10.0632 6.23124 10.7546 6.63383L10.7594 6.63661C11.5383 7.08274 11.9009 7.71698 11.9009 8.63242C11.9009 9.01601 12.2572 9.32734 12.6962 9.32734H15.0503C15.4893 9.32734 15.8456 9.01601 15.8456 8.63242C15.8456 7.14807 15.3844 5.90462 14.4777 4.93915C13.5196 3.90789 12.1024 3.23984 10.2493 2.94102C10.2493 2.94102 10.2403 0.95019 10.2393 0.611532C10.2382 0.272874 9.92327 -0.000924216 9.53569 2.34475e-06L6.69699 0.00648828C6.30941 0.00741484 5.99606 0.282603 5.99712 0.621261L6.00719 2.89516C4.51998 3.13189 3.29256 3.67995 2.34402 4.53424C1.20038 5.56967 0.620337 6.89697 0.620337 8.47953C0.620337 9.93609 1.23643 11.0952 2.45431 11.9263C3.1441 12.3924 4.06347 12.7473 5.18697 12.9808L8.99488 13.7438C10.7737 14.1065 11.5128 14.441 11.8193 14.6578C12.1697 14.9057 12.3399 15.3236 12.3399 15.936C12.3399 16.5286 12.0971 16.9613 11.578 17.2958C10.876 17.7461 9.76368 17.974 8.27169 17.974C7.01034 17.974 5.99553 17.7488 5.25537 17.305C4.37311 16.775 3.94471 15.9791 3.94471 14.8709C3.94471 14.4874 3.58841 14.176 3.1494 14.176H0.795304C0.356296 14.176 0 14.4874 0 14.8709C0 15.7906 0.150047 16.6291 0.4459 17.362C0.756069 18.1324 1.32975 18.8519 2.14785 19.4982C2.80106 20.0189 3.49881 20.4127 4.22306 20.6689C4.76228 20.8588 5.37678 21.002 6.0618 21.0974L6.07188 23.3885C6.07294 23.7271 6.38788 24.0009 6.77546 24L9.61416 23.9935C10.0017 23.9926 10.3151 23.7174 10.314 23.3787L10.304 21.1081C11.5282 20.9399 12.6151 20.611 13.5488 20.1218C15.4167 19.1322 16.3636 17.6238 16.3636 15.6395C16.3636 14.2432 15.8817 13.0869 14.9316 12.2034Z" fill="#0078FF"/>
</svg>
