<svg width="24" height="24" viewBox="0 0 24 24" fill="none" xmlns="http://www.w3.org/2000/svg">
<path fill-rule="evenodd" clip-rule="evenodd" d="M2.5521 1H21.3621V5.53916H14.2286V8.54344C19.7956 8.77741 23.9979 9.87151 24 11.1861C23.9979 12.501 19.7849 13.5952 14.2242 13.8255V23.4106H9.68652V13.8274C4.17105 13.5873 0 12.4966 0 11.1871C0 9.87988 4.15984 8.78867 9.68652 8.54705V5.53916H2.5521V1ZM9.68652 8.81126C4.89489 9.0187 1.31097 9.85682 1.31097 10.8476C1.31097 11.9922 6.097 12.9273 11.999 12.9273C17.9011 12.9273 22.6852 11.9995 22.6852 10.8476C22.6852 9.84498 19.0605 9.00774 14.2286 8.80754V12.2157H9.68652V8.81126ZM24 11.1861C24 11.1864 24 11.1867 24 11.1871V11.1851C24 11.1854 24 11.1858 24 11.1861Z" fill="#26A17B"/>
</svg>
