<svg width="24" height="24" viewBox="0 0 24 24" fill="none" xmlns="http://www.w3.org/2000/svg">
<path d="M12.0002 23C18.0754 23 23.0002 18.0751 23.0002 12C23.0002 5.92487 18.0754 1 12.0002 1C5.92511 1 1.00024 5.92487 1.00024 12C1.00024 18.0751 5.92511 23 12.0002 23Z" stroke="white" stroke-opacity="0.92" stroke-width="2" stroke-linecap="round" stroke-linejoin="round"/>
<path d="M12.0002 11.4727C13.9332 11.4727 15.5002 9.90565 15.5002 7.97266C15.5002 6.03966 13.9332 4.47266 12.0002 4.47266C10.0672 4.47266 8.50024 6.03966 8.50024 7.97266C8.50024 9.90565 10.0672 11.4727 12.0002 11.4727Z" stroke="white" stroke-opacity="0.92" stroke-width="2" stroke-linecap="round" stroke-linejoin="round"/>
<path d="M5.59277 19.8179C5.95064 18.3895 6.77555 17.1217 7.93642 16.2158C9.09729 15.3099 10.5275 14.8179 12.0001 14.8179C13.4726 14.8179 14.9028 15.3099 16.0637 16.2158C17.2246 17.1217 18.0495 18.3895 18.4073 19.8179" stroke="white" stroke-opacity="0.92" stroke-width="2" stroke-linecap="round" stroke-linejoin="round"/>
</svg>
