<svg width="24" height="24" viewBox="0 0 24 24" fill="none" xmlns="http://www.w3.org/2000/svg">
<path d="M12 23C18.0751 23 23 18.0751 23 12C23 5.92487 18.0751 1 12 1C5.92487 1 1 5.92487 1 12C1 18.0751 5.92487 23 12 23Z" stroke="black" stroke-opacity="0.92" stroke-width="2" stroke-linecap="round" stroke-linejoin="round"/>
<path d="M12 11.4727C13.933 11.4727 15.5 9.90565 15.5 7.97266C15.5 6.03966 13.933 4.47266 12 4.47266C10.067 4.47266 8.5 6.03966 8.5 7.97266C8.5 9.90565 10.067 11.4727 12 11.4727Z" stroke="black" stroke-opacity="0.92" stroke-width="2" stroke-linecap="round" stroke-linejoin="round"/>
<path d="M5.59277 19.818C5.95064 18.3896 6.77555 17.1218 7.93642 16.2159C9.09729 15.31 10.5275 14.818 12.0001 14.818C13.4726 14.818 14.9028 15.31 16.0637 16.2159C17.2246 17.1218 18.0495 18.3896 18.4073 19.818" stroke="black" stroke-opacity="0.92" stroke-width="2" stroke-linecap="round" stroke-linejoin="round"/>
</svg>
