<svg width="36" height="36" viewBox="0 0 36 36" fill="none" xmlns="http://www.w3.org/2000/svg">
<path fill-rule="evenodd" clip-rule="evenodd" d="M28.6302 11.2206C22.7605 5.59313 13.2413 5.59313 7.37074 11.2206L6.59495 11.9633C6.45408 12.097 6.37459 12.2808 6.37459 12.4728C6.37459 12.6648 6.45408 12.8486 6.59495 12.9823L9.01231 15.2993C9.16029 15.4395 9.39532 15.4395 9.5433 15.2993L10.5846 14.3005C14.6795 10.3758 21.3214 10.3758 25.4163 14.3005L26.3892 15.2333C26.5372 15.3735 26.7722 15.3735 26.9202 15.2333L29.3366 12.9163C29.4772 12.7826 29.5566 12.599 29.5566 12.4073C29.5566 12.2155 29.4772 12.0319 29.3366 11.8982L28.6302 11.2206ZM35.7796 18.073L33.6286 16.0112L33.6277 16.0103C33.3319 15.7296 32.8615 15.7296 32.5657 16.0103L25.6809 22.6084C25.6071 22.6788 25.4883 22.6788 25.4154 22.6084L18.5305 16.0103C18.2347 15.7296 17.7643 15.7296 17.4685 16.0103L10.5836 22.6084C10.5107 22.6788 10.3919 22.6788 10.3181 22.6084L3.43325 16.0103C3.13748 15.7296 2.66703 15.7296 2.37127 16.0103L0.220304 18.0721C0.0794332 18.2059 -6.10352e-05 18.3897 -6.10352e-05 18.5816C-6.10352e-05 18.7736 0.0794332 18.9574 0.220304 19.0911L9.92123 28.389C10.217 28.6698 10.6874 28.6698 10.9832 28.389L17.8672 21.7909C17.9412 21.7208 18.0587 21.7208 18.1327 21.7909L25.0176 28.389C25.3134 28.6703 25.7846 28.6703 26.0804 28.389L35.7796 19.092C35.9204 18.9583 35.9999 18.7745 35.9999 18.5825C35.9999 18.3905 35.9204 18.2067 35.7796 18.073Z" fill="#3B99FC"/>
</svg>
