<svg width="24" height="24" viewBox="0 0 24 24" fill="none" xmlns="http://www.w3.org/2000/svg">
<mask id="mask0_875_12880" style="mask-type:alpha" maskUnits="userSpaceOnUse" x="0" y="0" width="24" height="24">
<rect width="24" height="24" fill="black" fill-opacity="0.85"/>
</mask>
<g mask="url(#mask0_875_12880)">
<path fill-rule="evenodd" clip-rule="evenodd" d="M22.949 10.1944L13.7874 3.05411C12.7472 2.24248 11.2909 2.24248 10.2481 3.05154L1.05046 10.1944C0.711422 10.4589 0.649779 10.9469 0.914329 11.286C1.06844 11.4838 1.29703 11.5865 1.53076 11.5865C1.69771 11.5865 1.86465 11.5326 2.00849 11.4221L3.54185 10.2329V18.5546C3.54185 20.2115 4.885 21.5546 6.54185 21.5546H17.4653C19.1222 21.5546 20.4653 20.2115 20.4653 18.5546V10.2304L21.9961 11.4247C22.3352 11.6892 22.8258 11.6276 23.0877 11.2886C23.3497 10.9495 23.2881 10.4589 22.949 10.1944ZM10.5396 19.567V15.139C10.5396 14.8642 10.763 14.6407 11.0378 14.6407H12.9642C13.239 14.6407 13.4624 14.8642 13.4624 15.139V19.567H10.5396Z" fill="black"/>
</g>
</svg>
